<?xml version="1.0" encoding="utf-8"?>
<!-- Generator: Adobe Illustrator 21.1.0, SVG Export Plug-In . SVG Version: 6.00 Build 0)  -->
<svg version="1.1" id="Layer_1" xmlns="http://www.w3.org/2000/svg" xmlns:xlink="http://www.w3.org/1999/xlink" x="0px" y="0px"
	 viewBox="0 0 659 207" style="enable-background:new 0 0 659 207;" xml:space="preserve">
<style type="text/css">
	.st0{fill:#4C4C4E;}
	.st1{fill:#D41F35;}
	.st2{fill:#575149;}
	.st3{fill:#07A9E0;}
	.st4{clip-path:url(#SVGID_2_);fill:url(#SVGID_3_);}
	.st5{clip-path:url(#SVGID_5_);fill:url(#SVGID_6_);}
	.st6{clip-path:url(#SVGID_8_);fill:url(#SVGID_9_);}
	.st7{fill:#FFC945;}
</style>
<g>
	<path class="st0" d="M329.3,173.6l-11.4-36.1h-41.3l-11.7,36.1h-14.7L291,53.2h14.4L346,173.6H329.3z M301.3,82.2
		c-3-9.5-3.5-14.5-3.5-14.5h-0.4c0,0-0.7,5.1-3.7,14.5l-14.4,45.7h35.9L301.3,82.2z"/>
	<rect x="362.7" y="36.2" class="st0" width="15.4" height="137.4"/>
	<path class="st0" d="M432.9,174.5c-17.2,0-23.5-12.3-23.5-23.8V88.9h-10.9v-9.6h10.9V57.5l15.4-4.7v26.4h16.4v9.6h-16.4v61.4
		c0,7.5,3.3,13.7,11.9,13.7c1.6,0,3-0.3,4.6-0.7v9.8C439.6,173.6,436.8,174.5,432.9,174.5"/>
	<path class="st0" d="M491.6,175.3c-24.5,0-35.9-10.7-35.9-27.8c0-25,23.5-32.4,52.7-35.4v-5.8c0-14.5-8.8-18.7-20.8-18.7
		c-9.1,0-17.5,3.3-22.8,6l-3.7-9.1c5.4-3,15.9-7,28.9-7c17.5,0,32.9,7.5,32.9,30.6v60.6C515.7,172.7,504.7,175.3,491.6,175.3
		 M508.4,120c-23.8,3-38,8.1-38,27.1c0,13.7,8.4,19.3,22.4,19.3c5.9,0,11.7-1,15.6-3.1V120z"/>
	<path class="st0" d="M556.5,61c-5.1,0-9.1-3.9-9.1-8.4c0-4.7,4-8.6,9.1-8.6c4.9,0,8.9,3.8,8.9,8.6C565.5,57.2,561.4,61,556.5,61
		 M548.8,79.2h15.4v94.4h-15.4V79.2z"/>
	<path class="st0" d="M626.9,89.4c-7.7-2.3-16.5-1.6-21.5,1.8v82.5H590V84.3c9.3-4.7,18.2-7.2,40.6-6.6L626.9,89.4z"/>
	<path class="st1" d="M132.9,30.7h-0.4h-0.3H98.9c-5.9,0-7.6,5.6-7.6,5.6s-19.8,52.5-25.4,64.1l17.8-19.3l31.2-34.2l8.4-9.2
		c3.3-3.6,5.1-5.2,6.7-6.1C131.3,30.9,132.3,30.7,132.9,30.7L132.9,30.7"/>
	<polygon class="st2" points="160.1,106.7 157.5,98.4 160,106.4 	"/>
	<polygon class="st2" points="160,106.4 160.1,106.7 157.5,98.4 	"/>
	<polygon class="st2" points="160,106.4 160.1,106.7 157.5,98.4 	"/>
	<path class="st3" d="M194.4,134.7l-42.4-54l5.5,17.6l2.6,8.4l17.8,55.9c1.5,4.6,1.9,7,1.9,8.9c0,1.5-0.3,2.4-0.6,3l0.1-0.2l0.2-0.4
		l16-29.9C198.1,139.1,194.4,134.7,194.4,134.7"/>
	<g>
		<g>
			<defs>
				<path id="SVGID_1_" d="M127.2,31.7c-1.6,0.9-3.4,2.5-6.7,6.1l-8.4,9.2l33.1,38.4c0,0,6.8,7.8,10.9,18.5c0.4,1,0.9,2,1.2,3v-0.1
					l-0.1-0.3l-2.5-8l-5.5-17.6l-13.8-43.4c0,0-2.1-6.6-5.2-6.6C129.6,30.7,128.5,30.9,127.2,31.7"/>
			</defs>
			<clipPath id="SVGID_2_">
				<use xlink:href="#SVGID_1_"  style="overflow:visible;"/>
			</clipPath>
			
				<linearGradient id="SVGID_3_" gradientUnits="userSpaceOnUse" x1="-1134.1597" y1="-2461.7415" x2="-1133.6113" y2="-2461.7415" gradientTransform="matrix(50.2991 84.0616 -84.0616 50.2991 -149771.4688 219205.5156)">
				<stop  offset="0" style="stop-color:#D1D4D4"/>
				<stop  offset="0.1351" style="stop-color:#E1E3E4"/>
				<stop  offset="0.2946" style="stop-color:#F1F0F2"/>
				<stop  offset="0.7168" style="stop-color:#F1F0F2"/>
				<stop  offset="0.859" style="stop-color:#DBDCDE"/>
				<stop  offset="1" style="stop-color:#C6C6C8"/>
			</linearGradient>
			<polygon class="st4" points="145.4,10.8 190.9,86.7 124.1,126.7 78.6,50.8 			"/>
		</g>
	</g>
	<g>
		<g>
			<defs>
				<path id="SVGID_4_" d="M81,81.1l-9.4,10.2l-39.7,43.5c0,0-4.5,5.1-3.1,7.8L29,143c0.3,0.5,0.9,1.1,2,1.8c1.6,1,3.8,1.8,8.6,2.8
					l12.2,2.7l16.8-48c0,0,3.4-9.8,10.5-18.7C79.7,82.8,80.3,81.9,81,81.1L81,81.1z"/>
			</defs>
			<clipPath id="SVGID_5_">
				<use xlink:href="#SVGID_4_"  style="overflow:visible;"/>
			</clipPath>
			
				<linearGradient id="SVGID_6_" gradientUnits="userSpaceOnUse" x1="-1139.3177" y1="-2464.5139" x2="-1138.7694" y2="-2464.5139" gradientTransform="matrix(-44.5651 110.9884 -110.9884 -44.5651 -324241.8125 16709.5977)">
				<stop  offset="0" style="stop-color:#D1D4D4"/>
				<stop  offset="0.1351" style="stop-color:#E1E3E4"/>
				<stop  offset="0.2946" style="stop-color:#F1F0F2"/>
				<stop  offset="0.7168" style="stop-color:#F1F0F2"/>
				<stop  offset="0.859" style="stop-color:#DBDCDE"/>
				<stop  offset="1" style="stop-color:#C6C6C8"/>
			</linearGradient>
			<polygon class="st5" points="104.9,90.7 73.5,168.9 3.3,140.7 34.7,62.5 			"/>
		</g>
	</g>
	<g>
		<g>
			<defs>
				<path id="SVGID_7_" d="M121.4,160.4c0,0-10.2,2.1-21.5,0.3c-1-0.2-2-0.3-3-0.5l2.3,0.5l20.2,4.5l3.1,0.7l45.4,10
					c0,0,6.2,1.5,8.3-1.2l0.1-0.2c0.2-0.6,0.6-1.5,0.6-3c0-1.9-0.4-4.2-1.9-8.9l-2.2-7l-1.5-4.7L121.4,160.4z"/>
			</defs>
			<clipPath id="SVGID_8_">
				<use xlink:href="#SVGID_7_"  style="overflow:visible;"/>
			</clipPath>
			
				<linearGradient id="SVGID_9_" gradientUnits="userSpaceOnUse" x1="-1136.2948" y1="-2457.3586" x2="-1135.7463" y2="-2457.3586" gradientTransform="matrix(145.8754 0 0 145.8754 165854.4531 358632.2812)">
				<stop  offset="0" style="stop-color:#D1D4D4"/>
				<stop  offset="0.1351" style="stop-color:#E1E3E4"/>
				<stop  offset="0.2946" style="stop-color:#F1F0F2"/>
				<stop  offset="0.7168" style="stop-color:#F1F0F2"/>
				<stop  offset="0.859" style="stop-color:#DBDCDE"/>
				<stop  offset="1" style="stop-color:#C6C6C8"/>
			</linearGradient>
			<rect x="97" y="150.9" class="st6" width="80" height="26.4"/>
		</g>
	</g>
	<g>
		<path class="st2" d="M28.9,143"/>
		<path class="st7" d="M119.5,165.3l-20.2-4.5l-2.3-0.5l-57.5-12.6c-4.8-1-7-1.9-8.6-2.8c-1.1-0.7-1.7-1.3-2-1.8l0,0
			c0.5,0.8,17.9,29.1,17.9,29.1c2.8,4.8,8.6,3.8,8.6,3.8l67.1-9.9l0,0L119.5,165.3z"/>
	</g>
</g>
</svg>
