<?xml version="1.0" encoding="utf-8"?>
<!-- Generator: Adobe Illustrator 21.1.0, SVG Export Plug-In . SVG Version: 6.00 Build 0)  -->
<svg version="1.1" id="Layer_1" xmlns="http://www.w3.org/2000/svg" xmlns:xlink="http://www.w3.org/1999/xlink" x="0px" y="0px"
	 viewBox="0 0 259.9 83.7" style="enable-background:new 0 0 259.9 83.7;" xml:space="preserve">
<style type="text/css">
	.st0{fill:#000200;}
	.st1{clip-path:url(#SVGID_2_);fill:#FFD457;}
	.st2{clip-path:url(#SVGID_2_);fill:#FFFFFF;}
</style>
<rect y="0" class="st0" width="259.9" height="83.7"/>
<g>
	<defs>
		<rect id="SVGID_1_" y="0" width="259.9" height="83.7"/>
	</defs>
	<clipPath id="SVGID_2_">
		<use xlink:href="#SVGID_1_"  style="overflow:visible;"/>
	</clipPath>
	<path class="st1" d="M149.1,19h-1.4c-0.1,0.7-0.5,2.3-2.4,2.3c-1.7,0-5.3-2.3-9.3-2.3c-6,0-12.1,3.7-12.1,11.4
		c0,6.6,4.3,9.6,10.5,13.1c9.9,5.8,10.9,8,10.9,11.9c0,3.6-2.7,7.4-8.1,7.4c-9.1,0-12.5-8.7-13.7-11.9H122l2,14.2h1.5
		c0-1.1,0.7-2.2,2.1-2.2c2,0,5.3,2.3,10.4,2.3c9.6,0,14.1-6.4,14.1-12.1c0-13.8-22.4-15.1-22.4-25.1c0-4.2,3.4-6.2,6.8-6.2
		c7,0,11.3,6,12.5,11.5h1.7L149.1,19"/>
	<path class="st1" d="M196.5,19.9h-14.7v1.3c2.1,0,4.6,0.1,4.6,2.2c0,0.9-0.5,1.7-0.9,2.5L175.9,41l-9.9-14.9
		c-0.6-0.9-1.1-2.1-1.1-2.9c0-1.9,1.7-1.9,4.8-2.1v-1.3h-18.8v1.3c3,0.3,4,0.5,10.8,10.5l8.8,12.9v11.7c0,5.1-0.2,6.6-6.8,6.8v1.3
		h20.5V63c-6-0.1-6.9-1.2-6.9-6V44l9.9-15.2c4.6-7.1,6.8-7.4,9.3-7.7V19.9"/>
	<path class="st1" d="M219.8,19h-1.4c-0.1,0.7-0.5,2.3-2.4,2.3c-1.7,0-5.3-2.3-9.3-2.3c-6,0-12.1,3.7-12.1,11.4
		c0,6.6,4.3,9.6,10.5,13.1c9.9,5.8,10.9,8,10.9,11.9c0,3.6-2.7,7.4-8,7.4c-9.1,0-12.5-8.7-13.8-11.9h-1.5l2,14.2h1.5
		c0-1.1,0.7-2.2,2.1-2.2c2,0,5.3,2.3,10.4,2.3c9.6,0,14.2-6.4,14.2-12.1c0-13.8-22.4-15.1-22.4-25.1c0-4.2,3.4-6.2,6.8-6.2
		c7.1,0,11.3,6,12.5,11.5h1.7L219.8,19"/>
	<path class="st1" d="M225,21.6h0.8c0.5,0,0.9,0.1,0.9,0.6c0,0.6-0.4,0.7-0.9,0.7H225V21.6z M224.3,25.4h0.7v-2h0.6l1.2,2h0.8
		l-1.2-2c0.7,0,1.1-0.5,1.1-1.2c0-0.9-0.5-1.3-1.5-1.3h-1.7V25.4z M222.7,23.2c0-1.8,1.3-3.2,3.1-3.2c1.7,0,3,1.4,3,3.2
		c0,1.8-1.3,3.2-3,3.2C224,26.4,222.7,25,222.7,23.2 M221.9,23.2c0,2.1,1.7,3.8,3.8,3.8c2.1,0,3.8-1.7,3.8-3.8
		c0-2.1-1.7-3.8-3.8-3.8C223.6,19.4,221.9,21.1,221.9,23.2"/>
	<polygon class="st2" points="42.3,64.3 53.8,28.4 65.1,64.3 78.4,64.3 61.6,19.7 47.3,19.7 30.5,64.3 	"/>
	<polygon class="st2" points="77.6,64.3 88.2,64.3 88.2,30.1 88.3,30.1 102.7,64.3 119,64.3 119,19.7 108.4,19.7 108.4,52.8 
		108.3,52.9 94.1,19.7 77.6,19.7 	"/>
</g>
</svg>
