<?xml version="1.0" encoding="utf-8"?>
<!-- Generator: Adobe Illustrator 21.1.0, SVG Export Plug-In . SVG Version: 6.00 Build 0)  -->
<svg version="1.1" id="Vrstva_1" xmlns="http://www.w3.org/2000/svg" xmlns:xlink="http://www.w3.org/1999/xlink" x="0px" y="0px"
	 viewBox="0 0 841.9 487.9" style="enable-background:new 0 0 841.9 487.9;" xml:space="preserve">
<style type="text/css">
	.st0{fill:#787D8D;}
	.st1{fill:#1D1D1B;}
	.st2{fill:#1D1D1B;stroke:#1D1D1B;stroke-width:1.8478;stroke-miterlimit:10;}
	.st3{fill:none;}
	.st4{clip-path:url(#SVGID_2_);fill:url(#SVGID_3_);}
	.st5{fill:#1C1D1A;}
</style>
<g>
	<g>
		<path class="st0" d="M207.5,47.9h6.7l-28.3,110.4l-23.6,102.4c-2.3,8.6-3.5,14.4-3.5,17.4c0,2.3,1.2,4.2,3.5,5.6s7.6,2.6,15.7,3.4
			c6.1,0.5,12.1,1.4,18,2.5l-4.1,10.2c-29.3-3.1-49.7-4.7-61.3-4.7c-16.9,0-35.2,1.6-55,4.7l3.5-10.2c7.1-1.9,15.2-3.8,24.3-5.7
			c9-1.8,15.1-4.5,18.4-8.2c4.5-4.8,9.2-16.2,14.1-34.3L158,157c7.2-32.2,10.8-50.3,10.8-54.6c0-4.8-2-7.2-5.9-7.2
			c-3,0-16.7,5.5-41.1,16.3l-4.1-10.2c35.4-16.9,57.1-28.1,65-33.6C190.6,62.1,198.9,55.5,207.5,47.9z"/>
	</g>
	<g>
		<g>
			<path class="st0" d="M265.8,111.4l-10.4-5.1c10.8-21.4,21.9-36.2,33.4-44.4s24.4-12.4,38.7-12.4c17.2,0,30.9,5.5,41.1,16.3
				s15.3,23.6,15.3,38.2c0,9-1.8,18.1-5.5,27.4s-9.7,18.9-18.2,29c-5.5,6.7-20.4,20.5-45,41.5c-33,28.6-56.1,51.7-69.5,69.3
				c17.8-0.8,36.2-1.2,55.2-1.2c6.1,0,11.4,0.1,15.9,0.2c9.9,0.4,16.8-0.5,20.4-2.9c3.7-2.3,9.7-10.1,18.2-23.3h14.1
				c-11,15.3-20.6,34-28.8,56.2c-9.7-1.8-19.9-3.1-30.7-4c-10.8-0.9-22.1-1.3-33.9-1.3c-14,0-34.7,0.9-61.9,2.7l4.1-12.9
				c12.4-18.4,30.9-39.2,55.6-62.4c24.4-22.9,40.1-38.9,47.2-48.1c10.2-13.2,17.6-25.7,22.3-37.4c3.5-8.7,5.3-17.2,5.3-25.4
				c0-12.3-3.3-22.1-10-29.5s-14.9-11-24.7-11c-8.2,0-16.2,2.9-24,8.8C282.2,85.7,274.1,96.2,265.8,111.4z"/>
		</g>
	</g>
	<g>
		<g>
			<path class="st0" d="M426.8,37.5l-3.9,15.2h11.2l-0.9,3.8H422l-4.7,18.1c-1.5,5.4-2.2,9.2-2.2,11.4c0,1,0.2,1.7,0.6,2.1
				s1,0.6,1.7,0.6c1.1,0,2.8-0.7,5.1-2c3-1.8,5.9-3.8,8.7-6l2.1,2.5c-7.9,6-13.2,9.6-15.9,10.9c-2.7,1.3-4.8,2-6.4,2
				c-1.3,0-2.4-0.5-3.2-1.5c-0.8-1-1.2-2.6-1.2-4.8c0-2.6,0.7-6.6,2.1-11.9l5.5-21.5h-8.8l1-3.8c0,0,6.3-1.4,10.8-5
				c4.3-3.4,7.1-10,7.1-10L426.8,37.5z"/>
			<path class="st0" d="M481.9,83.2l1.4,2c-3.3,3.7-6.7,6.6-10.2,8.8c-2.4,1.5-4.4,2.2-5.9,2.2c-1.3,0-2.3-0.5-3.1-1.5
				c-0.8-1-1.2-2.6-1.2-4.7c0-1.4,0.3-3.5,0.9-6.3s2.3-8.7,5.1-17.8c1.2-4.5,1.8-7.1,1.8-7.8c0-1.2-0.6-1.7-1.8-1.7
				c-1.5,0-3.4,0.8-5.7,2.3c-3.2,2.1-6,4.8-8.5,8c-1.6,2.1-2.8,5.1-3.7,9.2l-4.3,18.9h-8.1c1.7-6.3,3.1-11.5,4-15.5l7.5-32.5
				l3.2-14.8l-8.9,0.2l0.3-2.4c0,0,4.6-0.2,8.9-0.8c2.5-0.3,8.1-1.5,8.1-1.5L459,40.3l-5.2,23.1c4.3-4.5,9-8.3,14-11.4
				c3-1.8,5.3-2.8,7.2-2.8c1.4,0,2.5,0.4,3.3,1.2s1.2,2,1.2,3.5c0,1.2-0.1,2.5-0.4,3.7c-0.5,2.1-1.6,6-3.3,11.6
				c-2.4,7.7-3.7,12.5-4.2,14.4c-0.4,1.9-0.6,3.6-0.6,5c0,0.6,0.1,1,0.3,1.3c0.2,0.3,0.5,0.4,0.9,0.4c0.9,0,2.5-1,4.9-3.1
				C478.4,86.1,480,84.7,481.9,83.2z"/>
		</g>
	</g>
	<g>
		<g>
			<path class="st1" d="M404.8,120.2h3.6v42.5h-3.6V120.2z"/>
			<path class="st1" d="M416.7,162.6v-42.5h0.8l24,32.6v-32.6h3.5v42.5h-0.8l-23.8-32.2v32.2H416.7z"/>
			<path class="st1" d="M450.2,124.3v-4.2h19.7v4.2h-8v38.3h-3.7v-38.3H450.2z"/>
			<path class="st1" d="M475.1,120.2h20.6v4.2h-17v13.3h16.9v4.2h-16.9v16.7h16.9v4.2h-20.5V120.2z"/>
			<path class="st1" d="M502.1,120.2h7.2c4,0,6.7,0.2,8.1,0.6c2.1,0.6,3.9,1.8,5.2,3.7c1.3,1.9,2,4.2,2,7c0,2.3-0.5,4.3-1.4,6.1
				s-2.2,3.1-4,4c-1.7,0.9-4.1,1.4-7.1,1.4l12.9,19.7h-4.5L507.6,143h-2v19.7H502L502.1,120.2L502.1,120.2z M505.7,124.3v14.4
				l6.2,0.1c2.4,0,4.2-0.3,5.3-0.8c1.2-0.5,2.1-1.4,2.7-2.6c0.6-1.2,1-2.5,1-4c0-1.4-0.3-2.7-1-3.9c-0.7-1.2-1.5-2-2.6-2.5
				s-2.8-0.8-5.3-0.8h-6.3V124.3z"/>
			<path class="st1" d="M532.4,162.6v-42.5h0.8l24,32.6v-32.6h3.5v42.5h-0.8l-23.8-32.2v32.2H532.4z"/>
			<path class="st1" d="M584.1,120.2l16.8,42.5H597l-5.7-14h-15.5l-5.6,14h-4l17-42.5H584.1z M583.7,129.2l-6.2,15.4h12.3
				L583.7,129.2z"/>
			<path class="st1" d="M602.9,124.3v-4.2h19.7v4.2h-8v38.3H611v-38.3H602.9z"/>
			<path class="st1" d="M627.3,120.2h3.6v42.5h-3.6V120.2z"/>
			<path class="st1" d="M656.3,119.1c5.5,0,10,2.1,13.7,6.4s5.5,9.6,5.5,15.9c0,6.2-1.8,11.5-5.5,15.8s-8.1,6.5-13.4,6.5
				c-5.3,0-9.8-2.2-13.5-6.5s-5.5-9.5-5.5-15.6c0-4.1,0.8-7.9,2.5-11.3c1.7-3.5,4-6.2,6.8-8.2C649.8,120.1,652.9,119.1,656.3,119.1z
				 M656.5,123.2c-2.7,0-5.2,0.8-7.6,2.5c-2.4,1.6-4.2,3.8-5.6,6.6c-1.3,2.8-2,5.9-2,9.3c0,5,1.5,9.3,4.4,12.8
				c3,3.5,6.5,5.2,10.7,5.2c2.8,0,5.4-0.8,7.8-2.4c2.4-1.6,4.2-3.8,5.6-6.6c1.3-2.8,2-5.9,2-9.2c0-3.4-0.7-6.4-2-9.1
				c-1.3-2.7-3.2-4.9-5.6-6.5C661.7,124.1,659.2,123.2,656.5,123.2z"/>
			<path class="st1" d="M682.7,162.6v-42.5h0.8l24,32.6v-32.6h3.5v42.5h-0.8l-23.8-32.2v32.2H682.7z"/>
			<path class="st1" d="M734.5,120.2l16.8,42.5h-3.9l-5.7-14h-15.5l-5.6,14h-4l17-42.5H734.5z M734,129.2l-6.2,15.4h12.3L734,129.2z
				"/>
			<path class="st1" d="M756.8,120.2h3.6v38.4h13.8v4.1h-17.4L756.8,120.2L756.8,120.2z"/>
		</g>
		<g>
			<path class="st1" d="M442.8,266.6l-3.1,2.6c-1.7-2.4-3.8-4.2-6.2-5.5c-2.4-1.2-5.1-1.9-8-1.9c-3.2,0-6.1,0.8-8.8,2.4
				c-2.7,1.6-4.8,3.8-6.3,6.6c-1.5,2.7-2.2,5.8-2.2,9.3c0,5.2,1.7,9.5,5,13s7.5,5.2,12.6,5.2c5.6,0,10.2-2.3,14-7l3.1,2.5
				c-2,2.7-4.5,4.8-7.4,6.3c-3,1.5-6.3,2.2-9.9,2.2c-7,0-12.4-2.5-16.5-7.4c-3.4-4.2-5.1-9.2-5.1-15.1c0-6.2,2-11.4,6.1-15.7
				c4.1-4.2,9.2-6.4,15.3-6.4c3.7,0,7.1,0.8,10.1,2.4C438.5,261.6,440.9,263.8,442.8,266.6z"/>
			<path class="st1" d="M468.4,257.7c6,0,11.1,2.1,15.1,6.4c4.1,4.3,6.1,9.6,6.1,15.9c0,6.2-2,11.5-6.1,15.8c-4,4.3-9,6.5-14.8,6.5
				c-5.9,0-10.9-2.2-14.9-6.5c-4.1-4.3-6.1-9.5-6.1-15.6c0-4.1,0.9-7.9,2.8-11.3c1.8-3.5,4.4-6.2,7.6-8.2
				C461.2,258.7,464.7,257.7,468.4,257.7z M468.6,261.8c-2.9,0-5.7,0.8-8.4,2.5c-2.6,1.6-4.7,3.8-6.2,6.6c-1.5,2.8-2.2,5.9-2.2,9.3
				c0,5,1.6,9.3,4.9,12.8s7.2,5.2,11.8,5.2c3.1,0,5.9-0.8,8.6-2.4c2.6-1.6,4.7-3.8,6.1-6.6c1.5-2.8,2.2-5.9,2.2-9.2
				c0-3.4-0.7-6.4-2.2-9.1s-3.5-4.9-6.2-6.5C474.4,262.6,471.6,261.8,468.6,261.8z"/>
			<path class="st1" d="M496.2,301.2v-42.5h0.9l26.5,32.6v-32.6h3.9v42.5h-0.9L500.3,269v32.2H496.2z"/>
			<path class="st1" d="M537.1,258.8H557v4.2h-16v13.3h16v4.2h-16v20.8h-4L537.1,258.8L537.1,258.8z"/>
			<path class="st1" d="M565.4,258.8h22.8v4.2h-18.8v13.3H588v4.2h-18.7v16.7H588v4.2h-22.6V258.8z"/>
			<path class="st1" d="M595.3,258.8h7.9c4.4,0,7.4,0.2,9,0.6c2.4,0.6,4.3,1.8,5.8,3.7c1.5,1.9,2.2,4.2,2.2,7c0,2.3-0.5,4.3-1.5,6.1
				c-1,1.8-2.5,3.1-4.4,4s-4.5,1.4-7.8,1.4l14.3,19.7h-4.9l-14.3-19.7h-2.2v19.7h-4L595.3,258.8L595.3,258.8z M599.2,262.9v14.4
				l6.9,0.1c2.7,0,4.6-0.3,5.9-0.8c1.3-0.5,2.3-1.4,3-2.6s1.1-2.5,1.1-4c0-1.4-0.4-2.7-1.1-3.9c-0.7-1.2-1.7-2-2.8-2.5
				c-1.2-0.5-3.1-0.8-5.8-0.8L599.2,262.9L599.2,262.9z"/>
			<path class="st1" d="M628.7,258.8h22.8v4.2h-18.8v13.3h18.7v4.2h-18.7v16.7h18.7v4.2h-22.6v-42.6H628.7z"/>
			<path class="st1" d="M659.8,301.2v-42.5h0.9l26.5,32.6v-32.6h3.9v42.5h-0.9L663.9,269v32.2H659.8z"/>
			<path class="st1" d="M737.7,266.6l-3.1,2.6c-1.7-2.4-3.8-4.2-6.2-5.5c-2.4-1.2-5.1-1.9-8-1.9c-3.2,0-6.1,0.8-8.8,2.4
				s-4.8,3.8-6.3,6.6c-1.5,2.7-2.2,5.8-2.2,9.3c0,5.2,1.7,9.5,5,13s7.5,5.2,12.6,5.2c5.6,0,10.2-2.3,14-7l3.1,2.5
				c-2,2.7-4.5,4.8-7.4,6.3c-3,1.5-6.3,2.2-9.9,2.2c-7,0-12.4-2.5-16.5-7.4c-3.4-4.2-5.1-9.2-5.1-15.1c0-6.2,2-11.4,6.1-15.7
				c4.1-4.2,9.2-6.4,15.3-6.4c3.7,0,7.1,0.8,10.1,2.4C733.4,261.6,735.8,263.8,737.7,266.6z"/>
			<path class="st1" d="M745.7,258.8h22.8v4.2h-18.8v13.3h18.7v4.2h-18.7v16.7h18.7v4.2h-22.6v-42.6H745.7z"/>
		</g>
		<g>
			<path class="st2" d="M412.8,181.2h9.6l12,38.6l12.1-38.6h9.6l8.7,55.3h-9.5l-5.6-34.9l-11,34.9H430l-10.9-34.9l-5.7,34.9h-9.6
				L412.8,181.2z"/>
			<path class="st3" d="M497.1,179.8c7.3,0,13.6,2.8,18.9,8.5s7.9,12.6,7.9,20.7c0,8.1-2.6,14.9-7.8,20.5s-11.5,8.4-18.9,8.4
				c-7.8,0-14.2-2.9-19.4-8.6c-5.1-5.7-7.7-12.6-7.7-20.4c0-5.3,1.2-10.1,3.6-14.6c2.4-4.4,5.7-7.9,9.9-10.5
				C487.8,181.1,492.3,179.8,497.1,179.8z M497,190.1c-4.8,0-8.8,1.8-12.1,5.3c-3.3,3.6-4.9,8.1-4.9,13.6c0,6.1,2.1,10.9,6.2,14.5
				c3.2,2.8,6.9,4.2,11,4.2c4.7,0,8.7-1.8,11.9-5.4c3.3-3.6,4.9-8.1,4.9-13.3c0-5.3-1.7-9.7-5-13.4C505.8,192,501.7,190.1,497,190.1
				z"/>
			<path class="st2" d="M533.2,181.2h11.7c7.5,0,13.1,1,16.8,3s6.7,5.2,9,9.7c2.4,4.5,3.6,9.7,3.6,15.7c0,4.3-0.7,8.2-2,11.7
				c-1.3,3.6-3.2,6.5-5.5,8.9s-4.9,4-7.6,4.9c-2.7,0.9-7.4,1.4-14.1,1.4h-11.8v-55.3H533.2z M543,191.4v34.9h4.6
				c4.5,0,7.8-0.6,9.8-1.7c2-1.1,3.7-3,5-5.6s1.9-5.8,1.9-9.6c0-5.9-1.5-10.4-4.6-13.7c-2.8-2.9-7.2-4.4-13.3-4.4H543V191.4z"/>
			<path class="st2" d="M583.7,181.2H612v10.3h-18.5v10H612v10.1h-18.5v14.5H612v10.3h-28.3V181.2z"/>
			<path class="st2" d="M624.7,181.2h9.9v45.2H649v10h-24.2L624.7,181.2L624.7,181.2z"/>
			<path class="st2" d="M657.5,181.2h9.8v55.3h-9.8V181.2z"/>
			<path class="st2" d="M718.9,190.9l-5.5,7c-3.8-5.3-8-7.9-12.7-7.9c-4,0-7.3,1.8-10,5.4c-2.7,3.6-4.1,8.1-4.1,13.4
				c0,3.7,0.6,7,1.8,9.8c1.2,2.9,2.9,5.1,5.1,6.7c2.2,1.6,4.6,2.4,7.3,2.4c2.3,0,4.4-0.6,6.3-1.7c1.9-1.1,4-3.2,6.3-6.2l5.4,7.4
				c-3.1,4-6,6.7-8.7,8.3c-2.7,1.5-5.8,2.3-9.3,2.3c-6.4,0-11.7-2.7-15.8-8.2c-4.1-5.4-6.2-12.4-6.2-21c0-5.5,0.9-10.4,2.8-14.7
				c1.9-4.3,4.5-7.7,8-10.3s7.2-3.9,11.3-3.9c3.4,0,6.7,1,9.9,2.9C713.9,184.7,716.7,187.4,718.9,190.9z"/>
			<path class="st2" d="M742.8,181.2h10l19.9,55.3h-10.2l-4.1-11.4h-21.1l-4.2,11.4h-10.2L742.8,181.2z M747.9,195.9l-6.9,19h13.8
				L747.9,195.9z"/>
		</g>
		<g>
			<g>
				<defs>
					<circle id="SVGID_1_" cx="496.6" cy="208.4" r="28.8"/>
				</defs>
				<clipPath id="SVGID_2_">
					<use xlink:href="#SVGID_1_"  style="overflow:visible;"/>
				</clipPath>
				
					<radialGradient id="SVGID_3_" cx="380.9221" cy="713.8862" r="35.326" gradientTransform="matrix(-1.3066 -1.3066 -0.9146 0.9146 1658.1331 40.9924)" gradientUnits="userSpaceOnUse">
					<stop  offset="0" style="stop-color:#F4E9D6"/>
					<stop  offset="9.184588e-02" style="stop-color:#DDA79C"/>
					<stop  offset="0.2011" style="stop-color:#C35F5C"/>
					<stop  offset="0.2798" style="stop-color:#B33134"/>
					<stop  offset="0.3192" style="stop-color:#AD2025"/>
					<stop  offset="0.4877" style="stop-color:#9A2024"/>
					<stop  offset="0.5985" style="stop-color:#76191C"/>
					<stop  offset="0.8743" style="stop-color:#220708"/>
					<stop  offset="1" style="stop-color:#000000"/>
				</radialGradient>
				<ellipse class="st4" cx="507.5" cy="196.2" rx="65.3" ry="65.3"/>
			</g>
		</g>
	</g>
</g>
<g>
	<path class="st5" d="M414.1,349.8l-5.3-15.2h-0.1c0.1,2.3,0.2,4.4,0.2,6.3v8.8h-2.7v-18.2h4.2l5.1,14.5h0.1l5.2-14.5h4.2v18.2h-2.9
		v-9c0-0.9,0-2.1,0.1-3.5c0-1.5,0.1-2.3,0.1-2.6h-0.1l-5.5,15.2H414.1z"/>
	<path class="st5" d="M438,349.8l-0.6-1.9h-0.1c-0.7,0.8-1.3,1.4-2,1.7s-1.5,0.5-2.6,0.5c-1.4,0-2.4-0.4-3.2-1.1
		c-0.8-0.7-1.1-1.8-1.1-3.1c0-1.4,0.5-2.5,1.6-3.2s2.7-1.1,4.8-1.2l2.4-0.1v-0.7c0-0.9-0.2-1.5-0.6-2c-0.4-0.4-1-0.7-1.9-0.7
		c-0.7,0-1.4,0.1-2,0.3c-0.6,0.2-1.3,0.5-1.9,0.7l-0.9-2.1c0.7-0.4,1.6-0.7,2.5-0.9s1.7-0.3,2.5-0.3c1.8,0,3.1,0.4,4,1.1
		c0.9,0.8,1.3,2,1.3,3.6v9.3H438z M433.7,347.8c1.1,0,1.9-0.3,2.6-0.9c0.6-0.6,1-1.4,1-2.5v-1.2l-1.8,0.1c-1.4,0-2.4,0.3-3,0.7
		c-0.6,0.4-0.9,1-0.9,1.9c0,0.6,0.2,1.1,0.5,1.4C432.4,347.6,432.9,347.8,433.7,347.8z"/>
	<path class="st5" d="M442.1,336h3.2l2.8,7.8c0.4,1.1,0.7,2.2,0.8,3.1h0.1c0.1-0.5,0.2-1,0.4-1.7c0.2-0.7,1.3-3.7,3.2-9.3h3.2
		l-5.9,15.6c-1.1,2.9-2.9,4.3-5.4,4.3c-0.6,0-1.3-0.1-1.9-0.2v-2.3c0.4,0.1,0.9,0.1,1.5,0.1c1.4,0,2.4-0.8,3-2.5l0.5-1.3L442.1,336z
		"/>
	<path class="st5" d="M472.1,349.8h-2.9V338c0-1.4,0-2.5,0.1-3.3c-0.2,0.2-0.4,0.4-0.7,0.7c-0.3,0.2-1.2,1-2.8,2.3l-1.5-1.9l5.4-4.2
		h2.4V349.8z"/>
	<path class="st5" d="M484.2,338.4c1.8,0,3.3,0.5,4.4,1.5c1.1,1,1.6,2.3,1.6,4c0,1.9-0.6,3.5-1.8,4.5c-1.2,1.1-2.9,1.6-5.2,1.6
		c-2,0-3.6-0.3-4.8-1v-2.7c0.7,0.4,1.4,0.7,2.3,0.9s1.7,0.3,2.4,0.3c1.3,0,2.3-0.3,3-0.9s1-1.5,1-2.6c0-2.2-1.4-3.3-4.2-3.3
		c-0.4,0-0.9,0-1.4,0.1s-1.1,0.2-1.5,0.3l-1.3-0.8l0.7-8.9h9.5v2.6H482l-0.4,4.5c0.3,0,0.6-0.1,1.1-0.2S483.6,338.4,484.2,338.4z"/>
	<path class="st5" d="M492.5,344.1v-2.4h10.7v2.4H492.5z"/>
	<path class="st5" d="M513.9,349.8H511V338c0-1.4,0-2.5,0.1-3.3c-0.2,0.2-0.4,0.4-0.7,0.7c-0.3,0.2-1.2,1-2.8,2.3l-1.5-1.9l5.4-4.2
		h2.4V349.8z"/>
	<path class="st5" d="M521.9,349.8l7.2-15.6h-9.5v-2.6h12.6v2l-7.2,16.1H521.9z"/>
	<path class="st5" d="M538.4,347.1c-0.4,1.5-1.1,3.5-2.2,6h-2.2c0.6-2.2,1-4.3,1.3-6.2h2.9L538.4,347.1z"/>
	<path class="st5" d="M560.2,349.8h-12.3v-2.2l4.7-4.7c1.4-1.4,2.3-2.4,2.8-3s0.8-1.2,1-1.7c0.2-0.5,0.3-1.1,0.3-1.7
		c0-0.8-0.2-1.5-0.7-1.9c-0.5-0.5-1.2-0.7-2-0.7c-0.7,0-1.4,0.1-2,0.4c-0.7,0.3-1.4,0.7-2.3,1.4l-1.6-1.9c1-0.9,2-1.5,2.9-1.8
		c1-0.4,2-0.5,3-0.5c1.7,0,3,0.4,4.1,1.3c1,0.9,1.5,2.1,1.5,3.6c0,0.8-0.1,1.6-0.4,2.3c-0.3,0.7-0.7,1.5-1.4,2.3s-1.6,1.8-3,3.2
		l-3.2,3.1v0.1h8.6V349.8z"/>
	<path class="st5" d="M574.7,340.7c0,3.2-0.5,5.5-1.5,7c-1,1.5-2.6,2.3-4.7,2.3c-2,0-3.6-0.8-4.6-2.4c-1-1.6-1.6-3.9-1.6-7
		c0-3.2,0.5-5.6,1.5-7.1c1-1.5,2.6-2.3,4.6-2.3c2,0,3.6,0.8,4.6,2.4C574.2,335.3,574.7,337.6,574.7,340.7z M565.3,340.7
		c0,2.5,0.3,4.3,0.8,5.3c0.5,1.1,1.3,1.6,2.4,1.6c1.1,0,1.9-0.5,2.5-1.6s0.8-2.8,0.8-5.3c0-2.4-0.3-4.2-0.8-5.3s-1.3-1.6-2.5-1.6
		c-1.1,0-1.9,0.5-2.4,1.6C565.6,336.4,565.3,338.2,565.3,340.7z"/>
	<path class="st5" d="M585.5,349.8h-2.9V338c0-1.4,0-2.5,0.1-3.3c-0.2,0.2-0.4,0.4-0.7,0.7c-0.3,0.2-1.2,1-2.8,2.3l-1.5-1.9l5.4-4.2
		h2.4V349.8z"/>
	<path class="st5" d="M593.6,349.8l7.2-15.6h-9.5v-2.6h12.6v2l-7.2,16.1H593.6z"/>
	<path class="st5" d="M413.9,364.4c-1.7,0-3.1,0.6-4,1.8c-1,1.2-1.5,2.9-1.5,5c0,2.2,0.5,3.9,1.4,5.1s2.3,1.7,4.1,1.7
		c0.8,0,1.5-0.1,2.2-0.2c0.7-0.2,1.5-0.4,2.3-0.6v2.6c-1.4,0.5-3,0.8-4.9,0.8c-2.7,0-4.7-0.8-6.1-2.4c-1.4-1.6-2.1-3.9-2.1-6.9
		c0-1.9,0.3-3.5,1-5c0.7-1.4,1.7-2.5,3-3.3c1.3-0.8,2.8-1.1,4.6-1.1c1.9,0,3.6,0.4,5.2,1.2l-1.1,2.5c-0.6-0.3-1.3-0.5-1.9-0.8
		C415.4,364.6,414.7,364.4,413.9,364.4z"/>
	<path class="st5" d="M425,380.3H422V361h2.9V380.3z"/>
	<path class="st5" d="M437.8,380.3l-0.6-1.9h-0.1c-0.7,0.8-1.3,1.4-2,1.7s-1.5,0.5-2.6,0.5c-1.4,0-2.4-0.4-3.2-1.1
		c-0.8-0.7-1.1-1.8-1.1-3.1c0-1.4,0.5-2.5,1.6-3.2s2.7-1.1,4.8-1.2l2.4-0.1v-0.7c0-0.9-0.2-1.5-0.6-2c-0.4-0.4-1-0.7-1.9-0.7
		c-0.7,0-1.4,0.1-2,0.3c-0.6,0.2-1.3,0.5-1.9,0.7l-0.9-2.1c0.7-0.4,1.6-0.7,2.5-0.9s1.7-0.3,2.5-0.3c1.8,0,3.1,0.4,4,1.1
		c0.9,0.8,1.3,2,1.3,3.6v9.3H437.8z M433.4,378.4c1.1,0,1.9-0.3,2.6-0.9c0.6-0.6,1-1.4,1-2.5v-1.2l-1.8,0.1c-1.4,0-2.4,0.3-3,0.7
		c-0.6,0.4-0.9,1-0.9,1.9c0,0.6,0.2,1.1,0.5,1.4C432.1,378.2,432.7,378.4,433.4,378.4z"/>
	<path class="st5" d="M450.9,366.3c0.6,0,1.1,0,1.5,0.1l-0.3,2.7c-0.4-0.1-0.8-0.1-1.3-0.1c-1.2,0-2.1,0.4-2.8,1.1
		c-0.7,0.8-1.1,1.8-1.1,3v7.2h-2.9v-13.8h2.3l0.4,2.4h0.1c0.5-0.8,1.1-1.5,1.8-2C449.3,366.6,450.1,366.3,450.9,366.3z"/>
	<path class="st5" d="M454.7,362.9c0-0.5,0.1-0.9,0.4-1.2s0.7-0.4,1.2-0.4c0.5,0,0.9,0.1,1.2,0.4c0.3,0.3,0.4,0.7,0.4,1.2
		c0,0.5-0.1,0.9-0.4,1.2c-0.3,0.3-0.7,0.4-1.2,0.4c-0.5,0-0.9-0.1-1.2-0.4S454.7,363.4,454.7,362.9z M457.8,380.3h-2.9v-13.8h2.9
		V380.3z"/>
	<path class="st5" d="M474.2,373.4c0,2.2-0.6,4-1.7,5.3c-1.2,1.3-2.8,1.9-4.8,1.9c-1.3,0-2.4-0.3-3.4-0.9s-1.7-1.4-2.3-2.5
		s-0.8-2.3-0.8-3.8c0-2.2,0.6-4,1.7-5.2c1.1-1.3,2.8-1.9,4.8-1.9c2,0,3.6,0.6,4.7,1.9C473.6,369.5,474.2,371.3,474.2,373.4z
		 M464.2,373.4c0,3.2,1.2,4.8,3.5,4.8c2.3,0,3.5-1.6,3.5-4.8c0-3.1-1.2-4.7-3.5-4.7c-1.2,0-2.1,0.4-2.7,1.2
		C464.5,370.8,464.2,371.9,464.2,373.4z"/>
	<path class="st5" d="M489.7,380.3h-2.9v-8.5c0-1.1-0.2-1.9-0.6-2.4c-0.4-0.5-1.1-0.8-2-0.8c-1.2,0-2.1,0.4-2.7,1.1
		c-0.6,0.7-0.9,2-0.9,3.7v6.9h-2.9v-13.8h2.3l0.4,1.8h0.1c0.4-0.7,1-1.2,1.8-1.5c0.8-0.4,1.6-0.5,2.5-0.5c3.3,0,5,1.7,5,5V380.3z"/>
	<path class="st5" d="M508.4,364.4c-1.7,0-3.1,0.6-4,1.8c-1,1.2-1.5,2.9-1.5,5c0,2.2,0.5,3.9,1.4,5.1s2.3,1.7,4.1,1.7
		c0.8,0,1.5-0.1,2.2-0.2s1.5-0.4,2.3-0.6v2.6c-1.4,0.5-3,0.8-4.9,0.8c-2.7,0-4.7-0.8-6.1-2.4c-1.4-1.6-2.1-3.9-2.1-6.9
		c0-1.9,0.3-3.5,1-5c0.7-1.4,1.7-2.5,3-3.3s2.8-1.1,4.6-1.1c1.9,0,3.6,0.4,5.2,1.2l-1.1,2.5c-0.6-0.3-1.3-0.5-1.9-0.8
		C509.9,364.6,509.2,364.4,508.4,364.4z"/>
	<path class="st5" d="M528.7,373.4c0,2.2-0.6,4-1.7,5.3c-1.2,1.3-2.8,1.9-4.8,1.9c-1.3,0-2.4-0.3-3.4-0.9s-1.7-1.4-2.3-2.5
		s-0.8-2.3-0.8-3.8c0-2.2,0.6-4,1.7-5.2c1.1-1.3,2.8-1.9,4.8-1.9c2,0,3.6,0.6,4.7,1.9C528.2,369.5,528.7,371.3,528.7,373.4z
		 M518.7,373.4c0,3.2,1.2,4.8,3.5,4.8c2.3,0,3.5-1.6,3.5-4.8c0-3.1-1.2-4.7-3.5-4.7c-1.2,0-2.1,0.4-2.7,1.2
		C519,370.8,518.7,371.9,518.7,373.4z"/>
	<path class="st5" d="M544.2,380.3h-2.9v-8.5c0-1.1-0.2-1.9-0.6-2.4c-0.4-0.5-1.1-0.8-2-0.8c-1.2,0-2.1,0.4-2.7,1.1
		c-0.6,0.7-0.9,2-0.9,3.7v6.9h-2.9v-13.8h2.3l0.4,1.8h0.1c0.4-0.7,1-1.2,1.8-1.5c0.8-0.4,1.6-0.5,2.5-0.5c3.3,0,5,1.7,5,5V380.3z"/>
	<path class="st5" d="M559.9,366.6v1.6l-2.4,0.4c0.2,0.3,0.4,0.6,0.5,1.1c0.1,0.4,0.2,0.9,0.2,1.3c0,1.4-0.5,2.5-1.5,3.3
		c-1,0.8-2.3,1.2-4,1.2c-0.4,0-0.8,0-1.2-0.1c-0.6,0.4-0.9,0.8-0.9,1.4c0,0.3,0.1,0.6,0.4,0.7c0.3,0.2,0.8,0.2,1.6,0.2h2.4
		c1.5,0,2.7,0.3,3.5,1c0.8,0.6,1.2,1.6,1.2,2.8c0,1.6-0.6,2.8-1.9,3.6c-1.3,0.8-3.1,1.3-5.6,1.3c-1.9,0-3.3-0.3-4.3-1
		c-1-0.7-1.5-1.6-1.5-2.8c0-0.8,0.3-1.6,0.8-2.1c0.5-0.6,1.3-1,2.2-1.2c-0.4-0.2-0.7-0.4-1-0.8s-0.4-0.8-0.4-1.2
		c0-0.5,0.1-0.9,0.4-1.3c0.3-0.4,0.7-0.7,1.3-1.1c-0.7-0.3-1.3-0.8-1.7-1.5c-0.4-0.7-0.7-1.5-0.7-2.4c0-1.5,0.5-2.7,1.4-3.5
		s2.3-1.2,4-1.2c0.4,0,0.8,0,1.2,0.1c0.4,0.1,0.7,0.1,1,0.2H559.9z M549.1,382.5c0,0.6,0.3,1.1,0.9,1.5c0.6,0.3,1.4,0.5,2.4,0.5
		c1.6,0,2.8-0.2,3.6-0.7c0.8-0.5,1.2-1.1,1.2-1.8c0-0.6-0.2-1-0.6-1.3c-0.4-0.3-1.2-0.4-2.4-0.4h-2.2c-0.8,0-1.5,0.2-2,0.6
		C549.3,381.3,549.1,381.8,549.1,382.5z M550.3,371c0,0.9,0.2,1.5,0.7,2c0.4,0.5,1.1,0.7,1.9,0.7c1.7,0,2.5-0.9,2.5-2.7
		c0-0.9-0.2-1.6-0.6-2.1s-1.1-0.7-1.9-0.7c-0.8,0-1.5,0.2-1.9,0.7C550.6,369.4,550.3,370.1,550.3,371z"/>
	<path class="st5" d="M569.4,366.3c0.6,0,1.1,0,1.5,0.1l-0.3,2.7c-0.4-0.1-0.8-0.1-1.3-0.1c-1.2,0-2.1,0.4-2.8,1.1
		c-0.7,0.8-1.1,1.8-1.1,3v7.2h-2.9v-13.8h2.3l0.4,2.4h0.1c0.5-0.8,1.1-1.5,1.8-2C567.8,366.6,568.6,366.3,569.4,366.3z"/>
	<path class="st5" d="M579.4,380.6c-2.1,0-3.8-0.6-5-1.9c-1.2-1.2-1.8-3-1.8-5.2c0-2.2,0.6-4,1.7-5.3c1.1-1.3,2.7-1.9,4.6-1.9
		c1.8,0,3.3,0.6,4.3,1.7c1.1,1.1,1.6,2.6,1.6,4.6v1.6h-9.2c0,1.3,0.4,2.4,1.1,3.1c0.7,0.7,1.6,1.1,2.9,1.1c0.8,0,1.6-0.1,2.3-0.2
		c0.7-0.2,1.5-0.4,2.3-0.8v2.4c-0.7,0.3-1.4,0.6-2.2,0.7C581.2,380.5,580.4,380.6,579.4,380.6z M578.9,368.5c-0.9,0-1.7,0.3-2.2,0.9
		c-0.6,0.6-0.9,1.4-1,2.6h6.2c0-1.1-0.3-2-0.8-2.6C580.6,368.8,579.8,368.5,578.9,368.5z"/>
	<path class="st5" d="M597.4,376.4c0,1.3-0.5,2.4-1.5,3.1c-1,0.7-2.4,1.1-4.2,1.1c-1.8,0-3.3-0.3-4.4-0.8v-2.5
		c1.6,0.7,3.1,1.1,4.5,1.1c1.8,0,2.7-0.5,2.7-1.6c0-0.3-0.1-0.6-0.3-0.9s-0.5-0.5-1-0.7s-1.1-0.5-1.9-0.8c-1.6-0.6-2.7-1.2-3.2-1.8
		c-0.6-0.6-0.8-1.4-0.8-2.4c0-1.2,0.5-2.1,1.4-2.7c0.9-0.7,2.2-1,3.9-1c1.6,0,3.1,0.3,4.6,1l-0.9,2.2c-1.5-0.6-2.7-0.9-3.7-0.9
		c-1.5,0-2.3,0.4-2.3,1.3c0,0.4,0.2,0.8,0.6,1.1c0.4,0.3,1.3,0.7,2.6,1.2c1.1,0.4,2,0.8,2.5,1.2c0.5,0.4,0.9,0.8,1.1,1.3
		C597.2,375.2,597.4,375.8,597.4,376.4z"/>
	<path class="st5" d="M609.8,376.4c0,1.3-0.5,2.4-1.5,3.1c-1,0.7-2.4,1.1-4.2,1.1c-1.8,0-3.3-0.3-4.4-0.8v-2.5
		c1.6,0.7,3.1,1.1,4.5,1.1c1.8,0,2.7-0.5,2.7-1.6c0-0.3-0.1-0.6-0.3-0.9s-0.5-0.5-1-0.7s-1.1-0.5-1.9-0.8c-1.6-0.6-2.7-1.2-3.2-1.8
		c-0.6-0.6-0.8-1.4-0.8-2.4c0-1.2,0.5-2.1,1.4-2.7c0.9-0.7,2.2-1,3.9-1c1.6,0,3.1,0.3,4.6,1l-0.9,2.2c-1.5-0.6-2.7-0.9-3.7-0.9
		c-1.5,0-2.3,0.4-2.3,1.3c0,0.4,0.2,0.8,0.6,1.1c0.4,0.3,1.3,0.7,2.6,1.2c1.1,0.4,2,0.8,2.5,1.2c0.5,0.4,0.9,0.8,1.1,1.3
		C609.7,375.2,609.8,375.8,609.8,376.4z"/>
	<path class="st5" d="M634.2,380.3h-3v-8.2h-8.4v8.2h-3v-18.2h3v7.4h8.4v-7.4h3V380.3z"/>
	<path class="st5" d="M650.9,373.4c0,2.2-0.6,4-1.7,5.3c-1.2,1.3-2.8,1.9-4.8,1.9c-1.3,0-2.4-0.3-3.4-0.9s-1.7-1.4-2.3-2.5
		s-0.8-2.3-0.8-3.8c0-2.2,0.6-4,1.7-5.2c1.1-1.3,2.8-1.9,4.8-1.9c2,0,3.6,0.6,4.7,1.9C650.3,369.5,650.9,371.3,650.9,373.4z
		 M640.9,373.4c0,3.2,1.2,4.8,3.5,4.8c2.3,0,3.5-1.6,3.5-4.8c0-3.1-1.2-4.7-3.5-4.7c-1.2,0-2.1,0.4-2.7,1.2
		C641.2,370.8,640.9,371.9,640.9,373.4z"/>
	<path class="st5" d="M659.4,378.2c0.7,0,1.4-0.1,2.1-0.3v2.2c-0.3,0.1-0.7,0.3-1.3,0.4c-0.5,0.1-1,0.1-1.6,0.1
		c-2.8,0-4.2-1.5-4.2-4.4v-7.4h-1.9v-1.3l2-1.1l1-2.9h1.8v3.1h3.9v2.2h-3.9v7.4c0,0.7,0.2,1.2,0.5,1.6
		C658.4,378.1,658.8,378.2,659.4,378.2z"/>
	<path class="st5" d="M670.3,380.6c-2.1,0-3.8-0.6-5-1.9c-1.2-1.2-1.8-3-1.8-5.2c0-2.2,0.6-4,1.7-5.3c1.1-1.3,2.7-1.9,4.6-1.9
		c1.8,0,3.3,0.6,4.3,1.7c1.1,1.1,1.6,2.6,1.6,4.6v1.6h-9.2c0,1.3,0.4,2.4,1.1,3.1c0.7,0.7,1.6,1.1,2.9,1.1c0.8,0,1.6-0.1,2.3-0.2
		c0.7-0.2,1.5-0.4,2.3-0.8v2.4c-0.7,0.3-1.4,0.6-2.2,0.7C672.1,380.5,671.2,380.6,670.3,380.6z M669.8,368.5c-0.9,0-1.7,0.3-2.2,0.9
		c-0.6,0.6-0.9,1.4-1,2.6h6.2c0-1.1-0.3-2-0.8-2.6C671.4,368.8,670.7,368.5,669.8,368.5z"/>
	<path class="st5" d="M681.9,380.3H679V361h2.9V380.3z"/>
	<path class="st5" d="M705,367.7c0,1.9-0.6,3.4-1.9,4.4c-1.2,1-3,1.5-5.3,1.5H696v6.8h-3v-18.2h5.2c2.3,0,4,0.5,5.1,1.4
		C704.5,364.5,705,365.8,705,367.7z M696,371h1.6c1.5,0,2.6-0.3,3.4-0.8c0.7-0.5,1.1-1.4,1.1-2.5c0-1-0.3-1.8-1-2.3
		c-0.6-0.5-1.6-0.8-3-0.8H696V371z"/>
	<path class="st5" d="M715.3,366.3c0.6,0,1.1,0,1.5,0.1l-0.3,2.7c-0.4-0.1-0.8-0.1-1.3-0.1c-1.2,0-2.1,0.4-2.8,1.1
		c-0.7,0.8-1.1,1.8-1.1,3v7.2h-2.9v-13.8h2.3l0.4,2.4h0.1c0.5-0.8,1.1-1.5,1.8-2C713.7,366.6,714.5,366.3,715.3,366.3z"/>
	<path class="st5" d="M728,380.3l-0.6-1.9h-0.1c-0.7,0.8-1.3,1.4-2,1.7s-1.5,0.5-2.6,0.5c-1.4,0-2.4-0.4-3.2-1.1
		c-0.8-0.7-1.1-1.8-1.1-3.1c0-1.4,0.5-2.5,1.6-3.2s2.7-1.1,4.8-1.2l2.4-0.1v-0.7c0-0.9-0.2-1.5-0.6-2c-0.4-0.4-1-0.7-1.9-0.7
		c-0.7,0-1.4,0.1-2,0.3c-0.6,0.2-1.3,0.5-1.9,0.7l-0.9-2.1c0.7-0.4,1.6-0.7,2.5-0.9s1.7-0.3,2.5-0.3c1.8,0,3.1,0.4,4,1.1
		c0.9,0.8,1.3,2,1.3,3.6v9.3H728z M723.6,378.4c1.1,0,1.9-0.3,2.6-0.9c0.6-0.6,1-1.4,1-2.5v-1.2l-1.8,0.1c-1.4,0-2.4,0.3-3,0.7
		c-0.6,0.4-0.9,1-0.9,1.9c0,0.6,0.2,1.1,0.5,1.4C722.3,378.2,722.9,378.4,723.6,378.4z"/>
	<path class="st5" d="M745.8,366.6v1.6l-2.4,0.4c0.2,0.3,0.4,0.6,0.5,1.1c0.1,0.4,0.2,0.9,0.2,1.3c0,1.4-0.5,2.5-1.5,3.3
		c-1,0.8-2.3,1.2-4,1.2c-0.4,0-0.8,0-1.2-0.1c-0.6,0.4-0.9,0.8-0.9,1.4c0,0.3,0.1,0.6,0.4,0.7c0.3,0.2,0.8,0.2,1.6,0.2h2.4
		c1.5,0,2.7,0.3,3.5,1c0.8,0.6,1.2,1.6,1.2,2.8c0,1.6-0.6,2.8-1.9,3.6c-1.3,0.8-3.1,1.3-5.6,1.3c-1.9,0-3.3-0.3-4.3-1
		c-1-0.7-1.5-1.6-1.5-2.8c0-0.8,0.3-1.6,0.8-2.1c0.5-0.6,1.3-1,2.2-1.2c-0.4-0.2-0.7-0.4-1-0.8s-0.4-0.8-0.4-1.2
		c0-0.5,0.1-0.9,0.4-1.3c0.3-0.4,0.7-0.7,1.3-1.1c-0.7-0.3-1.3-0.8-1.7-1.5c-0.4-0.7-0.7-1.5-0.7-2.4c0-1.5,0.5-2.7,1.4-3.5
		s2.3-1.2,4-1.2c0.4,0,0.8,0,1.2,0.1c0.4,0.1,0.7,0.1,1,0.2H745.8z M734.9,382.5c0,0.6,0.3,1.1,0.9,1.5c0.6,0.3,1.4,0.5,2.4,0.5
		c1.6,0,2.8-0.2,3.6-0.7c0.8-0.5,1.2-1.1,1.2-1.8c0-0.6-0.2-1-0.6-1.3c-0.4-0.3-1.2-0.4-2.4-0.4h-2.2c-0.8,0-1.5,0.2-2,0.6
		C735.2,381.3,734.9,381.8,734.9,382.5z M736.2,371c0,0.9,0.2,1.5,0.7,2c0.4,0.5,1.1,0.7,1.9,0.7c1.7,0,2.5-0.9,2.5-2.7
		c0-0.9-0.2-1.6-0.6-2.1s-1.1-0.7-1.9-0.7c-0.8,0-1.5,0.2-1.9,0.7C736.4,369.4,736.2,370.1,736.2,371z"/>
	<path class="st5" d="M758,380.3l-0.4-1.8h-0.1c-0.4,0.6-1,1.1-1.7,1.5c-0.8,0.4-1.6,0.5-2.6,0.5c-1.7,0-2.9-0.4-3.7-1.2
		c-0.8-0.8-1.2-2.1-1.2-3.8v-9h2.9v8.5c0,1.1,0.2,1.8,0.6,2.4c0.4,0.5,1.1,0.8,2,0.8c1.2,0,2.1-0.4,2.7-1.1c0.6-0.7,0.9-2,0.9-3.7
		v-6.9h2.9v13.8H758z"/>
	<path class="st5" d="M770.5,380.6c-2.1,0-3.8-0.6-5-1.9c-1.2-1.2-1.8-3-1.8-5.2c0-2.2,0.6-4,1.7-5.3c1.1-1.3,2.7-1.9,4.6-1.9
		c1.8,0,3.3,0.6,4.3,1.7c1.1,1.1,1.6,2.6,1.6,4.6v1.6h-9.2c0,1.3,0.4,2.4,1.1,3.1c0.7,0.7,1.6,1.1,2.9,1.1c0.8,0,1.6-0.1,2.3-0.2
		c0.7-0.2,1.5-0.4,2.3-0.8v2.4c-0.7,0.3-1.4,0.6-2.2,0.7C772.3,380.5,771.4,380.6,770.5,380.6z M770,368.5c-0.9,0-1.7,0.3-2.2,0.9
		c-0.6,0.6-0.9,1.4-1,2.6h6.2c0-1.1-0.3-2-0.8-2.6C771.6,368.8,770.9,368.5,770,368.5z"/>
	<path class="st5" d="M413.9,395c-1.7,0-3.1,0.6-4,1.8c-1,1.2-1.5,2.9-1.5,5c0,2.2,0.5,3.9,1.4,5.1s2.3,1.7,4.1,1.7
		c0.8,0,1.5-0.1,2.2-0.2c0.7-0.2,1.5-0.4,2.3-0.6v2.6c-1.4,0.5-3,0.8-4.9,0.8c-2.7,0-4.7-0.8-6.1-2.4c-1.4-1.6-2.1-3.9-2.1-6.9
		c0-1.9,0.3-3.5,1-5c0.7-1.4,1.7-2.5,3-3.3c1.3-0.8,2.8-1.1,4.6-1.1c1.9,0,3.6,0.4,5.2,1.2l-1.1,2.5c-0.6-0.3-1.3-0.5-1.9-0.8
		C415.4,395.1,414.7,395,413.9,395z"/>
	<path class="st5" d="M431.2,410.9h-10.4v-1.8l7-9.7h-6.5v-2.2h9.8v2l-6.8,9.5h7V410.9z"/>
	<path class="st5" d="M440.2,411.2c-2.1,0-3.8-0.6-5-1.9c-1.2-1.2-1.8-3-1.8-5.2c0-2.2,0.6-4,1.7-5.3c1.1-1.3,2.7-1.9,4.6-1.9
		c1.8,0,3.3,0.6,4.3,1.7c1.1,1.1,1.6,2.6,1.6,4.6v1.6h-9.2c0,1.3,0.4,2.4,1.1,3.1c0.7,0.7,1.6,1.1,2.9,1.1c0.8,0,1.6-0.1,2.3-0.2
		c0.7-0.2,1.5-0.4,2.3-0.8v2.4c-0.7,0.3-1.4,0.6-2.2,0.7C442,411.1,441.2,411.2,440.2,411.2z M439.7,399.1c-0.9,0-1.7,0.3-2.2,0.9
		c-0.6,0.6-0.9,1.4-1,2.6h6.2c0-1.1-0.3-2-0.8-2.6C441.4,399.4,440.6,399.1,439.7,399.1z"/>
	<path class="st5" d="M454.5,411.2c-2.1,0-3.7-0.6-4.7-1.8c-1.1-1.2-1.6-3-1.6-5.2c0-2.3,0.6-4.1,1.7-5.3c1.1-1.2,2.8-1.9,4.9-1.9
		c1.5,0,2.8,0.3,3.9,0.8l-0.9,2.4c-1.2-0.5-2.3-0.7-3.1-0.7c-2.4,0-3.6,1.6-3.6,4.7c0,1.5,0.3,2.7,0.9,3.5c0.6,0.8,1.5,1.2,2.6,1.2
		c1.3,0,2.5-0.3,3.7-1v2.6c-0.5,0.3-1.1,0.5-1.7,0.7C456,411.1,455.3,411.2,454.5,411.2z"/>
	<path class="st5" d="M473.6,410.9h-2.9v-8.5c0-1.1-0.2-1.9-0.6-2.4c-0.4-0.5-1.1-0.8-2-0.8c-1.2,0-2.1,0.4-2.7,1.1
		c-0.6,0.7-0.9,2-0.9,3.7v6.8h-2.9v-19.4h2.9v4.9c0,0.8,0,1.6-0.1,2.5h0.2c0.4-0.7,1-1.2,1.7-1.5c0.7-0.4,1.5-0.5,2.5-0.5
		c3.3,0,5,1.7,5,5V410.9z"/>
	<path class="st5" d="M487.6,403.7v7.3h-3v-18.2h5.1c2.3,0,4.1,0.4,5.2,1.3c1.1,0.9,1.7,2.2,1.7,4c0,2.3-1.2,3.9-3.5,4.8l5.1,8.1
		h-3.4l-4.4-7.3H487.6z M487.6,401.2h2.1c1.4,0,2.4-0.3,3-0.8s0.9-1.3,0.9-2.3c0-1-0.3-1.8-1-2.2s-1.7-0.7-3-0.7h-2V401.2z"/>
	<path class="st5" d="M506.6,411.2c-2.1,0-3.8-0.6-5-1.9c-1.2-1.2-1.8-3-1.8-5.2c0-2.2,0.6-4,1.7-5.3c1.1-1.3,2.7-1.9,4.6-1.9
		c1.8,0,3.3,0.6,4.3,1.7c1.1,1.1,1.6,2.6,1.6,4.6v1.6h-9.2c0,1.3,0.4,2.4,1.1,3.1c0.7,0.7,1.6,1.1,2.9,1.1c0.8,0,1.6-0.1,2.3-0.2
		c0.7-0.2,1.5-0.4,2.3-0.8v2.4c-0.7,0.3-1.4,0.6-2.2,0.7C508.4,411.1,507.6,411.2,506.6,411.2z M506.1,399.1c-0.9,0-1.7,0.3-2.2,0.9
		c-0.6,0.6-0.9,1.4-1,2.6h6.2c0-1.1-0.3-2-0.8-2.6C507.7,399.4,507,399.1,506.1,399.1z"/>
	<path class="st5" d="M522.3,411.2c-1.7,0-3.1-0.6-4.1-1.9H518c0.1,1.2,0.2,1.9,0.2,2.1v5.6h-2.9v-19.9h2.4c0.1,0.3,0.2,0.9,0.4,1.8
		h0.1c0.9-1.4,2.3-2.1,4.1-2.1c1.7,0,3.1,0.6,4,1.9s1.4,3,1.4,5.2s-0.5,4-1.5,5.3C525.3,410.5,524,411.2,522.3,411.2z M521.6,399.3
		c-1.2,0-2,0.3-2.5,1c-0.5,0.7-0.8,1.8-0.8,3.3v0.4c0,1.7,0.3,2.9,0.8,3.6c0.5,0.8,1.4,1.1,2.6,1.1c1,0,1.8-0.4,2.3-1.2
		c0.5-0.8,0.8-2,0.8-3.5c0-1.5-0.3-2.7-0.8-3.5C523.4,399.7,522.6,399.3,521.6,399.3z"/>
	<path class="st5" d="M540.9,410.9l-0.4-1.8h-0.1c-0.4,0.6-1,1.1-1.7,1.5c-0.8,0.4-1.6,0.5-2.6,0.5c-1.7,0-2.9-0.4-3.7-1.2
		c-0.8-0.8-1.2-2.1-1.2-3.8v-9h2.9v8.5c0,1.1,0.2,1.8,0.6,2.4c0.4,0.5,1.1,0.8,2,0.8c1.2,0,2.1-0.4,2.7-1.1c0.6-0.7,0.9-2,0.9-3.7
		v-6.9h2.9v13.8H540.9z"/>
	<path class="st5" d="M554.4,396.9c1.7,0,3.1,0.6,4,1.9s1.4,3,1.4,5.2c0,2.3-0.5,4-1.5,5.3s-2.3,1.9-4,1.9c-1.7,0-3.1-0.6-4.1-1.9
		h-0.2l-0.5,1.6h-2.2v-19.4h2.9v4.6c0,0.3,0,0.8,0,1.5c0,0.7-0.1,1.1-0.1,1.3h0.1C551.2,397.6,552.6,396.9,554.4,396.9z
		 M553.6,399.3c-1.2,0-2,0.3-2.5,1s-0.8,1.9-0.8,3.5v0.2c0,1.7,0.3,2.9,0.8,3.6c0.5,0.8,1.4,1.1,2.6,1.1c1,0,1.8-0.4,2.4-1.2
		s0.8-2,0.8-3.6C556.8,400.9,555.8,399.3,553.6,399.3z"/>
	<path class="st5" d="M566.1,410.9h-2.9v-19.4h2.9V410.9z"/>
	<path class="st5" d="M570.2,393.5c0-0.5,0.1-0.9,0.4-1.2s0.7-0.4,1.2-0.4c0.5,0,0.9,0.1,1.2,0.4c0.3,0.3,0.4,0.7,0.4,1.2
		c0,0.5-0.1,0.9-0.4,1.2c-0.3,0.3-0.7,0.4-1.2,0.4c-0.5,0-0.9-0.1-1.2-0.4S570.2,394,570.2,393.5z M573.3,410.9h-2.9v-13.8h2.9
		V410.9z"/>
	<path class="st5" d="M583,411.2c-2.1,0-3.7-0.6-4.7-1.8c-1.1-1.2-1.6-3-1.6-5.2c0-2.3,0.6-4.1,1.7-5.3c1.1-1.2,2.8-1.9,4.9-1.9
		c1.5,0,2.8,0.3,3.9,0.8l-0.9,2.4c-1.2-0.5-2.3-0.7-3.1-0.7c-2.4,0-3.6,1.6-3.6,4.7c0,1.5,0.3,2.7,0.9,3.5c0.6,0.8,1.5,1.2,2.6,1.2
		c1.3,0,2.5-0.3,3.7-1v2.6c-0.5,0.3-1.1,0.5-1.7,0.7C584.5,411.1,583.8,411.2,583,411.2z"/>
	<path class="st5" d="M417.2,441.5l-1.8-6.4c-0.2-0.7-0.6-2.3-1.2-4.7h-0.1c-0.5,2.2-0.9,3.8-1.1,4.8l-1.8,6.4h-3.2l-3.9-13.8h3
		l1.8,6.8c0.4,1.7,0.7,3.1,0.8,4.3h0.1c0.1-0.6,0.2-1.3,0.4-2.1s0.3-1.4,0.4-1.8l2.1-7.2h3.2l2,7.2c0.1,0.4,0.3,1,0.5,1.9
		c0.2,0.8,0.3,1.5,0.3,2h0.1c0.1-1,0.4-2.4,0.9-4.3l1.8-6.8h2.9l-3.9,13.8H417.2z"/>
	<path class="st5" d="M438,441.5l-1.8-6.4c-0.2-0.7-0.6-2.3-1.2-4.7h-0.1c-0.5,2.2-0.9,3.8-1.1,4.8l-1.8,6.4h-3.2l-3.9-13.8h3
		l1.8,6.8c0.4,1.7,0.7,3.1,0.8,4.3h0.1c0.1-0.6,0.2-1.3,0.4-2.1s0.3-1.4,0.4-1.8l2.1-7.2h3.2l2,7.2c0.1,0.4,0.3,1,0.5,1.9
		s0.3,1.5,0.3,2h0.1c0.1-1,0.4-2.4,0.9-4.3l1.8-6.8h2.9l-3.9,13.8H438z"/>
	<path class="st5" d="M458.8,441.5l-1.8-6.4c-0.2-0.7-0.6-2.3-1.2-4.7h-0.1c-0.5,2.2-0.9,3.8-1.1,4.8l-1.8,6.4h-3.2l-3.9-13.8h3
		l1.8,6.8c0.4,1.7,0.7,3.1,0.8,4.3h0.1c0.1-0.6,0.2-1.3,0.4-2.1s0.3-1.4,0.4-1.8l2.1-7.2h3.2l2,7.2c0.1,0.4,0.3,1,0.5,1.9
		s0.3,1.5,0.3,2h0.1c0.1-1,0.4-2.4,0.9-4.3l1.8-6.8h2.9l-3.9,13.8H458.8z"/>
	<path class="st5" d="M467.9,439.9c0-0.6,0.2-1.1,0.5-1.4s0.8-0.5,1.4-0.5c0.6,0,1.1,0.2,1.4,0.5s0.5,0.8,0.5,1.4
		c0,0.6-0.2,1.1-0.5,1.4c-0.3,0.3-0.8,0.5-1.4,0.5c-0.6,0-1.1-0.2-1.4-0.5S467.9,440.5,467.9,439.9z"/>
	<path class="st5" d="M486.9,441.5H484V433c0-1.1-0.2-1.8-0.6-2.4c-0.4-0.5-1-0.8-1.9-0.8c-1.1,0-2,0.4-2.5,1.1
		c-0.5,0.7-0.8,2-0.8,3.7v6.9h-2.9v-13.8h2.3l0.4,1.8h0.1c0.4-0.7,0.9-1.2,1.7-1.5c0.7-0.4,1.5-0.5,2.4-0.5c2.1,0,3.5,0.7,4.2,2.2
		h0.2c0.4-0.7,1-1.2,1.7-1.6c0.7-0.4,1.6-0.6,2.5-0.6c1.6,0,2.8,0.4,3.6,1.2c0.8,0.8,1.1,2.1,1.1,3.8v9h-2.9V433
		c0-1.1-0.2-1.8-0.6-2.4c-0.4-0.5-1-0.8-1.9-0.8c-1.1,0-2,0.4-2.5,1.1c-0.5,0.7-0.8,1.8-0.8,3.3V441.5z"/>
	<path class="st5" d="M511.9,434.6c0,2.2-0.6,4-1.7,5.3c-1.2,1.3-2.8,1.9-4.8,1.9c-1.3,0-2.4-0.3-3.4-0.9s-1.7-1.4-2.3-2.5
		s-0.8-2.3-0.8-3.8c0-2.2,0.6-4,1.7-5.2c1.1-1.3,2.8-1.9,4.8-1.9c2,0,3.6,0.6,4.7,1.9C511.3,430.7,511.9,432.4,511.9,434.6z
		 M501.9,434.6c0,3.2,1.2,4.8,3.5,4.8c2.3,0,3.5-1.6,3.5-4.8c0-3.1-1.2-4.7-3.5-4.7c-1.2,0-2.1,0.4-2.7,1.2
		C502.2,431.9,501.9,433.1,501.9,434.6z"/>
	<path class="st5" d="M519.9,441.8c-1.7,0-3.1-0.6-4-1.9c-1-1.2-1.4-3-1.4-5.2c0-2.3,0.5-4,1.5-5.3s2.3-1.9,4-1.9
		c1.8,0,3.2,0.7,4.1,2h0.1c-0.1-1-0.2-1.8-0.2-2.3v-5h2.9v19.4h-2.3l-0.5-1.8H524C523.1,441.1,521.7,441.8,519.9,441.8z
		 M520.7,439.4c1.2,0,2.1-0.3,2.6-1c0.5-0.7,0.8-1.8,0.8-3.3v-0.4c0-1.7-0.3-3-0.8-3.7c-0.6-0.7-1.4-1.1-2.7-1.1
		c-1,0-1.8,0.4-2.4,1.3c-0.6,0.8-0.8,2-0.8,3.6c0,1.5,0.3,2.7,0.8,3.5C518.8,439,519.6,439.4,520.7,439.4z"/>
	<path class="st5" d="M537.2,441.8c-2.1,0-3.8-0.6-5-1.9c-1.2-1.2-1.8-3-1.8-5.2c0-2.2,0.6-4,1.7-5.3c1.1-1.3,2.7-1.9,4.6-1.9
		c1.8,0,3.3,0.6,4.3,1.7c1.1,1.1,1.6,2.6,1.6,4.6v1.6h-9.2c0,1.3,0.4,2.4,1.1,3.1c0.7,0.7,1.6,1.1,2.9,1.1c0.8,0,1.6-0.1,2.3-0.2
		c0.7-0.2,1.5-0.4,2.3-0.8v2.4c-0.7,0.3-1.4,0.6-2.2,0.7C538.9,441.7,538.1,441.8,537.2,441.8z M536.6,429.7c-0.9,0-1.7,0.3-2.2,0.9
		c-0.6,0.6-0.9,1.4-1,2.6h6.2c0-1.1-0.3-2-0.8-2.6C538.3,430,537.6,429.7,536.6,429.7z"/>
	<path class="st5" d="M548.8,441.5h-2.9v-19.4h2.9V441.5z"/>
	<path class="st5" d="M552.8,424.1c0-0.5,0.1-0.9,0.4-1.2s0.7-0.4,1.2-0.4c0.5,0,0.9,0.1,1.2,0.4c0.3,0.3,0.4,0.7,0.4,1.2
		c0,0.5-0.1,0.9-0.4,1.2c-0.3,0.3-0.7,0.4-1.2,0.4c-0.5,0-0.9-0.1-1.2-0.4S552.8,424.6,552.8,424.1z M555.9,441.5h-2.9v-13.8h2.9
		V441.5z"/>
	<path class="st5" d="M565.6,441.8c-2.1,0-3.7-0.6-4.7-1.8c-1.1-1.2-1.6-3-1.6-5.2c0-2.3,0.6-4.1,1.7-5.3c1.1-1.2,2.8-1.9,4.9-1.9
		c1.5,0,2.8,0.3,3.9,0.8l-0.9,2.4c-1.2-0.5-2.3-0.7-3.1-0.7c-2.4,0-3.6,1.6-3.6,4.7c0,1.5,0.3,2.7,0.9,3.5c0.6,0.8,1.5,1.2,2.6,1.2
		c1.3,0,2.5-0.3,3.7-1v2.6c-0.5,0.3-1.1,0.5-1.7,0.7C567.2,441.7,566.4,441.8,565.6,441.8z"/>
	<path class="st5" d="M581.3,441.5l-0.6-1.9h-0.1c-0.7,0.8-1.3,1.4-2,1.7s-1.5,0.5-2.6,0.5c-1.4,0-2.4-0.4-3.2-1.1
		c-0.8-0.7-1.1-1.8-1.1-3.1c0-1.4,0.5-2.5,1.6-3.2s2.7-1.1,4.8-1.2l2.4-0.1v-0.7c0-0.9-0.2-1.5-0.6-2c-0.4-0.4-1-0.7-1.9-0.7
		c-0.7,0-1.4,0.1-2,0.3c-0.6,0.2-1.3,0.5-1.9,0.7l-0.9-2.1c0.7-0.4,1.6-0.7,2.5-0.9s1.7-0.3,2.5-0.3c1.8,0,3.1,0.4,4,1.1
		c0.9,0.8,1.3,2,1.3,3.6v9.3H581.3z M576.9,439.5c1.1,0,1.9-0.3,2.6-0.9c0.6-0.6,1-1.4,1-2.5v-1.2l-1.8,0.1c-1.4,0-2.4,0.3-3,0.7
		c-0.6,0.4-0.9,1-0.9,1.9c0,0.6,0.2,1.1,0.5,1.4C575.6,439.3,576.2,439.5,576.9,439.5z"/>
	<path class="st5" d="M587,439.9c0-0.6,0.2-1.1,0.5-1.4s0.8-0.5,1.4-0.5c0.6,0,1.1,0.2,1.4,0.5s0.5,0.8,0.5,1.4
		c0,0.6-0.2,1.1-0.5,1.4c-0.3,0.3-0.8,0.5-1.4,0.5c-0.6,0-1.1-0.2-1.4-0.5S587,440.5,587,439.9z"/>
	<path class="st5" d="M606.7,434.6c0,2.2-0.6,4-1.7,5.3c-1.2,1.3-2.8,1.9-4.8,1.9c-1.3,0-2.4-0.3-3.4-0.9s-1.7-1.4-2.3-2.5
		s-0.8-2.3-0.8-3.8c0-2.2,0.6-4,1.7-5.2c1.1-1.3,2.8-1.9,4.8-1.9c2,0,3.6,0.6,4.7,1.9C606.1,430.7,606.7,432.4,606.7,434.6z
		 M596.6,434.6c0,3.2,1.2,4.8,3.5,4.8c2.3,0,3.5-1.6,3.5-4.8c0-3.1-1.2-4.7-3.5-4.7c-1.2,0-2.1,0.4-2.7,1.2
		C596.9,431.9,596.6,433.1,596.6,434.6z"/>
	<path class="st5" d="M617,427.5c0.6,0,1.1,0,1.5,0.1l-0.3,2.7c-0.4-0.1-0.8-0.1-1.3-0.1c-1.2,0-2.1,0.4-2.8,1.1
		c-0.7,0.8-1.1,1.8-1.1,3v7.2H610v-13.8h2.3l0.4,2.4h0.1c0.5-0.8,1.1-1.5,1.8-2C615.4,427.7,616.2,427.5,617,427.5z"/>
	<path class="st5" d="M632.6,427.7v1.6l-2.4,0.4c0.2,0.3,0.4,0.6,0.5,1.1c0.1,0.4,0.2,0.9,0.2,1.3c0,1.4-0.5,2.5-1.5,3.3
		c-1,0.8-2.3,1.2-4,1.2c-0.4,0-0.8,0-1.2-0.1c-0.6,0.4-0.9,0.8-0.9,1.4c0,0.3,0.1,0.6,0.4,0.7c0.3,0.2,0.8,0.2,1.6,0.2h2.4
		c1.5,0,2.7,0.3,3.5,1c0.8,0.6,1.2,1.6,1.2,2.8c0,1.6-0.6,2.8-1.9,3.6c-1.3,0.8-3.1,1.3-5.6,1.3c-1.9,0-3.3-0.3-4.3-1
		c-1-0.7-1.5-1.6-1.5-2.8c0-0.8,0.3-1.6,0.8-2.1c0.5-0.6,1.3-1,2.2-1.2c-0.4-0.2-0.7-0.4-1-0.8s-0.4-0.8-0.4-1.2
		c0-0.5,0.1-0.9,0.4-1.3c0.3-0.4,0.7-0.7,1.3-1.1c-0.7-0.3-1.3-0.8-1.7-1.5c-0.4-0.7-0.7-1.5-0.7-2.4c0-1.5,0.5-2.7,1.4-3.5
		s2.3-1.2,4-1.2c0.4,0,0.8,0,1.2,0.1c0.4,0.1,0.7,0.1,1,0.2H632.6z M621.8,443.6c0,0.6,0.3,1.1,0.9,1.5c0.6,0.3,1.4,0.5,2.4,0.5
		c1.6,0,2.8-0.2,3.6-0.7c0.8-0.5,1.2-1.1,1.2-1.8c0-0.6-0.2-1-0.6-1.3c-0.4-0.3-1.2-0.4-2.4-0.4h-2.2c-0.8,0-1.5,0.2-2,0.6
		C622.1,442.4,621.8,443,621.8,443.6z M623.1,432.2c0,0.9,0.2,1.5,0.7,2c0.4,0.5,1.1,0.7,1.9,0.7c1.7,0,2.5-0.9,2.5-2.7
		c0-0.9-0.2-1.6-0.6-2.1s-1.1-0.7-1.9-0.7c-0.8,0-1.5,0.2-1.9,0.7C623.3,430.6,623.1,431.3,623.1,432.2z"/>
</g>
</svg>
