<?xml version="1.0" encoding="utf-8"?>
<!-- Generator: Adobe Illustrator 21.1.0, SVG Export Plug-In . SVG Version: 6.00 Build 0)  -->
<svg version="1.1" id="Vrstva_1" xmlns="http://www.w3.org/2000/svg" xmlns:xlink="http://www.w3.org/1999/xlink" x="0px" y="0px"
	 viewBox="0 0 841.9 420.9" style="enable-background:new 0 0 841.9 420.9;" xml:space="preserve">
<style type="text/css">
	.st0{fill:#787D8D;}
	.st1{fill:#1D1D1B;}
	.st2{fill:#1D1D1B;stroke:#1D1D1B;stroke-width:1.8478;stroke-miterlimit:10;}
	.st3{fill:none;}
	.st4{clip-path:url(#SVGID_2_);fill:url(#SVGID_3_);}
</style>
<g>
	<g>
		<path class="st0" d="M207.5,86h6.7l-28.3,110.4l-23.6,102.4c-2.3,8.6-3.5,14.4-3.5,17.4c0,2.3,1.2,4.2,3.5,5.6
			c2.3,1.4,7.6,2.6,15.7,3.4c6.1,0.5,12.1,1.4,18,2.5l-4.1,10.2c-29.3-3.1-49.7-4.7-61.3-4.7c-16.9,0-35.2,1.6-55,4.7l3.5-10.2
			c7.1-1.9,15.2-3.8,24.3-5.7c9-1.8,15.1-4.5,18.4-8.2c4.5-4.8,9.2-16.2,14.1-34.3l22.1-84.4c7.2-32.2,10.8-50.3,10.8-54.6
			c0-4.8-2-7.2-5.9-7.2c-3,0-16.7,5.5-41.1,16.3l-4.1-10.2c35.4-16.9,57.1-28.1,65-33.6C190.6,100.2,198.9,93.6,207.5,86z"/>
	</g>
	<g>
		<g>
			<path class="st0" d="M265.8,149.5l-10.4-5.1c10.8-21.4,21.9-36.2,33.4-44.4c11.5-8.2,24.4-12.4,38.7-12.4
				c17.2,0,30.9,5.5,41.1,16.3s15.3,23.6,15.3,38.2c0,9-1.8,18.1-5.5,27.4c-3.7,9.3-9.7,18.9-18.2,29c-5.5,6.7-20.4,20.5-45,41.5
				c-33,28.6-56.1,51.7-69.5,69.3c17.8-0.8,36.2-1.2,55.2-1.2c6.1,0,11.4,0.1,15.9,0.2c9.9,0.4,16.8-0.5,20.4-2.9
				c3.7-2.3,9.7-10.1,18.2-23.3h14.1c-11,15.3-20.6,34-28.8,56.2c-9.7-1.8-19.9-3.1-30.7-4c-10.8-0.9-22.1-1.3-33.9-1.3
				c-14,0-34.7,0.9-61.9,2.7l4.1-12.9c12.4-18.4,30.9-39.2,55.6-62.4c24.4-22.9,40.1-38.9,47.2-48.1c10.2-13.2,17.6-25.7,22.3-37.4
				c3.5-8.7,5.3-17.2,5.3-25.4c0-12.3-3.3-22.1-10-29.5c-6.7-7.4-14.9-11-24.7-11c-8.2,0-16.2,2.9-24,8.8
				C282.2,123.8,274.1,134.3,265.8,149.5z"/>
		</g>
	</g>
	<g>
		<g>
			<path class="st0" d="M426.8,75.6l-3.9,15.2h11.2l-0.9,3.8H422l-4.7,18.1c-1.5,5.4-2.2,9.2-2.2,11.4c0,1,0.2,1.7,0.6,2.1
				c0.4,0.4,1,0.6,1.7,0.6c1.1,0,2.8-0.7,5.1-2c3-1.8,5.9-3.8,8.7-6l2.1,2.5c-7.9,6-13.2,9.6-15.9,10.9c-2.7,1.3-4.8,2-6.4,2
				c-1.3,0-2.4-0.5-3.2-1.5c-0.8-1-1.2-2.6-1.2-4.8c0-2.6,0.7-6.6,2.1-11.9l5.5-21.5h-8.8l1-3.8c0,0,6.3-1.4,10.8-5
				c4.3-3.4,7.1-10,7.1-10L426.8,75.6z"/>
			<path class="st0" d="M481.9,121.3l1.4,2c-3.3,3.7-6.7,6.6-10.2,8.8c-2.4,1.5-4.4,2.2-5.9,2.2c-1.3,0-2.3-0.5-3.1-1.5
				c-0.8-1-1.2-2.6-1.2-4.7c0-1.4,0.3-3.5,0.9-6.3c0.6-2.8,2.3-8.7,5.1-17.8c1.2-4.5,1.8-7.1,1.8-7.8c0-1.2-0.6-1.7-1.8-1.7
				c-1.5,0-3.4,0.8-5.7,2.3c-3.2,2.1-6,4.8-8.5,8c-1.6,2.1-2.8,5.1-3.7,9.2l-4.3,18.9h-8.1c1.7-6.3,3.1-11.5,4-15.5l7.5-32.5
				l3.2-14.8l-8.9,0.2l0.3-2.4c0,0,4.6-0.2,8.9-0.8c2.5-0.3,8.1-1.5,8.1-1.5L459,78.3l-5.2,23.1c4.3-4.5,9-8.3,14-11.4
				c3-1.8,5.3-2.8,7.2-2.8c1.4,0,2.5,0.4,3.3,1.2c0.8,0.8,1.2,2,1.2,3.5c0,1.2-0.1,2.5-0.4,3.7c-0.5,2.1-1.6,6-3.3,11.6
				c-2.4,7.7-3.7,12.5-4.2,14.4c-0.4,1.9-0.6,3.6-0.6,5c0,0.6,0.1,1,0.3,1.3c0.2,0.3,0.5,0.4,0.9,0.4c0.9,0,2.5-1,4.9-3.1
				C478.4,124.2,480,122.8,481.9,121.3z"/>
		</g>
	</g>
	<g>
		<g>
			<path class="st1" d="M404.8,158.2h3.6v42.5h-3.6V158.2z"/>
			<path class="st1" d="M416.7,200.7v-42.5h0.8l24,32.6v-32.6h3.5v42.5h-0.8l-23.8-32.2v32.2H416.7z"/>
			<path class="st1" d="M450.2,162.4v-4.2h19.7v4.2h-8v38.3h-3.7v-38.3H450.2z"/>
			<path class="st1" d="M475.1,158.2h20.6v4.2h-17v13.3h16.9v4.2h-16.9v16.7h16.9v4.2h-20.5V158.2z"/>
			<path class="st1" d="M502.1,158.2h7.2c4,0,6.7,0.2,8.1,0.6c2.1,0.6,3.9,1.8,5.2,3.7c1.3,1.9,2,4.2,2,7c0,2.3-0.5,4.3-1.4,6.1
				c-0.9,1.8-2.2,3.1-4,4c-1.7,0.9-4.1,1.4-7.1,1.4l12.9,19.7h-4.5L507.8,181h-2v19.7h-3.6V158.2z M505.7,162.4v14.4l6.2,0.1
				c2.4,0,4.2-0.3,5.3-0.8c1.2-0.5,2.1-1.4,2.7-2.6c0.6-1.2,1-2.5,1-4c0-1.4-0.3-2.7-1-3.9c-0.7-1.2-1.5-2-2.6-2.5
				c-1.1-0.5-2.8-0.8-5.3-0.8H505.7z"/>
			<path class="st1" d="M532.4,200.7v-42.5h0.8l24,32.6v-32.6h3.5v42.5h-0.8l-23.8-32.2v32.2H532.4z"/>
			<path class="st1" d="M584.1,158.2l16.8,42.5H597l-5.7-14h-15.5l-5.6,14h-4l17-42.5H584.1z M583.7,167.3l-6.2,15.4h12.3
				L583.7,167.3z"/>
			<path class="st1" d="M602.9,162.4v-4.2h19.7v4.2h-8v38.3H611v-38.3H602.9z"/>
			<path class="st1" d="M627.3,158.2h3.6v42.5h-3.6V158.2z"/>
			<path class="st1" d="M656.3,157.2c5.5,0,10,2.1,13.7,6.4c3.7,4.3,5.5,9.6,5.5,15.9c0,6.2-1.8,11.5-5.5,15.8
				c-3.7,4.3-8.1,6.5-13.4,6.5c-5.3,0-9.8-2.2-13.5-6.5c-3.7-4.3-5.5-9.5-5.5-15.6c0-4.1,0.8-7.9,2.5-11.3c1.7-3.5,4-6.2,6.8-8.2
				C649.8,158.2,652.9,157.2,656.3,157.2z M656.5,161.3c-2.7,0-5.2,0.8-7.6,2.5c-2.4,1.6-4.2,3.8-5.6,6.6c-1.3,2.8-2,5.9-2,9.3
				c0,5,1.5,9.3,4.4,12.8c3,3.5,6.5,5.2,10.7,5.2c2.8,0,5.4-0.8,7.8-2.4c2.4-1.6,4.2-3.8,5.6-6.6c1.3-2.8,2-5.9,2-9.2
				c0-3.4-0.7-6.4-2-9.1c-1.3-2.7-3.2-4.9-5.6-6.5C661.7,162.1,659.2,161.3,656.5,161.3z"/>
			<path class="st1" d="M682.7,200.7v-42.5h0.8l24,32.6v-32.6h3.5v42.5h-0.8l-23.8-32.2v32.2H682.7z"/>
			<path class="st1" d="M734.5,158.2l16.8,42.5h-3.9l-5.7-14h-15.5l-5.6,14h-4l17-42.5H734.5z M734,167.3l-6.2,15.4h12.3L734,167.3z
				"/>
			<path class="st1" d="M756.8,158.2h3.6v38.4h13.8v4.1h-17.4V158.2z"/>
		</g>
		<g>
			<path class="st1" d="M442.8,304.7l-3.1,2.6c-1.7-2.4-3.8-4.2-6.2-5.5c-2.4-1.2-5.1-1.9-8-1.9c-3.2,0-6.1,0.8-8.8,2.4
				c-2.7,1.6-4.8,3.8-6.3,6.6c-1.5,2.7-2.2,5.8-2.2,9.3c0,5.2,1.7,9.5,5,13c3.3,3.5,7.5,5.2,12.6,5.2c5.6,0,10.2-2.3,14-7l3.1,2.5
				c-2,2.7-4.5,4.8-7.4,6.3c-3,1.5-6.3,2.2-9.9,2.2c-7,0-12.4-2.5-16.5-7.4c-3.4-4.2-5.1-9.2-5.1-15.1c0-6.2,2-11.4,6.1-15.7
				c4.1-4.2,9.2-6.4,15.3-6.4c3.7,0,7.1,0.8,10.1,2.4C438.5,299.7,440.9,301.9,442.8,304.7z"/>
			<path class="st1" d="M468.4,295.8c6,0,11.1,2.1,15.1,6.4c4.1,4.3,6.1,9.6,6.1,15.9c0,6.2-2,11.5-6.1,15.8c-4,4.3-9,6.5-14.8,6.5
				c-5.9,0-10.9-2.2-14.9-6.5c-4.1-4.3-6.1-9.5-6.1-15.6c0-4.1,0.9-7.9,2.8-11.3c1.8-3.5,4.4-6.2,7.6-8.2
				C461.2,296.8,464.7,295.8,468.4,295.8z M468.6,299.9c-2.9,0-5.7,0.8-8.4,2.5c-2.6,1.6-4.7,3.8-6.2,6.6c-1.5,2.8-2.2,5.9-2.2,9.3
				c0,5,1.6,9.3,4.9,12.8c3.3,3.5,7.2,5.2,11.8,5.2c3.1,0,5.9-0.8,8.6-2.4c2.6-1.6,4.7-3.8,6.1-6.6c1.5-2.8,2.2-5.9,2.2-9.2
				c0-3.4-0.7-6.4-2.2-9.1c-1.5-2.7-3.5-4.9-6.2-6.5C474.4,300.7,471.6,299.9,468.6,299.9z"/>
			<path class="st1" d="M496.2,339.3v-42.5h0.9l26.5,32.6v-32.6h3.9v42.5h-0.9l-26.3-32.2v32.2H496.2z"/>
			<path class="st1" d="M537.1,296.8h19.9v4.2h-16v13.3h16v4.2h-16v20.8h-4V296.8z"/>
			<path class="st1" d="M565.4,296.8h22.8v4.2h-18.8v13.3H588v4.2h-18.7v16.7H588v4.2h-22.6V296.8z"/>
			<path class="st1" d="M595.3,296.8h7.9c4.4,0,7.4,0.2,9,0.6c2.4,0.6,4.3,1.8,5.8,3.7c1.5,1.9,2.2,4.2,2.2,7c0,2.3-0.5,4.3-1.5,6.1
				c-1,1.8-2.5,3.1-4.4,4c-1.9,0.9-4.5,1.4-7.8,1.4l14.3,19.7h-4.9l-14.3-19.7h-2.2v19.7h-4V296.8z M599.2,301v14.4l6.9,0.1
				c2.7,0,4.6-0.3,5.9-0.8c1.3-0.5,2.3-1.4,3-2.6c0.7-1.2,1.1-2.5,1.1-4c0-1.4-0.4-2.7-1.1-3.9c-0.7-1.2-1.7-2-2.8-2.5
				c-1.2-0.5-3.1-0.8-5.8-0.8H599.2z"/>
			<path class="st1" d="M628.7,296.8h22.8v4.2h-18.8v13.3h18.7v4.2h-18.7v16.7h18.7v4.2h-22.6V296.8z"/>
			<path class="st1" d="M659.8,339.3v-42.5h0.9l26.5,32.6v-32.6h3.9v42.5h-0.9l-26.3-32.2v32.2H659.8z"/>
			<path class="st1" d="M737.7,304.7l-3.1,2.6c-1.7-2.4-3.8-4.2-6.2-5.5c-2.4-1.2-5.1-1.9-8-1.9c-3.2,0-6.1,0.8-8.8,2.4
				c-2.7,1.6-4.8,3.8-6.3,6.6c-1.5,2.7-2.2,5.8-2.2,9.3c0,5.2,1.7,9.5,5,13c3.3,3.5,7.5,5.2,12.6,5.2c5.6,0,10.2-2.3,14-7l3.1,2.5
				c-2,2.7-4.5,4.8-7.4,6.3c-3,1.5-6.3,2.2-9.9,2.2c-7,0-12.4-2.5-16.5-7.4c-3.4-4.2-5.1-9.2-5.1-15.1c0-6.2,2-11.4,6.1-15.7
				c4.1-4.2,9.2-6.4,15.3-6.4c3.7,0,7.1,0.8,10.1,2.4C733.4,299.7,735.8,301.9,737.7,304.7z"/>
			<path class="st1" d="M745.7,296.8h22.8v4.2h-18.8v13.3h18.7v4.2h-18.7v16.7h18.7v4.2h-22.6V296.8z"/>
		</g>
		<g>
			<path class="st2" d="M412.8,219.3h9.6l12,38.6l12.1-38.6h9.6l8.7,55.3h-9.5l-5.6-34.9l-11,34.9h-8.7l-10.9-34.9l-5.7,34.9h-9.6
				L412.8,219.3z"/>
			<path class="st3" d="M497.1,217.9c7.3,0,13.6,2.8,18.9,8.5c5.3,5.7,7.9,12.6,7.9,20.7c0,8.1-2.6,14.9-7.8,20.5
				c-5.2,5.6-11.5,8.4-18.9,8.4c-7.8,0-14.2-2.9-19.4-8.6c-5.1-5.7-7.7-12.6-7.7-20.4c0-5.3,1.2-10.1,3.6-14.6
				c2.4-4.4,5.7-7.9,9.9-10.5C487.8,219.2,492.3,217.9,497.1,217.9z M497,228.2c-4.8,0-8.8,1.8-12.1,5.3c-3.3,3.6-4.9,8.1-4.9,13.6
				c0,6.1,2.1,10.9,6.2,14.5c3.2,2.8,6.9,4.2,11,4.2c4.7,0,8.7-1.8,11.9-5.4c3.3-3.6,4.9-8.1,4.9-13.3c0-5.3-1.7-9.7-5-13.4
				C505.8,230,501.7,228.2,497,228.2z"/>
			<path class="st2" d="M533.2,219.3h11.7c7.5,0,13.1,1,16.8,3c3.7,2,6.7,5.2,9,9.7c2.4,4.5,3.6,9.7,3.6,15.7c0,4.3-0.7,8.2-2,11.7
				c-1.3,3.6-3.2,6.5-5.5,8.9c-2.3,2.4-4.9,4-7.6,4.9c-2.7,0.9-7.4,1.4-14.1,1.4h-11.8V219.3z M543,229.4v34.9h4.6
				c4.5,0,7.8-0.6,9.8-1.7c2-1.1,3.7-3,5-5.6c1.3-2.6,1.9-5.8,1.9-9.6c0-5.9-1.5-10.4-4.6-13.7c-2.8-2.9-7.2-4.4-13.3-4.4H543z"/>
			<path class="st2" d="M583.7,219.3H612v10.3h-18.5v10H612v10.1h-18.5v14.5H612v10.3h-28.3V219.3z"/>
			<path class="st2" d="M624.7,219.3h9.9v45.2H649v10h-24.2V219.3z"/>
			<path class="st2" d="M657.5,219.3h9.8v55.3h-9.8V219.3z"/>
			<path class="st2" d="M718.9,229l-5.5,7c-3.8-5.3-8-7.9-12.7-7.9c-4,0-7.3,1.8-10,5.4c-2.7,3.6-4.1,8.1-4.1,13.4
				c0,3.7,0.6,7,1.8,9.8c1.2,2.9,2.9,5.1,5.1,6.7c2.2,1.6,4.6,2.4,7.3,2.4c2.3,0,4.4-0.6,6.3-1.7c1.9-1.1,4-3.2,6.3-6.2l5.4,7.4
				c-3.1,4-6,6.7-8.7,8.3c-2.7,1.5-5.8,2.3-9.3,2.3c-6.4,0-11.7-2.7-15.8-8.2c-4.1-5.4-6.2-12.4-6.2-21c0-5.5,0.9-10.4,2.8-14.7
				c1.9-4.3,4.5-7.7,8-10.3c3.5-2.6,7.2-3.9,11.3-3.9c3.4,0,6.7,1,9.9,2.9C713.9,222.7,716.7,225.5,718.9,229z"/>
			<path class="st2" d="M742.8,219.3h10l19.9,55.3h-10.2l-4.1-11.4h-21.1l-4.2,11.4h-10.2L742.8,219.3z M747.9,234l-6.9,19h13.8
				L747.9,234z"/>
		</g>
		<g>
			<defs>
				<ellipse id="SVGID_1_" cx="496.6" cy="246.5" rx="28.8" ry="28.8"/>
			</defs>
			<clipPath id="SVGID_2_">
				<use xlink:href="#SVGID_1_"  style="overflow:visible;"/>
			</clipPath>
			
				<radialGradient id="SVGID_3_" cx="285.0789" cy="127.9155" r="35.3334" gradientTransform="matrix(-1.3066 -1.3066 0.9146 -0.9146 763.0153 723.7609)" gradientUnits="userSpaceOnUse">
				<stop  offset="0" style="stop-color:#F4E9D6"/>
				<stop  offset="9.184588e-02" style="stop-color:#DDA79C"/>
				<stop  offset="0.2011" style="stop-color:#C35F5C"/>
				<stop  offset="0.2798" style="stop-color:#B33134"/>
				<stop  offset="0.3192" style="stop-color:#AD2025"/>
				<stop  offset="0.4877" style="stop-color:#9A2024"/>
				<stop  offset="0.5985" style="stop-color:#76191C"/>
				<stop  offset="0.8743" style="stop-color:#220708"/>
				<stop  offset="1" style="stop-color:#000000"/>
			</radialGradient>
			<ellipse class="st4" cx="507.5" cy="234.3" rx="65.3" ry="65.3"/>
		</g>
	</g>
</g>
</svg>
