<?xml version="1.0" encoding="utf-8"?>
<!-- Generator: Adobe Illustrator 21.1.0, SVG Export Plug-In . SVG Version: 6.00 Build 0)  -->
<svg version="1.1" id="Vrstva_1" xmlns="http://www.w3.org/2000/svg" xmlns:xlink="http://www.w3.org/1999/xlink" x="0px" y="0px"
	 viewBox="0 0 145.3 72.7" style="enable-background:new 0 0 145.3 72.7;" xml:space="preserve">
<style type="text/css">
	.st0{fill:#F26B24;}
</style>
<g>
	<path class="st0" d="M39.4,42.8l6.9,2.2c-1.1,3.8-2.8,6.7-5.3,8.6c-2.5,1.9-5.6,2.8-9.4,2.8c-4.7,0-8.5-1.6-11.5-4.8
		s-4.5-7.6-4.5-13.1c0-5.9,1.5-10.4,4.5-13.7c3-3.2,7-4.9,12-4.9c4.3,0,7.8,1.3,10.5,3.8c1.6,1.5,2.8,3.7,3.6,6.5l-7,1.7
		c-0.4-1.8-1.3-3.3-2.6-4.3c-1.3-1.1-2.9-1.6-4.8-1.6c-2.6,0-4.7,0.9-6.4,2.8c-1.6,1.9-2.4,4.9-2.4,9.1c0,4.5,0.8,7.6,2.4,9.5
		c1.6,1.9,3.7,2.8,6.3,2.8c1.9,0,3.5-0.6,4.9-1.8C37.8,47.2,38.8,45.3,39.4,42.8z M23.3,11.2h5.5l2.6,3.6l2.8-3.6h5.4l-5,7.1h-6.3
		L23.3,11.2z"/>
	<path d="M50.1,44.3l6.9-0.7c0.4,2.3,1.3,4,2.5,5.1c1.3,1.1,3,1.6,5.1,1.6c2.3,0,4-0.5,5.2-1.4c1.2-1,1.7-2.1,1.7-3.4
		c0-0.8-0.2-1.5-0.7-2.1c-0.5-0.6-1.3-1.1-2.5-1.5c-0.8-0.3-2.7-0.8-5.7-1.5c-3.8-0.9-6.5-2.1-8-3.5c-2.2-1.9-3.2-4.3-3.2-7.1
		c0-1.8,0.5-3.5,1.5-5c1-1.6,2.5-2.7,4.4-3.6c1.9-0.8,4.2-1.2,6.9-1.2c4.4,0,7.7,1,9.9,2.9c2.2,1.9,3.4,4.5,3.5,7.7L70.6,31
		c-0.3-1.8-1-3.1-2-3.9c-1-0.8-2.5-1.2-4.5-1.2c-2.1,0-3.7,0.4-4.8,1.3c-0.8,0.5-1.1,1.3-1.1,2.2c0,0.8,0.4,1.5,1.1,2.1
		c0.9,0.8,3.1,1.5,6.5,2.3s6,1.7,7.6,2.5c1.7,0.9,2.9,2.1,3.9,3.6c0.9,1.5,1.4,3.4,1.4,5.6c0,2-0.6,3.9-1.7,5.6
		c-1.1,1.8-2.7,3.1-4.7,3.9c-2,0.9-4.6,1.3-7.6,1.3c-4.4,0-7.8-1-10.2-3.1C52,51.2,50.6,48.2,50.1,44.3z"/>
	<path d="M83.7,55.7V20.5h7.1v15.7l14.4-15.7h9.6l-13.3,13.7l14,21.5h-9.2l-9.7-16.5l-5.8,5.9v10.7H83.7z"/>
	<path d="M118.8,55.7V20.5h7.1v35.2H118.8z"/>
</g>
</svg>
