<?xml version="1.0" encoding="utf-8"?>
<!-- Generator: Adobe Illustrator 21.1.0, SVG Export Plug-In . SVG Version: 6.00 Build 0)  -->
<svg version="1.1" id="Calque_1" xmlns="http://www.w3.org/2000/svg" xmlns:xlink="http://www.w3.org/1999/xlink" x="0px" y="0px"
	 viewBox="0 0 680 225" style="enable-background:new 0 0 680 225;" xml:space="preserve">
<style type="text/css">
	.VoË_x009A_teâ_x0080__x00A0__x002D__x0020_Vert{fill:url(#SVGID_1_);stroke:#FFFFFF;stroke-width:0.25;stroke-miterlimit:1;}
	.st0{fill:url(#SVGID_2_);}
	.st1{fill-rule:evenodd;clip-rule:evenodd;fill:#2A3944;}
	.st2{fill-rule:evenodd;clip-rule:evenodd;fill:url(#SVGID_3_);}
	.st3{fill-rule:evenodd;clip-rule:evenodd;fill:url(#SVGID_4_);}
	.st4{fill-rule:evenodd;clip-rule:evenodd;fill:url(#SVGID_5_);}
	.st5{fill-rule:evenodd;clip-rule:evenodd;fill:url(#SVGID_6_);}
	.st6{fill-rule:evenodd;clip-rule:evenodd;fill:url(#SVGID_7_);}
	.st7{fill-rule:evenodd;clip-rule:evenodd;fill:url(#SVGID_8_);}
	.st8{fill-rule:evenodd;clip-rule:evenodd;fill:url(#SVGID_9_);}
	.st9{fill:url(#SVGID_10_);}
	.st10{fill:url(#SVGID_11_);}
	.st11{fill:url(#SVGID_12_);}
	.st12{fill-rule:evenodd;clip-rule:evenodd;fill:url(#SVGID_13_);}
</style>
<linearGradient id="SVGID_1_" gradientUnits="userSpaceOnUse" x1="-257.3301" y1="529.5825" x2="-256.623" y2="528.8754">
	<stop  offset="0" style="stop-color:#20AC4B"/>
	<stop  offset="0.9831" style="stop-color:#19361A"/>
</linearGradient>
<g>
	<linearGradient id="SVGID_2_" gradientUnits="userSpaceOnUse" x1="206.2701" y1="83.7298" x2="635.7612" y2="165.7715">
		<stop  offset="0" style="stop-color:#939598"/>
		<stop  offset="4.383522e-02" style="stop-color:#8E8F92"/>
		<stop  offset="0.3755" style="stop-color:#75767C"/>
		<stop  offset="0.6569" style="stop-color:#62636C"/>
		<stop  offset="0.8738" style="stop-color:#565963"/>
		<stop  offset="1" style="stop-color:#525660"/>
	</linearGradient>
	<path class="st0" d="M452.9,120.3h8.2l2.4-11.5h25.4l-2.4,11.5h8.2c1.1,0,2.1-0.4,2.4-1.7l4.2-19.9c3.1-15.1-6.2-18.3-18.8-18.3
		c-15.1,0-23.7,3.5-27,18.3l-4.2,19.9C451,119.9,451.9,120.3,452.9,120.3z M465.9,97.4c1.6-7.7,6.5-10.5,15.3-10.5
		c9.2,0,11.7,3.2,10.2,10.5c0,0-0.4,1.8-0.5,2.4c-0.2,0.8-0.6,2.9-3,2.9h-23.1L465.9,97.4z M294.4,120.3h8.2l2.4-11.5h25.4
		l-2.4,11.5h8.2c1.1,0,2.1-0.4,2.4-1.7l4.2-19.9c3.1-15.1-6.2-18.3-18.8-18.3c-15.1,0-23.7,3.5-27,18.3l-4.2,19.9
		C292.5,119.9,293.3,120.3,294.4,120.3z M307.4,97.4c1.6-7.7,6.5-10.5,15.3-10.5c9.2,0,11.7,3.2,10.2,10.5c0,0-0.4,1.8-0.5,2.4
		c-0.2,0.8-0.6,2.9-3,2.9h-23.1L307.4,97.4z M426.3,139.2l0.8-3.7h-41.3c-2.1,0-3.4,0.7-3.7,2.1l-0.9,4h17l-7.1,33.3h7.6
		c2.1,0,3.4-0.8,3.8-2.8l6.5-30.5h14.2C425.2,141.6,426,140.8,426.3,139.2z M312.4,136.9l-3.8,18c-6.7,1.9-24,5.3-21.3-7.4l2.5-11.9
		h-9.1c-1.1,0-1.9,0.7-2,1.3l-2.3,10.8c-4.4,20.6,17,17.8,30.8,13.9l-2.8,13.4h7.6c2.1,0,3.4-0.8,3.8-2.8l7.8-36.7h-9.2
		C313.3,135.5,312.5,136.2,312.4,136.9z M551.5,138.1l-7.8,36.9h39.9l0.8-3.9c0.3-1.6-0.1-2.1-2.1-2.1h-26.5l2.3-10.6h23.4
		c0.7,0,1.2-0.4,1.3-0.9l0.9-4.2c0.1-0.5-0.2-0.9-0.9-0.9h-23.4l2.2-10.6h25.6c1.2,0,2.4,0,2.7-1.5l1-4.7h-36
		C553,135.5,551.9,136.3,551.5,138.1z M433.1,138.1l-7.8,36.9h39.9l0.8-3.9c0.3-1.6-0.1-2.1-2.1-2.1h-26.5l2.2-10.6h23.4
		c0.7,0,1.2-0.4,1.3-0.9l0.9-4.2c0.1-0.5-0.2-0.9-0.9-0.9H441l2.3-10.6h25.6c1.2,0,2.4,0,2.7-1.5l1-4.7h-36
		C434.6,135.5,433.5,136.3,433.1,138.1z M536.5,135.5h-9.8l-18.9,15.4l-12.4-15.4h-9.8c-1.6,0-2.5,0.9-2.8,2.5L475,175h8.3
		c1.7,0,2.7-0.8,3-2.3l5.9-27.6l9.5,12.4c0.3,0.5,1.1,1.2,2.3,1.2h4.3c1.2,0,2.3-0.7,2.8-1.2l14.8-12.4l-5.9,27.6
		c-0.3,1.5,0.3,2.3,2.1,2.3h8.3l7.9-36.9C538.6,136.5,538.1,135.5,536.5,135.5z M605.4,116.6c0.4-1.7-0.3-2.4-2-2.4h-23.1l6.8-32
		c0.1-0.7-0.4-1.3-1.3-1.3h-9.2l-8.4,39.5h36.5L605.4,116.6z M241.3,91.8c-1.1,0-1.9,0.7-2,1.3l-5.8,27.2h25.6
		c14.3,0,24.2-4.9,27.3-20c2.3-11.3-3-19.5-17.6-19.5h-30.9c0,0-0.1,0.3-0.1,0.5c-0.7,2.7-0.3,5.6,4.6,5.6h22.5
		c10.8,0,12.4,4.9,10.2,13.7c-2.1,8.5-5.8,13-13.9,13.6h-15.4l4.8-22.4H241.3z M611.5,80.8c-2.1,0-3.3,0.7-3.7,2.1l-0.8,4h17
		l-7.1,33.3h7.6c2.1,0,3.4-0.8,3.8-2.8l6.5-30.5H649c2,0,2.7-0.8,3.1-2.4l0.8-3.7H611.5z M391.1,113.6c1.2-3,1.2-6-1.7-9
		c-1.5-1.5-3.7-2.9-6.7-4.5c-13.5-7-17.1-7.8-16.2-11.2c0.5-1.9,1.9-2,7-2h15.9c2.1,0,3.4-0.8,3.7-2.5l0.8-3.7h-20.1
		c-11.4,0-18.2,0.1-20,7.6c-1.3,5.5,3.5,8.2,13.1,13.7c10.5,6,13,6.4,12,9.6c-0.8,2.5-3.5,2.6-8.3,2.6h-18.8c-2.1,0-3.4,0.8-3.8,2.5
		l-0.7,3.5H371C381.9,120.3,388.6,119.7,391.1,113.6z M441.6,113.6c1.2-3,1.2-6-1.7-9c-1.5-1.5-3.7-2.9-6.7-4.5
		c-13.5-7-17.1-7.8-16.2-11.2c0.5-1.9,1.9-2,7-2h15.9c2.1,0,3.4-0.8,3.8-2.5l0.8-3.7h-20.1c-11.4,0-18.2,0.1-20,7.6
		c-1.3,5.5,3.5,8.2,13.1,13.7c10.6,6,13,6.4,12,9.6c-0.8,2.5-3.5,2.6-8.3,2.6h-18.8c-2.1,0-3.4,0.8-3.8,2.5l-0.7,3.5h23.7
		C432.3,120.3,439.1,119.7,441.6,113.6z M598,143c-1.3,5.6,3.5,8.2,13.1,13.7c10.6,6,13,6.4,12,9.6c-0.8,2.5-3.5,2.6-8.3,2.6H596
		c-2.1,0-3.4,0.8-3.8,2.5l-0.7,3.5h23.7c10.8,0,17.6-0.6,20.1-6.7c1.2-3,1.2-6-1.7-9c-1.5-1.5-3.7-2.9-6.7-4.5
		c-13.5-7-17.1-7.8-16.2-11.2c0.5-1.9,1.9-2,7-2h15.9c2.1,0,3.4-0.8,3.7-2.5l0.8-3.7h-20.1C606.5,135.4,599.7,135.5,598,143z
		 M333.1,143c-1.3,5.6,3.5,8.2,13.1,13.7c10.6,6,13,6.4,12,9.6c-0.8,2.5-3.5,2.6-8.3,2.6h-18.8c-2.1,0-3.4,0.8-3.7,2.5l-0.7,3.5
		h23.7c10.8,0,17.6-0.6,20.1-6.7c1.2-3,1.2-6-1.7-9c-1.5-1.5-3.7-2.9-6.7-4.5c-13.5-7-17.1-7.8-16.2-11.2c0.5-1.9,1.9-2,7-2h15.9
		c2.1,0,3.4-0.8,3.7-2.5l0.8-3.7h-20.1C341.7,135.4,334.9,135.5,333.1,143z M228.7,143c-1.3,5.6,3.5,8.2,13.1,13.7
		c10.5,6,13,6.4,12,9.6c-0.8,2.5-3.5,2.6-8.3,2.6h-18.8c-2.1,0-3.4,0.8-3.7,2.5l-0.8,3.5h23.7c10.8,0,17.6-0.6,20.1-6.7
		c1.2-3,1.2-6-1.7-9c-1.5-1.5-3.7-2.9-6.7-4.5c-13.5-7-17.1-7.8-16.2-11.2c0.5-1.9,1.9-2,7-2h15.9c2.1,0,3.4-0.8,3.8-2.5l0.8-3.7
		h-20.1C237.2,135.4,230.4,135.5,228.7,143z M531.8,121.2c17.8,0,24.7-5.6,27.5-18.5l4.2-20.1c0.3-1.3-0.6-1.8-1.7-1.8h-8.6
		l-2.4,11.6l-1.4,6.2l-1.1,5.4c-1.6,7.3-6.7,10.6-15.5,10.6c-9.6,0-12.2-3.2-10.7-10.6c0,0,0.4-1.8,0.5-2.4l2-9.1l2.4-11.6h-8.6
		c-1.1,0-2.2,0.4-2.5,1.8l-4.2,20.1C508.8,116.8,516.5,121.2,531.8,121.2z"/>
</g>
<g>
	<path class="st1" d="M117.5,20.1c16.9-0.8,37,2.6,40.7,13.8c6.1,18.3-24.9,45-51.9,58.1c-6.6,3.2-10.6,4.1-12.3,3.9
		c-1.6-0.2-1.8-1.7-1.3-2.7c1-1.9,5.3-5.8,11.2-10.1c30.4-22.2,40.3-38.5,34.6-45.1c-3.7-4.2-19.1-7.2-35.1-7.2
		c-4.3,0-15.8,0.9-16.9-2.8C85.3,24.9,100.6,20.9,117.5,20.1z"/>
	<path class="st1" d="M79.6,103.6c14.1-0.7,31.2,1.5,40.8,8c4.8,3.3,8.1,9.3,6.2,16.2c-5.5,19.6-26.2,43.3-72.2,61.5
		c-14.6,5.8-26.1,8-28.5,6.5c-2.6-1.7,4.9-14.6,7.2-18.9c7.3-13.9,16.5-27.4,25.4-39.8c3.3-4.6,8.4-12.5,13-11.8
		c4.1,0.6-0.7,9-3.9,14.3c-5.3,9-20,33.9-15.2,35.4c10.7,3.3,61-31,53.6-50.1c-3.4-8.9-25.3-9.7-39-9.7c-6.3,0-19.9,1.3-20.7-3
		C45.5,108.3,67.1,104.3,79.6,103.6z"/>
	<path class="st1" d="M189.3,80.5c8.5,1.4,15.5,2.5,17.1,5.7c1.8,3.7-7.5,3.9-12.2,4c-22.4,0.4-35.9,0.8-36.6,7.7
		c-0.9,8.9,9.6,17.8,19.9,30.3c9.4,11.4,20.2,22.7,17.1,33.2c-3.9,13.1-21.6,15.9-38.5,15.9c-16.2,0-31.5-2.3-38-3.5
		c-8-1.4-6.8-5-4.7-6.2c2.4-1.3,16-1.3,25.5-1.8c7.8-0.4,30.5-0.4,34-5.7c4.3-6.4-6.3-17.4-16-28.9c-12.2-14.4-25.5-29.2-18.4-40
		C147.6,77.1,174.4,78,189.3,80.5z"/>
	
		<radialGradient id="SVGID_3_" cx="132.06" cy="89.1644" r="40.0299" gradientTransform="matrix(0.9121 0 0 0.9121 2.1174 -23.2306)" gradientUnits="userSpaceOnUse">
		<stop  offset="0" style="stop-color:#7E818A"/>
		<stop  offset="0.1988" style="stop-color:#7A7D86"/>
		<stop  offset="0.3969" style="stop-color:#6F737C"/>
		<stop  offset="0.5948" style="stop-color:#5E636D"/>
		<stop  offset="0.7927" style="stop-color:#484F5A"/>
		<stop  offset="0.9889" style="stop-color:#2C3A45"/>
		<stop  offset="1" style="stop-color:#2A3944"/>
	</radialGradient>
	<path class="st2" d="M117.5,20.9c16.9-0.7,36.2,1.9,40,13.1c6.1,18.3-24.2,44.4-51.2,57.5c-6.6,3.2-10,4.1-12.1,4
		c-1.1-0.1-1.4-1.2-1-2.1c1-1.9,4.8-5.1,10.7-9.4c31.2-22.8,41.2-39.3,35-46.5c-3.7-4.2-19.5-7.2-35.5-7.2c-8.8,0-15.4,0.4-16.3-2.2
		C86.1,25.3,100.5,21.6,117.5,20.9z"/>
	
		<radialGradient id="SVGID_4_" cx="172.2925" cy="165.9425" r="52.1627" gradientTransform="matrix(0.9121 0 0 0.9121 2.1174 -23.2306)" gradientUnits="userSpaceOnUse">
		<stop  offset="0" style="stop-color:#7E818A"/>
		<stop  offset="0.133" style="stop-color:#7A7D86"/>
		<stop  offset="0.2655" style="stop-color:#6F737C"/>
		<stop  offset="0.3979" style="stop-color:#5E636D"/>
		<stop  offset="0.5303" style="stop-color:#484F5A"/>
		<stop  offset="0.6615" style="stop-color:#2C3A45"/>
		<stop  offset="0.669" style="stop-color:#2A3944"/>
		<stop  offset="1" style="stop-color:#868891"/>
	</radialGradient>
	<path class="st3" d="M190.1,81.2c8.3,1.4,14.5,2.6,15.7,5c1.6,3.4-8.9,3.2-11.9,3.3c-22.4,0.4-36.2,1-36.9,8.2
		c-0.9,8.9,9.9,18.3,20.2,30.8c9.6,11.7,19.8,22.7,17,32.5c-3.9,13.2-22.4,15.5-38.3,15.5c-15.9,0-30.4-2.2-37.1-3.4
		c-8.1-1.5-6.2-4.4-4.8-5.2c2.4-1.3,15.6-1,25.1-1.5c7.8-0.4,31-0.8,34.6-6c4.4-6.6-6.2-17.8-16.2-29.7
		c-11.9-14-25.2-28.8-18.4-39.3C148.1,77.4,175.1,78.8,190.1,81.2z"/>
	
		<radialGradient id="SVGID_5_" cx="81.3672" cy="189.7926" r="52.6869" gradientTransform="matrix(0.9121 0 0 0.9121 2.1174 -23.2306)" gradientUnits="userSpaceOnUse">
		<stop  offset="0" style="stop-color:#7E818A"/>
		<stop  offset="0.1419" style="stop-color:#7A7D86"/>
		<stop  offset="0.2833" style="stop-color:#6F737C"/>
		<stop  offset="0.4246" style="stop-color:#5E636D"/>
		<stop  offset="0.5658" style="stop-color:#484F5A"/>
		<stop  offset="0.7059" style="stop-color:#2C3A45"/>
		<stop  offset="0.7138" style="stop-color:#2A3944"/>
		<stop  offset="1" style="stop-color:#868891"/>
	</radialGradient>
	<path class="st4" d="M79.6,104.3c14.1-0.7,30.8,1.4,40.4,7.9c3.9,2.7,8,8.5,6.1,15.2c-5.5,19.6-25.8,43-71.7,61.2
		c-14.6,5.8-25.9,7.9-27.8,6.7c-2.6-1.7,4.9-14.1,7.2-18.4c7.3-13.9,16.3-27.1,25.2-39.5c2.5-3.5,8.3-12.2,12.2-11.6
		c3.2,0.4-1,8.3-4.1,13.5c-4.9,8.3-20.8,34.4-15.1,36.2c11.8,3.6,62.1-31.7,54.7-50.7c-3.6-9.3-25.8-10.3-39.7-10.3
		c-5,0-19.4,1.2-20.1-2.6C46.4,109.5,65.5,105,79.6,104.3z"/>
	
		<radialGradient id="SVGID_6_" cx="122.1845" cy="77.2296" r="51.2317" gradientTransform="matrix(0.9121 0 0 0.9121 2.1174 -23.2306)" gradientUnits="userSpaceOnUse">
		<stop  offset="0.5" style="stop-color:#FFFFFF"/>
		<stop  offset="0.5515" style="stop-color:#E8E8E9"/>
		<stop  offset="0.6429" style="stop-color:#C0C0C5"/>
		<stop  offset="0.7634" style="stop-color:#8A8C94"/>
		<stop  offset="0.9069" style="stop-color:#4F5560"/>
		<stop  offset="1" style="stop-color:#2A3944"/>
	</radialGradient>
	<path class="st5" d="M117.5,20.9c16.9-0.7,36.2,1.9,40,13.1c6.1,18.3-24.2,44.4-51.2,57.5c-7.3,3.5-10.4,4.1-12.1,4
		c-1-0.1-0.7-1-0.1-1.6c1.3-1.3,6.7-4.8,12.8-9.3c31.1-23.1,44.8-41,38.5-48.3c-6.2-7.2-19-7.8-41.4-7.8c-6.8,0-16.7,0.7-17-0.4
		C86.1,25.3,100.5,21.6,117.5,20.9z"/>
	
		<radialGradient id="SVGID_7_" cx="122.6455" cy="134.8252" r="109.4081" gradientTransform="matrix(0.9121 0 0 0.9121 2.1174 -23.2306)" gradientUnits="userSpaceOnUse">
		<stop  offset="0.4655" style="stop-color:#FFFFFF"/>
		<stop  offset="0.5179" style="stop-color:#E8E8E9"/>
		<stop  offset="0.6107" style="stop-color:#C0C0C5"/>
		<stop  offset="0.7331" style="stop-color:#8A8C94"/>
		<stop  offset="0.8712" style="stop-color:#525862"/>
		<stop  offset="1" style="stop-color:#6B6F79"/>
	</radialGradient>
	<path class="st6" d="M190.1,81.2c8.3,1.4,14.5,2.6,15.7,5c1.1,2.2-3.3,1.8-15.5,1.8c-23.6,0-36.1,1.4-36.8,8.8
		c-0.9,8.9,9.9,17.1,20.8,29.1c11,12.1,22.8,24.9,19.8,35c-3.9,13.2-22.4,15.5-38.3,15.5c-15.9,0-30.4-2.2-37.1-3.4
		c-4-0.7-5.6-1.8-6-2.8c-0.2-0.6,0.3-1.5,1.2-1.7c2.7-0.6,15.8-0.5,25.6-0.4c8.7,0.1,34.4,0.2,38.8-6.4c4.6-6.9-8.2-19.5-18.8-30.8
		c-12.7-13.4-27.4-29.2-20.5-39.7C148.1,77.4,175.1,78.8,190.1,81.2z"/>
	
		<radialGradient id="SVGID_8_" cx="94.9773" cy="127.4484" r="118.3607" gradientTransform="matrix(0.9121 0 0 0.9121 2.1174 -23.2306)" gradientUnits="userSpaceOnUse">
		<stop  offset="0.2418" style="stop-color:#FFFFFF"/>
		<stop  offset="0.2983" style="stop-color:#F2F2F3"/>
		<stop  offset="0.3669" style="stop-color:#DCDBDD"/>
		<stop  offset="0.4418" style="stop-color:#BCBCC1"/>
		<stop  offset="0.5212" style="stop-color:#95979E"/>
		<stop  offset="0.6032" style="stop-color:#6B6F79"/>
		<stop  offset="0.6374" style="stop-color:#5A5F69"/>
		<stop  offset="0.6728" style="stop-color:#636771"/>
		<stop  offset="0.734" style="stop-color:#7C7F88"/>
		<stop  offset="0.7921" style="stop-color:#9D9EA5"/>
	</radialGradient>
	<path class="st7" d="M79.6,104.3c14.1-0.7,30.8,1.4,40.4,7.9c3.9,2.7,8,8.5,6.1,15.2c-5.5,19.6-25.8,43-71.7,61.2
		c-14.6,5.8-25.9,7.9-27.8,6.7c-2.6-1.7,4.9-14.1,7.2-18.4c7.3-13.9,16.3-27.1,25.2-39.5c2.5-3.5,8.3-12.2,12.2-11.6
		c3.2,0.4-2.2,8.4-5.6,13.5c-8.6,13-23.8,38.4-17.8,40.6c13.4,4.9,72.8-34.7,64.5-56c-4.4-11.2-28.1-11.7-43.7-11.7
		c-9.8,0-21.5,1.7-21.8-0.3C46.4,109.5,65.5,105,79.6,104.3z"/>
	<linearGradient id="SVGID_9_" gradientUnits="userSpaceOnUse" x1="39.979" y1="172.1507" x2="52.7872" y2="189.1477">
		<stop  offset="0.1758" style="stop-color:#9D9EA5"/>
		<stop  offset="0.2556" style="stop-color:#A7A8AE"/>
		<stop  offset="0.3831" style="stop-color:#C2C2C7"/>
		<stop  offset="0.467" style="stop-color:#DBDBDD"/>
		<stop  offset="0.6008" style="stop-color:#CBCBCE"/>
		<stop  offset="0.844" style="stop-color:#A4A5AB"/>
		<stop  offset="0.8846" style="stop-color:#9D9EA5"/>
	</linearGradient>
	<path class="st8" d="M66.7,175.3c-8.1,4-15.2,5.9-18.8,4.6c-2.4-0.9-1.4-5.4,1.1-11.3l-8.6-3.3c-2.3,3.8-4.5,7.7-6.6,11.6
		c-2.3,4.3-9.8,16.7-7.2,18.4c1.8,1.2,13.2-0.9,27.8-6.7c7.9-3.1,15-6.4,21.5-9.8L66.7,175.3z"/>
	<g>
		<linearGradient id="SVGID_10_" gradientUnits="userSpaceOnUse" x1="156.2306" y1="133.2099" x2="132.5829" y2="182.2702">
			<stop  offset="0" style="stop-color:#85878F"/>
			<stop  offset="0.1001" style="stop-color:#8F9198"/>
			<stop  offset="0.2723" style="stop-color:#ACADB2"/>
			<stop  offset="0.4945" style="stop-color:#E2E2E4"/>
			<stop  offset="0.533" style="stop-color:#F1F2F2"/>
			<stop  offset="0.5644" style="stop-color:#E9EAEB"/>
			<stop  offset="0.6839" style="stop-color:#CED0D1"/>
			<stop  offset="0.7991" style="stop-color:#BBBDBF"/>
			<stop  offset="0.907" style="stop-color:#AFB1B4"/>
			<stop  offset="1" style="stop-color:#ABADB0"/>
		</linearGradient>
		<path class="st9" d="M139,91.4c-6.9,10.5,7.8,26.3,20.5,39.7c10.7,11.2,23.5,23.9,18.9,30.8c-4.4,6.6-30.1,6.5-38.8,6.4
			c-9.9-0.1-23-0.2-25.7,0.4c-0.8,0.2-1.3,0.9-1.3,1.5c0-0.6,0.5-1.2,1.3-1.3c2.7-0.6,16.5,0.1,26.4,0.2c9.3,0.1,34.4,0.7,39.4-6.8
			c4.6-6.9-7.4-19.1-18.1-30.4C149.2,118.7,131.9,102.3,139,91.4z"/>
	</g>
	<linearGradient id="SVGID_11_" gradientUnits="userSpaceOnUse" x1="29.6" y1="156.7109" x2="112.9975" y2="118.8589">
		<stop  offset="6.043960e-02" style="stop-color:#686C76"/>
		<stop  offset="8.294618e-02" style="stop-color:#7C7F87"/>
		<stop  offset="0.1209" style="stop-color:#999BA2"/>
		<stop  offset="0.1631" style="stop-color:#B5B5BA"/>
		<stop  offset="0.2103" style="stop-color:#CBCBCF"/>
		<stop  offset="0.2653" style="stop-color:#DDDDDF"/>
		<stop  offset="0.3356" style="stop-color:#E8E8E9"/>
		<stop  offset="0.4725" style="stop-color:#ECEBEC"/>
		<stop  offset="0.5404" style="stop-color:#DFDFE1"/>
		<stop  offset="0.6471" style="stop-color:#C1C2C6"/>
		<stop  offset="0.7795" style="stop-color:#9799A0"/>
		<stop  offset="0.9309" style="stop-color:#666B74"/>
		<stop  offset="1" style="stop-color:#515861"/>
	</linearGradient>
	<path class="st10" d="M113.5,123.6c-4.4-11.2-26.3-12.3-41.9-12.3c-9.3,0-23,2.5-24.5,0.9c1.3,1.6,12.3,0.1,21.7,0.1
		c15.6,0,39.3,0.4,43.7,11.6c8.3,21.3-51.1,60.8-64.5,55.9c-6-2.2,9.2-27.5,17.8-40.5c3.3-5.1,8.8-13.1,5.6-13.6
		c3.2,0.4-4,9.8-7.4,14.9C56,152.8,40.2,177,46.8,180.7C59.5,187.8,121.8,145,113.5,123.6z"/>
	<linearGradient id="SVGID_12_" gradientUnits="userSpaceOnUse" x1="186.922" y1="66.7063" x2="161.0735" y2="182.1025">
		<stop  offset="0.1044" style="stop-color:#525862"/>
		<stop  offset="0.173" style="stop-color:#7A7D86"/>
		<stop  offset="0.239" style="stop-color:#A0A1A8"/>
		<stop  offset="0.3" style="stop-color:#BFBFC4"/>
		<stop  offset="0.354" style="stop-color:#D4D4D7"/>
		<stop  offset="0.3956" style="stop-color:#DCDBDE"/>
		<stop  offset="0.7253" style="stop-color:#4A515C"/>
		<stop  offset="0.7569" style="stop-color:#686C76"/>
		<stop  offset="0.7945" style="stop-color:#8B8D95"/>
		<stop  offset="0.8296" style="stop-color:#A7A8AE"/>
		<stop  offset="0.8607" style="stop-color:#BABABF"/>
		<stop  offset="0.8846" style="stop-color:#C1C1C6"/>
		<stop  offset="1" style="stop-color:#4A515C"/>
	</linearGradient>
	<path class="st11" d="M205.8,86.3c1.2,2.5-5.7,1.4-16.4,1.2c-23.8-0.6-36.4,0.3-37.3,9.5c-0.9,8.9,11.3,18.2,22.2,30.2
		c9.9,10.9,20.5,21.6,20.2,31c0.3-9.6-10.3-21.1-20.2-32.1c-10.8-11.9-21.5-20.4-20.7-29.1c0.7-7.4,13.1-8.8,36.6-8.8
		C202.5,88.1,206.9,88.5,205.8,86.3z"/>
	
		<radialGradient id="SVGID_13_" cx="118.271" cy="56.4308" r="96.8825" gradientTransform="matrix(0.9121 0 0 0.9121 2.1174 -23.2306)" gradientUnits="userSpaceOnUse">
		<stop  offset="0" style="stop-color:#525862"/>
		<stop  offset="0.1615" style="stop-color:#7B7E87"/>
		<stop  offset="0.3357" style="stop-color:#AAABB1"/>
		<stop  offset="0.4914" style="stop-color:#D2D2D5"/>
		<stop  offset="0.621" style="stop-color:#EFEEEF"/>
		<stop  offset="0.7088" style="stop-color:#FFFFFF"/>
	</radialGradient>
	<path class="st12" d="M145.2,36.3c6.3,7.2-7.3,25.2-38.4,48.2c-6.1,4.5-11.5,8-12.8,9.3c1.3-1.3,7.4-4.3,13.5-8.7
		c32.1-23.1,45.1-41.5,39.3-49.2c-5.1-6.8-18.1-8.6-40.8-8c-6.9,0.2-18.7,1.3-19,0.2c0.3,1.1,10.2,0.6,17,0.6
		C126.4,28.6,139,29.1,145.2,36.3z"/>
</g>
</svg>
