<?xml version="1.0" encoding="utf-8"?>
<!-- Generator: Adobe Illustrator 21.1.0, SVG Export Plug-In . SVG Version: 6.00 Build 0)  -->
<svg version="1.1" id="Vrstva_1" xmlns="http://www.w3.org/2000/svg" xmlns:xlink="http://www.w3.org/1999/xlink" x="0px" y="0px"
	 viewBox="0 0 228.3 71.2" style="enable-background:new 0 0 228.3 71.2;" xml:space="preserve">
<style type="text/css">
	.st0{fill:#6286A0;}
	.st1{fill:none;stroke:#000000;stroke-width:0.484;stroke-miterlimit:10;}
	.st2{fill:#B4C5D5;}
	.st3{fill:#FFFFFF;}
	.st4{fill:#8EB7CE;}
	.st5{fill:none;stroke:#000000;stroke-width:0.275;stroke-linecap:round;stroke-linejoin:round;}
	.st6{fill:none;stroke:#000000;stroke-width:0.249;stroke-linecap:round;stroke-linejoin:round;}
</style>
<path class="st0" d="M69.6,36.9C68.6,52.2,55.4,64,40,63c-15.4-0.9-27.1-14.1-26.2-29.5C14.7,18.1,28,6.4,43.4,7.3
	c15.2,0.9,26.8,13.8,26.2,29"/>
<path class="st1" d="M70.7,37l-2.6-0.2 M70.6,38.4L68,38.1 M70.4,39.7l-2.6-0.4 M70.1,41.1l-2.5-0.5 M69.8,42.4l-2.5-0.7 M69.4,43.7
	L67,42.9 M69,45l-2.4-0.9 M68.5,46.3l-2.4-1 M68,47.5l-2.3-1.1 M67.3,48.7l-2.3-1.2 M66.7,49.9l-2.2-1.3 M65.9,51.1l-2.2-1.4
	 M65.2,52.2l-2.1-1.5 M64.4,53.3l-2-1.6 M63.5,54.3l-1.9-1.7 M62.6,55.3l-1.9-1.8 M61.6,56.3l-1.8-1.9 M60.6,57.2l-1.7-2 M59.5,58
	l-1.6-2 M58.4,58.9l-1.5-2.1 M57.3,59.6l-1.4-2.2 M56.1,60.3l-1.3-2.2 M54.9,61l-1.2-2.3 M53.7,61.6l-1.1-2.3 M52.5,62.1l-1-2.4
	 M51.2,62.6l-0.8-2.4 M49.9,63l-0.7-2.5 M48.6,63.4L48,60.9 M47.3,63.7l-0.5-2.5 M45.9,63.9l-0.4-2.6 M44.6,64.1l-0.3-2.6
	 M43.2,64.2l-0.2-2.6 M41.8,64.2l0-2.6 M40.5,64.2l0.1-2.6 M39.1,64.1l0.2-2.6 M37.8,64l0.3-2.6 M36.4,63.8l0.5-2.5 M35.1,63.5
	l0.6-2.5 M33.8,63.2l0.7-2.5 M32.5,62.8l0.8-2.5 M31.2,62.3l0.9-2.4 M29.9,61.8l1-2.4 M28.7,61.3l1.1-2.3 M27.5,60.6l1.2-2.3
	 M26.3,60l1.4-2.2 M25.2,59.2l1.5-2.1 M24,58.4l1.6-2.1 M23,57.6l1.6-2 M21.9,56.7l1.7-1.9 M21,55.8l1.8-1.8 M20,54.8l1.9-1.8
	 M19.1,53.8l2-1.7 M18.3,52.7l2.1-1.6 M17.5,51.6l2.1-1.5 M16.7,50.4l2.2-1.4 M16,49.3l2.2-1.3 M15.4,48.1l2.3-1.2 M14.8,46.8
	l2.4-1.1 M14.3,45.6l2.4-0.9 M13.8,44.3l2.5-0.8 M13.4,43l2.5-0.7 M13.1,41.7l2.5-0.6 M12.8,40.4l2.5-0.5 M12.6,39l2.6-0.4
	 M12.4,37.6l2.6-0.2 M12.4,36.3l2.6-0.1 M12.3,34.9l2.6,0 M12.4,33.6l2.6,0.1 M12.5,32.2l2.6,0.2 M12.6,30.9l2.6,0.4 M12.9,29.5
	l2.5,0.5 M13.1,28.2l2.5,0.6 M13.5,26.9l2.5,0.7 M13.9,25.6l2.4,0.8 M14.4,24.3l2.4,1 M14.9,23l2.4,1.1 M15.5,21.8l2.3,1.2
	 M16.1,20.6l2.3,1.3 M16.8,19.4l2.2,1.4 M17.6,18.3l2.1,1.5 M18.4,17.2l2,1.6 M19.3,16.1l2,1.7 M20.2,15.1l1.9,1.8 M21.1,14.2
	l1.8,1.8 M22.1,13.2l1.7,1.9 M23.1,12.4l1.6,2 M24.2,11.5l1.5,2.1 M25.3,10.7l1.4,2.2 M26.5,10l1.3,2.2 M27.7,9.3l1.2,2.3 M28.9,8.7
	L30,11 M30.1,8.2l1,2.4 M31.4,7.6l0.9,2.4 M32.7,7.2l0.8,2.5 M34,6.8l0.7,2.5 M35.3,6.5L35.8,9 M36.6,6.2l0.4,2.5 M38,6l0.3,2.6
	 M39.3,5.9l0.2,2.6 M40.7,5.8l0.1,2.6 M42,5.8l0,2.6 M43.4,5.9l-0.2,2.6 M44.8,6l-0.3,2.6 M46.1,6.2l-0.4,2.6 M47.5,6.4L46.9,9
	 M48.8,6.7l-0.6,2.5 M50.1,7.1l-0.7,2.5 M51.4,7.5L50.5,10 M52.7,8l-1,2.4 M53.9,8.6l-1.1,2.3 M55.1,9.2l-1.2,2.3 M56.3,9.8L55,12.1
	 M57.5,10.6l-1.4,2.2 M58.6,11.3l-1.5,2.1 M59.7,12.1l-1.6,2 M60.7,13L59,15 M61.7,13.9l-1.8,1.9 M62.7,14.9l-1.9,1.8 M63.6,15.9
	l-1.9,1.7 M64.5,16.9l-2,1.6 M65.3,18l-2.1,1.5 M66.1,19.2l-2.2,1.4 M66.8,20.3l-2.2,1.3 M67.4,21.5l-2.3,1.2 M68,22.7l-2.3,1.1
	 M68.6,24l-2.4,1 M69.1,25.3l-2.4,0.9 M69.5,26.5L67,27.3 M69.9,27.9l-2.5,0.6 M70.2,29.2l-2.5,0.5 M70.4,30.5l-2.6,0.4 M70.6,31.9
	L68,32.1 M70.7,33.2l-2.6,0.2 M70.7,34.6l-2.6,0 M70.7,36l-2.6-0.1"/>
<path class="st2" d="M37,36c0,0,0.3,0.2,0.3,0.1L38,37c0,0,1.1,0.6,1.2,0.5c0.2-0.1,0.3-0.4,0.4-0.4c0.1,0,0.3-0.2,0.4-0.2
	c0.1,0,0.3-0.3,0.3-0.3s0.5,0.1,0.5-0.2c0-0.3,0-1,0-1s0.4-0.2,0.5-0.8c0.1,0,0.7-0.1,0.7-0.1c0.5-0.2,0.4-0.7,0.3-1
	c-0.1-0.3-0.7-0.6-0.7-0.6c0.3-0.4,0-0.7,0-0.7c-0.1-0.3-0.4-0.4-0.6-0.5l-0.3,0l-1.3-0.7L37.4,31l-2,2.7l-0.7-0.3v-1.8l0.9-2.4
	l0.9-0.9l0.9,0.8l3,0.1c0,0,1.1,0.1,1.3-0.1c0.3-0.4,0.7-1.1,0.7-1.1l0,0.1c0.1,0.1,0.2,0.1,0.2,0.1s0.3,0,0.4,0.1
	c0,0,0.1-0.2,0.4-0.4c0.4-0.3,0.1-0.6,0.2-0.8c0.1-0.3-0.2-0.6-0.2-0.6l2.4,0.7l0,0c-0.2,0.3-0.2,0.6-0.3,0.7
	c-0.2,0.1,0.1,0.6,0,0.8c-0.1,0.2,0.2,0.4,0.2,0.4l0.1,0c0,0.3,0,0.6,0.1,0.9c0,0,0.1,0.5,0.4,1h0l-0.1,0c0,0-0.1,0.4-0.3,0.5
	c-0.1,0.1-0.8,1-0.7,1.6c0.1,0.6,0.4,1.6,0.4,1.6l0.3,0l0,0.1c0,0-0.2,0.7-0.4,0.8c-0.1,0.1-0.6,0.4-1,1.6l0,0c0,0-0.4-0.4-1,0.2
	c-0.4,0.4-0.5,0.4-0.5,0.5c0,0,0,0,0,0l0,0l0,0c0,0,0,0,0,0c-0.4,0.5-0.4,0.5-0.4,0.6c0,0.1-0.2,0.9-0.2,1c0,0.1,0,0.4-0.1,0.4
	c-0.1,0-0.4,0.3-0.4,0.2c0-0.1-0.3-0.5-0.5-0.5c-0.1,0-0.3,0-0.3,0.1c0.1,0.2-0.5,0.1-0.1,0.4l0.4,0.4c0,0,0.4,0.3,0.6,0.4
	c0.2,0.1,0.6,0,0.8-0.3l0.1,0c0,0.2-0.1,0.5-0.1,0.5c-0.1,0.1-0.3,0.7-0.2,0.7c0,0,0.2,0.5,0.4,0.1l0.3-0.4l0.3-0.4l0,0
	c-0.2,0.7-0.4,1.4-0.6,1.7c-0.3,0.6-0.6,1.1-0.6,1.5c0,0.3-0.1,0.7,0.1,1.1h0l0,0c-0.8-0.5-1.4,0.2-2.2,0.5
	c-0.9,0.3-1.8,0.3-1.8,0.3l0-0.1C37.6,46,36.7,45,36.7,45l-1.5-1.5c0.4-2,1.3-2.1,1.3-2.1l0,0c0.4-1.1,0.7-2.9,0.9-3.4
	c0,0-0.1-0.5-0.1-0.7"/>
<path class="st3" d="M37.7,30.8c0,0-0.4,0.1-0.5,0.2c-0.1,0.1-0.7,0.6-0.8,0.6c-0.1,0-1,0.9-1.1,1c-0.1,0.1-0.1,0.5-0.1,0.6
	c0,0.1,0.5,1.2,0.5,1.3c0,0.1,0.4,0.2,0.4,0.3c0,0.1,0.1,0.4,0.7,0.7l-0.1,0.9l0.3-0.2c0,0,1.3,0.1,1.4-0.2c0.1-0.3,0.6-0.7,0.9-0.9
	c0.3-0.2,1.1-0.7,1.4-0.8c0.2-0.1,0.7,0.2,0.9,0.2s1.3-0.3,0.8-0.9c-0.5-0.7-0.8-1-0.7-1.2c0-0.2-0.2-0.7-0.9-0.8
	c-0.7-0.1-1-0.6-1-0.6L37.7,30.8z"/>
<path class="st3" d="M51,26c0,0-1.2-0.5-1.5-0.6c-0.3-0.1-1.8,0.2-2.2,0.5c-0.5,0.3-0.7,0.4-0.8,0.6c-0.1,0.2-0.7,0.4-0.7,0.5
	c0,0.2-0.2,0.7-0.3,0.8c0,0.1,0,0.8,0.1,0.9c0.1,0.1,0.1,0.8,0.2,0.9c0.1,0.1,0.3,1,0.8,1.3c0.4,0.3,1.1,0.5,1.2,0.6s0.5,1.1,0.7,1
	s0.4-0.4,0.7-0.3c0.3,0.1,1,0.3,1.4-0.1c0.4-0.4,0.9-1.3,1.4-1.5c0.5-0.2,1.1-0.7,1.3-1.3c0.3-0.7,0.6-1.8,0.4-2.4
	c-0.2-0.6-0.8-0.9-1.1-0.9S51,26,51,26"/>
<path class="st2" d="M51.8,43.6c0,0,0.5-7.4,5.3-13.2l0,0c0.6,0.1,1.2,0.1,1.8-0.3l0,0c-6.5-1.7-2.3-6-1.6-6.7l0-0.1
	c0.5,0.2,1-0.2,2.7,0.7c0.1,0.1,0.9-0.5,1.2-0.5c0.5,0,1.7,1.2,1.9,1.5c0.1,0.1,0.2,0.7,0,1.1c-0.2,0.4-0.6,0.7-0.5,0.8
	c0.5,1,0.8,2.1,1,3.9c0,0,0.3,1.6,0.4,3.3c0.1,1.3-0.1,2.7,0,3.8c0.1,1.8-1.3,4.9-1.3,6.8c0,0.6,0.3,3,1.1,3.2c0,0-2.8,0.3-4,0.3
	c-0.5,0-0.6,0-1.1,0c-2-0.1-4-0.2-4.1-0.3l-0.1,0c-0.1-0.4-0.2-1.1,0-1.5c0.3-0.6,3.4-5,3.2-8.1l0,0h0c-0.2,0.1-0.3,0.3-0.4,0.4
	c-0.5,0.7-2.5,2.3-3.8,3.4c-0.4,0.4-0.8,0.6-1,0.8C52.2,43,51.8,43.6,51.8,43.6"/>
<path class="st3" d="M51.7,49.1c0.1-0.2,0.2-0.5,0.2-0.6c0.1-0.2,0.3-1,0.3-1.3c0-0.3,0.2-0.9,0.5-1.7c0.3-0.8,0.6-3.3,0.6-3.3
	l0-0.1c1.3-1.1,3.3-2.7,3.8-3.4c0.1-0.2,0.3-0.3,0.4-0.4l0,0c0.2,3.1-2.9,7.5-3.2,8.1c-0.2,0.4-0.1,1.2,0,1.5c0,0.2,0.1,0.3,0.1,0.3
	s0.6,0.9,0.6,1.1c0,0.3-0.4,0.6-0.5,0.7c-0.1,0.1-0.4,0.2-0.6,0.3c-0.2,0.1-0.4,0.1-0.6,0c-0.2,0-0.6-0.2-0.6-0.2s-0.4,0.1-0.7,0.1
	c-0.3,0-0.3-0.4-0.4-0.8C51.7,49.4,51.7,49.2,51.7,49.1"/>
<path class="st2" d="M48.8,25.3c0,0,0.4-0.6,1.1-0.9c0.2-0.1,0.3-0.1,0.5-0.2c0.8-0.5,2.2-1.1,3.6-1.1c0.6-0.1,1.5-0.1,1.9,0l0,0.2
	l0,0c-1.7,0.7-2.6,3.4-2.6,3.5l0,0c-0.1-0.5-0.3-0.5-0.7-0.6c-0.9-0.3-1.9-0.2-2.8-0.6l0,0c-0.2-0.1-0.5-0.2-0.6-0.3
	c-0.1,0-0.3,0-0.5,0L48.8,25.3L48.8,25.3z"/>
<path class="st2" d="M53.4,26.9c0-0.1,0.9-2.8,2.6-3.5c0.3-0.1,0.7-0.2,1.1-0.1c0,0,0.1,0,0.2,0.1l0,0.1c-0.7,0.6-4.9,4.9,1.6,6.7
	l0,0c-0.6,0.4-1.2,0.5-1.8,0.3c-1.9-0.4-3.6-2.7-3.6-2.7l0,0C53.5,27.5,53.5,27.2,53.4,26.9L53.4,26.9z"/>
<path class="st2" d="M47.6,38.3c0.4-0.8,0.7-1.6,0.6-2.3l0.9-1.8l-0.1-0.1c0.3-0.1,0.6-0.2,0.8-0.4c0.3-0.4,1.3-1.9,1.3-1.9l0,0
	c0.1-0.1,0.2-0.3,0.3-0.4c0,0-0.1-0.2,0.4-0.6l0.1-0.1l0.2-0.1l0.1-0.1c0,0,0.8,0.2,0.8,0.4c0,0.2-0.4,1.7-0.5,2
	c0,0.3-0.1,0.6,0.1,1c0.1,0.4,0.3,1.3,0.3,1.7c0,0.4-0.2,1.5-0.4,2.1c0,0.1,0,0.2-0.1,0.3l0,0c0,0-0.6,0-1.5,0.1v0
	C49.9,38,48.9,38.1,47.6,38.3L47.6,38.3z"/>
<path class="st2" d="M50.3,44.4c-0.7-1.9,0.6-3.5,0.8-3.9c0.2-0.4,0.6-1,0.6-1l0.5-1.3l0.1-0.3c0-0.1,0-0.2,0.1-0.3
	c0.1-0.6,0.3-1.7,0.4-2.1c0-0.4-0.2-1.3-0.3-1.7c-0.1-0.4-0.1-0.7-0.1-1c0-0.3,0.4-1.7,0.5-2c0-0.3-1-0.1-1-0.1l-0.1-0.1l0.1-0.2
	l0.2-0.5c0.1,0,0.5-0.3,0.6-0.3c0.9-0.3,1.1-1.5,1.1-1.5s0-0.2,0-0.4l0,0c0,0,1.7,2.3,3.6,2.7l0,0c-4.8,5.8-5.3,13.2-5.3,13.2
	s0.4-0.6,0.5-0.7c0.2-0.2,0.6-0.5,1-0.8l0,0.1c0,0-0.3,2.6-0.6,3.3c-0.3,0.8-0.5,1.4-0.5,1.7c0,0.3-0.2,1.1-0.3,1.3
	c-0.1,0.1-0.2,0.4-0.2,0.6l0.5-1.4c0,0-0.8,0.3-1.1-0.8L50.3,44.4z"/>
<polygon class="st3" points="50.4,51.1 42.6,53.4 42.5,52.8 42.5,52.8 42.6,52.3 50.4,50 "/>
<path class="st2" d="M45.1,33c-0.1-0.6,0.6-1.5,0.7-1.6c0.1-0.1,0.3-0.5,0.3-0.5l0.1,0c0.1,0.1,0.2,0.2,0.4,0.3l0.5,0.4
	c0,0,0.3,0.1,0.4,0.1c0.1,0,0.3,0.1,0.4,0.3c0.1,0.2,0.3,1,0.7,0.8l0.3-0.3c0,0,0.5,0.2,0.5,0.2c0.1,0,0.8,0.4,1.6-0.8l0,0
	c0,0-0.9,1.5-1.3,1.9c-0.2,0.2-0.5,0.3-0.8,0.4c-0.2,0.1-0.4,0.1-0.4,0.1l-2.7,0.3l-0.3,0C45.6,34.6,45.3,33.6,45.1,33"/>
<path class="st2" d="M48.5,21.8L48.5,21.8c0.1,0,0.1-0.1,0.2-0.2c0.2-0.3,0.1-0.9,0.1-0.9c0-0.1,0.1-0.3,0.2-0.4
	c0.1-0.1,0.1-0.6,0.2-0.7c0-0.1,0.2-0.2,0.3-0.3c0.1-0.1-0.1-0.6-0.1-0.8c0-0.1,0-0.3,0.1-0.4l0.1,0c0,0,1.9,0.7,3,2.6
	c0,0,0.4,0.8,0.4,1.1c0,0.1,0,0.2,0,0.2v0l0,0c0.7,0.5,1,0.9,1,0.9l-0.3,0.1c-1.4,0.2-2.4,0.6-3.2,1.1c-0.2,0-0.4,0.1-0.5,0.2l0,0
	C48.2,23.1,48.5,21.9,48.5,21.8L48.5,21.8L48.5,21.8z"/>
<path class="st3" d="M47.1,46.5c-0.6-0.1-0.5-0.8-0.5-0.8s0.3-0.8,0.3-0.9c0-0.1,0-0.6,0-0.8c0-0.3,0.2-0.9,0.5-1.2
	c0.2-0.3,0.2-1.2,0.2-1.4c0-0.2,0-2.4,0-2.4l0,0h0c0.1-0.2,0.2-0.4,0.3-0.5l0.1,0c1.1-0.3,2.1-0.4,2.9-0.4l0,0.1
	C50.6,40.2,50,41,50,41s-1.1,1.6-1.2,1.8c-0.1,0.2-0.1,0.8-0.1,0.9c0,0.1-0.1,0.5-0.1,0.5c-0.1,0.2,0.1,0.6,0.3,0.9
	c0.2,0.2,0.4,0.4,0.5,0.6c0.1,0.2-0.2,0.5-0.5,0.7C48.6,46.5,47.7,46.5,47.1,46.5"/>
<path class="st3" d="M43.8,18c0-0.3,0.3-1.1,0.3-1.3c0-0.2,0.2-0.8,0.4-1.1c0.1-0.1,0.2-0.2,0.3-0.4v0c0.2-0.3,0.5-0.6,0.6-0.6
	c0.1-0.1,1.1-0.3,1.1-0.3s1.1-0.1,1.7,0.5c0,0,0.7,0,0.9,0.5c0.2,0.4,0.6,1.1,0.5,1.4c0,0.2-0.2,0.4-0.1,0.5c0,0.1,0,0.8-0.1,1
	c0,0,0,0,0,0.1c-0.1,0.1-0.1,0.3-0.1,0.4c0,0.2,0.2,0.7,0.1,0.8c-0.1,0.1-0.3,0.2-0.3,0.3c0,0.1,0,0.6-0.2,0.7
	c-0.1,0.1-0.2,0.3-0.2,0.4c0,0.1,0.1,0.7-0.1,0.9c-0.1,0.1-0.1,0.2-0.2,0.2v0c-0.1,0.1-0.2,0.1-0.2,0.1c-0.1-0.1-0.2,0.2-0.2,0.2
	L48,22.2c0,0,0,0.4-0.1,0.4c-0.1,0-0.3-0.5-0.3-0.5l0.2-1l0.1-1.3l0-0.1l1-1.6c0-0.1-0.1-0.7-0.2-0.8c-0.1-0.1-0.5-0.5-0.5-0.6
	c0-0.1-0.1-0.6-0.1-0.6s-0.7,0.6-0.9,0.7c-0.2,0.1-0.7,0-0.8,0c-0.1,0-0.5,0.1-0.5,0.2c-0.1,0.2-0.4,0.7-0.4,0.8
	c-0.1,0.1-0.2,0.6-0.2,0.9c0,0.1-0.1,0.2-0.1,0.3c-0.1,0.1-0.1,0.2-0.2,0.3c-0.1,0.2,0,0.4,0.1,0.6c0,0.3,0,0.8-0.1,0.9
	c0,0.1-0.3,0.1-0.3,0.1c-0.1,0-0.4,0.2-0.4,0.2s0.1-0.4,0.1-0.5c0-0.1-0.2-0.7-0.3-0.8C44,19.7,43.8,18.3,43.8,18"/>
<path class="st3" d="M43.1,49.8l-0.3,0.1l0.3-2l0,0c0,0,0.2-0.3,0.2-0.6c0.1-0.3,0.3-1.2,0.6-1.6c0.2-0.4,0.7-0.4,0.7-0.4l0,0.5
	l0.5,3.6L45,49.7l-0.9-2.4L43.1,49.8z"/>
<path class="st3" d="M45.2,18.7c0-0.3,0.1-0.8,0.2-0.9c0.1-0.1,0.4-0.6,0.4-0.8c0.1-0.2,0.4-0.3,0.5-0.2c0.1,0,0.7,0.1,0.8,0
	c0.2-0.1,0.9-0.7,0.9-0.7s0.1,0.5,0.1,0.6c0,0.1,0.4,0.5,0.5,0.6c0.1,0.1,0.2,0.7,0.2,0.8l-1,1.6l0,0.1l-0.1,0
	c-0.8,0.6-1.8,0.6-1.8,0.6c-0.6-0.2-1-1.4-1-1.4l-0.1,0h0C45.2,19,45.2,18.9,45.2,18.7"/>
<polygon class="st3" points="38.4,50.9 42.8,49.9 43.1,49.8 44.7,49.4 45,49.4 45.9,49.1 50.4,50 42.6,52.3 "/>
<path class="st3" d="M42.3,44.3c0-0.4,0.4-0.9,0.6-1.5c0.1-0.3,0.4-1,0.6-1.7c0.3-0.9,0.5-1.7,0.5-1.7c0.1-1,0.3-1.8,0.5-2.4
	c0.4-1.2,0.9-1.5,1-1.6c0.1-0.1,0.4-0.8,0.4-0.8l0-0.1l2.7-0.3c0,0,0.2,0,0.4-0.1l0.1,0.1l-0.9,1.8c0.1,0.7-0.2,1.5-0.6,2.3
	c-0.1,0.2-0.2,0.4-0.3,0.6c-1,1.8-2.4,3.5-2.5,3.7c-0.1,0.3-0.1,0.6,0.1,1.7c0.2,0.7-0.1,1.2-0.3,1.5l-0.1,0l0-0.5
	c0,0-0.5,0-0.7,0.4c-0.2,0.4-0.5,1.2-0.6,1.6c-0.1,0.3-0.2,0.6-0.2,0.6v0c-0.3,0-0.3-0.4-0.3-0.4l-0.1-1.8c-0.1-0.1-0.2-0.2-0.2-0.3
	C42.3,45.1,42.3,44.6,42.3,44.3"/>
<polyline class="st4" points="43,37.7 43,37.7 43,37.7 43,37.7 "/>
<path class="st4" d="M43,37.7C43,37.7,43,37.7,43,37.7L43,37.7z"/>
<path class="st3" d="M41,40c-0.4-0.4,0.2-0.3,0.1-0.4c-0.1-0.2,0.1-0.2,0.3-0.1c0.1,0,0.4,0.4,0.5,0.5c0,0,0.4-0.2,0.4-0.2
	c0.1,0,0.1-0.3,0.1-0.4c0-0.1,0.2-0.9,0.2-1c0.1-0.1,0-0.1,0.4-0.6c0,0,0,0,0,0c0,0,0.1-0.1,0.5-0.5c0.6-0.5,1-0.2,1-0.2l0,0
	c-0.2,0.6-0.4,1.3-0.5,2.4c0,0-0.2,0.8-0.5,1.7l0,0l-0.3,0.4L43,41.9c-0.3,0.4-0.4-0.1-0.4-0.1c-0.1-0.1,0.1-0.6,0.2-0.7
	c0-0.1,0.1-0.3,0.1-0.5l-0.1,0c-0.2,0.3-0.6,0.3-0.8,0.3c-0.2,0-0.6-0.4-0.6-0.4L41,40z"/>
<path class="st4" d="M43,37.7C43,37.7,43,37.7,43,37.7L43,37.7z"/>
<path class="st2" d="M43.3,26.3c0,0,0-0.2,0.1-0.3c0-0.1-0.3-0.3-0.3-0.4c0,0,0-0.2,0-0.3c-0.1-0.1-0.1-0.5-0.1-0.5c0,0,0-0.1,0-0.1
	l0,0c0,0,0.6-1,0.7-1.1c0,0,0.9-1.3,0-3.5c-0.1-0.3-0.7,0.3-0.7,0.3l0,0c0.1-0.2,0.2-0.4,0-0.9c-0.3-0.7-1.5-1.2-1.9-1.4
	c-0.1,0-0.2,0-0.4,0l0-0.1c0,0-0.4-0.8,0.3-1.6c0.7-0.8,0.9-1,1.2-1c0.3,0,0.8-0.1,0.8-0.1s1-0.7,1.9-0.1v0
	c-0.1,0.1-0.2,0.3-0.3,0.4c-0.2,0.3-0.4,0.9-0.4,1.1c0,0.2-0.3,1-0.3,1.3c0,0.3,0.2,1.7,0.2,1.9c0.1,0.2,0.3,0.8,0.3,0.8
	c0,0.1-0.1,0.5-0.1,0.5s0.3-0.2,0.4-0.2c0.1,0,0.3,0,0.3-0.1c0-0.1,0.1-0.6,0.1-0.9c0-0.3-0.1-0.5-0.1-0.6c0-0.1,0.1-0.2,0.2-0.3h0
	l0.1,0c0,0,0.3,1.2,1,1.3c0,0,1,0,1.8-0.6l0.1,0l-0.1,1.3l-0.2,1c0,0,0.2,0.5,0.3,0.5c0.1,0,0.2-0.4,0.2-0.4l0.1-0.2
	c0,0,0.1-0.2,0.2-0.1c0,0,0.1,0,0.2-0.1h0l0,0c0,0-0.3,1.3,1.4,2.5l0,0c-0.7,0.3-1.1,0.9-1.1,0.9v0l0,0.1c-0.2,0-0.3,0-0.4,0.1
	c-0.1,0-0.6,0.2-0.8,0.2c-0.1,0-0.5,0.3-0.9,0.4c-0.4,0.1-0.2,0.6-0.7,0.7c-0.2,0-0.3,0.1-0.4,0.3"/>
<path class="st3" d="M38.8,24.2c0.1-0.4,0.4-0.9,0.5-1c0.2-0.1,0.6-0.4,1.4-0.2c0,0,0.3,0.3,0.4,0.3c0.1,0,0.3,0.1,0.5,0.3
	c0.2,0.2,0.2,0.3,0.2,0.4c0,0.1,0.2,0.4,0.2,0.4c0,0,0.2,0.6,0.2,0.7c0,0.1,0.1,0.5,0.1,0.6c0,0.1,0.2,0.6,0,0.7
	c-0.2,0.2,0,1.5-0.2,1.6c-0.2,0.4-0.4,0.9-0.8,1c-0.8,0.2-1.9,0-1.9,0l0.2-1.8c0-0.1-0.1-0.3-0.1-0.4c-0.2-0.4-0.2-0.8-0.2-1.1
	c0-0.2-0.1-0.6-0.3-0.8C39,24.8,38.8,24.6,38.8,24.2"/>
<path class="st3" d="M37.6,36.7l-0.4,0.1L36.9,36c0.1-0.2,1.1-0.1,1.2-0.1c0.1-0.1,0.4,0,0.4-0.1c0-0.1,0.2-0.1,0.4-0.2
	c0.2-0.1,0.2-0.3,0.3-0.3c0.1,0,0.3-0.2,0.3-0.3c0-0.1,0.3-0.1,0.4-0.2c0.1,0,0.6-0.4,0.8-0.5c0.1-0.1,0.3-0.1,0.4-0.1
	c0.1,0,0.2,0.3,0.2,0.3c-0.1,0.5-0.5,0.8-0.5,0.8s0,0.7,0,1c0,0.3-0.5,0.2-0.5,0.2s-0.2,0.3-0.3,0.3c-0.1,0-0.3,0.2-0.4,0.2
	c-0.1,0-0.3,0.2-0.5,0.3c-0.2,0.1-1-0.2-1-0.2L37.6,36.7z"/>
<path class="st3" d="M38.4,20.6c-0.3,0-0.5-0.2-0.5-0.3c0-0.1,0.4-0.3,0.4-0.3s0.5-0.3,1-0.3c0.1,0,0.2,0,0.2,0
	c0.4,0,0.6-0.1,0.9,0.2l0.4,0.3l0.1,0h0c-0.1-0.1-0.1-0.2-0.1-0.2c0-0.1-0.1-0.2,0-0.3s0.3,0,0.3,0c0,0,0.1,0.2,0.3,0.3
	c0.2,0.1,0.1,0,0.3,0.6c0,0.1,0,0.2,0,0.3c0,0.3-0.4,0.3-0.8,0.5c-0.6,0.3-1.1,0-1.1,0S39,20.6,39,20.5c-0.1-0.1-0.1-0.1-0.2,0
	C38.7,20.6,38.7,20.6,38.4,20.6"/>
<path class="st2" d="M39.6,19.6c0,0,0-0.8,0.2-1c0.2-0.1,0.5-0.4,0.8-0.4c0.1,0,0.2,0,0.4,0c0.4,0.2,1.6,0.7,1.9,1.4
	c0.2,0.4,0.1,0.7,0,0.9c-0.1,0.1-0.2,0.2-0.2,0.2c-0.2,0.1-0.7,0.2-0.7,0.2l0,0c0-0.1,0-0.2,0-0.3c-0.1-0.6-0.1-0.5-0.3-0.6
	c-0.2-0.1-0.3-0.3-0.3-0.3c0,0-0.2-0.1-0.3,0c-0.1,0.1,0,0.2,0,0.3c0,0,0.1,0.1,0.1,0.2h0l-0.1,0l-0.4-0.3
	C40.2,19.6,39.9,19.7,39.6,19.6L39.6,19.6L39.6,19.6z"/>
<polygon class="st3" points="38.4,50.9 42.6,52.3 42.5,52.8 42.5,52.9 42.6,53 42.5,53.4 38.3,52 38.4,50.9 "/>
<path class="st3" d="M38.5,29.2c-0.2-0.2-1,0.1-1.1-0.2c-0.1-0.3-0.3-0.3-0.8-0.7c-0.5-0.4,0-0.9,0.2-0.9c0.1,0,0.1-0.1,0.1-0.1
	c0-0.1,0.1-0.2,0.3-0.4c0.2-0.2,0.1-0.2,0.2-0.7c0-0.6,0.3-0.7,0.3-0.7c-0.1-0.7,0.2-1.2,0.2-1.2c0-0.4,0.6-0.8,0.6-0.8
	c0.3-0.7,1-0.4,1-0.4c0.3-0.1,0.5-0.2,0.5-0.2s0.3,0,0.4,0c0.1,0,0.4-0.1,0.6-0.1c0,0,0.2,0,0.4,0.2c0,0,0.4,0,0.4,0.2
	c0.1,0.2,0.5,0.1,0.4,0.5c0,0,0.3,0.4,0.3,0.6c0,0.2,0.3,0.1,0.4,0.5c0,0,0,0.1,0,0.1c0,0,0.1,0.4,0.1,0.5c0.1,0.1,0,0.3,0,0.3
	c0,0,0.3,0.3,0.3,0.4c0,0.1-0.1,0.3-0.1,0.3s0.3,0.3,0.2,0.6c-0.1,0.3,0.2,0.6-0.2,0.8c-0.3,0.3-0.4,0.4-0.4,0.4
	c-0.1-0.1-0.4-0.1-0.4-0.1s-0.1,0-0.2-0.1c-0.1-0.1-0.2-0.2-0.2-0.2c0-0.1-0.2-0.1-0.1-0.8l-0.1-0.1c0.2-0.1,0.4-0.2,0.6-0.4
	c0.2-0.1,0-0.7,0-0.7c0-0.1-0.1-0.5-0.1-0.6c0-0.1-0.1-0.4-0.2-0.5c0-0.1,0-0.1-0.1-0.1c0,0-0.2-0.4-0.2-0.4c0-0.1,0-0.2-0.2-0.4
	c-0.2-0.1-0.5-0.2-0.5-0.3c-0.1,0-0.4-0.3-0.4-0.3c-0.8-0.2-1.3,0.1-1.4,0.2c-0.2,0.1-0.5,0.6-0.5,1c-0.1,0.4,0.2,0.6,0.3,0.8
	c0.1,0.2,0.3,0.5,0.3,0.8c0,0.2,0.1,0.7,0.2,1.1c0,0.1,0.1,0.2,0.1,0.4c0.1,0.3,0.1,0.7,0.1,0.8c-0.1,0.2-0.1,0.6-0.1,0.8
	c0,0.2-0.4,0.4-0.4,0.4C39.3,29.2,38.7,29.3,38.5,29.2"/>
<path class="st3" d="M31.1,17.9c-0.1-0.4,0.6-0.8,0.6-0.8c0-0.5,0.6-0.4,0.6-0.4c0-0.4,0.8-0.3,0.8-0.3c0.4-0.4,0.4-0.5,0.4-0.5
	c0.4-0.2,1.8-0.1,1.8-0.1c1-0.2,1.1,0.2,1.1,0.2c0.7,0.1,1,0.4,1,0.4c0.2-0.2,0.5,0.1,0.5,0.1c0.6,0.2,0.7,0.7,0.7,0.7
	c0.8,0.2,0.4,0.7,0.4,0.7c0.4,0.4,0,0.6,0,0.7c0,0.1,0,0.3-0.4,0.3c-0.1,0-0.3,0-0.4-0.1c-0.3-0.1-0.6-0.4-0.8-0.4
	C37,18.4,37,18.3,37,18.3c-0.2,0-0.1,0.1-0.2-0.1l-0.1,0c0,0,0,0.5-0.1,0.6C36.3,19,36.2,19,36.1,19c-0.1,0-0.4,0.3-0.6,0.4
	c-0.2,0.1-0.3,0.1-0.4,0.1c-0.1,0-0.3,0.4-0.5,0.3c0,0-0.2-0.2-0.3-0.1c-0.1,0.1-0.5,0.2-0.7,0.1c-0.2-0.1-0.6-0.2-0.7-0.4
	c0-0.1-0.4-0.2-0.6-0.4l-0.1,0c-0.2-0.3-0.4-0.6-0.7-0.8C31.4,18.1,31.2,18,31.1,17.9L31.1,17.9L31.1,17.9z"/>
<path class="st3" d="M33.1,25.7c0-0.4,0.2-0.8,0.3-0.9c0.2-0.3,0.7-0.3,0.7-0.3l0.5,0.1l0.4,0.1l0.3,0c0,0,0.7,0.1,0.8,0.1
	c0.1,0,0.7,0.1,0.7,0.1c0.1,0.2-0.3,0.3-0.3,0.3l-0.7,0.1l0.2,0.3c0.2,0.3-0.2,0.6-0.2,0.6c0.1,0.6-0.3,0.8-0.3,0.8
	c-0.6,0.4-1.2,0.1-1.7-0.2c-0.1-0.1-0.2-0.1-0.3-0.2C33,26.5,33.1,26.1,33.1,25.7"/>
<path class="st2" d="M33.4,41.5L33.4,41.5c0.4,0,0.9-0.2,1.5-0.5c0,0,0.4-0.3,0.7-0.8h0l0,0c1.4-0.2,1.7-1.9,1.7-2.5l-0.1,0.8
	c0,0-0.3,1.2-0.3,1.1c-0.1,0.5-0.1,0.5-0.5,1.6c-0.1,0.3-0.6,1.4-0.7,1.6l-1.4,1.4l-0.1-0.1c-0.3-0.8-0.2-0.7-0.3-1
	C34,42.8,33.4,41.6,33.4,41.5L33.4,41.5z"/>
<path class="st2" d="M30.7,25.6c-0.2-0.3,0-0.7,0-0.7l0-0.1l0.8-0.4c0,0,1.3-0.4,1.9-0.7l0.2,0.1c0,0,0.8,0.6,0.9,0.9l0,0.1
	l-0.5-0.1c0,0-0.5,0.2-0.7,0.3c-0.1,0.2-0.3,0.5-0.3,0.9c0,0.4-0.1,0.8,0.3,1c0.1,0,0.2,0.1,0.3,0.2l0,0c0,0-1.2,0-1.3-0.1
	C31.1,26.8,30.7,25.6,30.7,25.6"/>
<path class="st3" d="M31.9,21.7c0.2-0.3,0.3-0.6,0.5-0.9c0.2-0.5,0.1-1.1-0.1-1.7l0.1,0c0.2,0.2,0.6,0.3,0.6,0.4
	c0.1,0.2,0.4,0.2,0.7,0.4c0.2,0.1,0.6,0,0.7-0.1c0.1-0.1,0.3,0.1,0.3,0.1c0.2,0.2,0.4-0.3,0.5-0.3c0.1,0,0.2,0,0.4-0.1
	c0.2-0.1,0.5-0.4,0.6-0.4c0.1,0,0.2,0,0.4-0.2c0.2-0.2,0.2-0.6,0.2-0.6l0.1-0.1c0,0,0.1,0.2,0.3,0.2c0,0-0.1,0.1,0.2,0.2
	c0.2,0,0.5,0.3,0.8,0.4l0,0c0,0-0.1,0.1-0.2,0.3c-0.1,0.2-0.5,1.2-0.6,1.6c-0.1,0.5-0.4,0.1-0.4,0.1c0,0-0.1,0.2-0.2,0.2
	c-0.1,0.1-0.3,0.1-0.3,0.1s-0.1,0.2-0.2,0.2c-0.1,0-0.2,0.2-0.2,0.2s0,0.2-0.2,0.2c-0.2,0-0.7-0.3-0.7-0.3l-0.8-0.4l-0.1-0.1l-2,0.5
	L31.9,21.7z"/>
<path class="st2" d="M24.8,37.6c-0.3-0.2-0.1-0.5-0.2-1.2c0-0.8,1.3-1.1,1.6-1.1c0.3,0,1.7-0.4,1.7-0.4l1.3-0.6l0,0
	c0,0,0.1,0.1,0.1,0.1c0.1,0.1,0.3,0.3,0.4,0.4c0.1,0.1,0.4,0.1,0.5,0.1c0.1,0,0.4-0.2,0.4-0.2c0.1-0.1,0.1-0.2,0.1-0.4
	c0-0.1,0.1-0.5,0.1-0.6c0-0.1,0.1-0.4,0.1-0.4v0c0.1-0.1,0.3-0.2,0.4-0.2c0.1,0,0.2-0.1,0.2-0.1c0.1,0,0.3,0.1,0.3,0.1
	s0.4,0.1,0.8,0c0.2-0.1,0.2-0.1,0.2-0.2l0,0c0,0,1.5,0.4,2.2,0.8c0,0,0,0,0,0v0l0,0c0,0,0.4,0.2,0.6,0.9c0,0.1,0.1,0.2,0.2,0.3
	c0.1,0.1,0,0.1,0.1,0.2c0.2,0.2,0.4,0.4,0.5,0.5c0.1,0.2,0.2,0.5,0.3,0.5l0,0c0.1,0.5,0.2,1.1,0.2,1.1l0.1,0.6v0
	c0,0.6-0.3,2.3-1.7,2.5l0,0h0c-0.3,0.5-0.7,0.8-0.7,0.8c-0.6,0.4-1.1,0.5-1.5,0.5c-0.9,0-1.3-0.5-1.3-0.5l-0.2,0
	c0.2-0.4,0.5-1,0.5-1.3c0,0,1-0.1,1-0.6c0-0.5,0.4-1.2-2.5-2.2c0,0-0.8,0.6-1.3,1.4c-0.2,0.4-0.4,1-0.6,1.6l-0.1,0
	c-0.6-0.4-2-1.8-2.6-2.5v0l0,0c0,0-0.5,0.3-1,0.6l0,0C25.3,37.9,25.1,37.8,24.8,37.6"/>
<path class="st3" d="M28.9,41.9c0-0.8,0.1-1.4,0.2-2c0.2-0.6,0.4-1.1,0.6-1.6c0.4-0.9,1.3-1.4,1.3-1.4c2.9,1,2.5,1.8,2.5,2.2
	c0,0.5-1,0.6-1,0.6c0,0.3-0.3,0.9-0.5,1.3c-0.1,0.2-0.2,0.3-0.2,0.3l-0.4,0.8c0,0-0.6,1.3-0.6,1.6c0,0.3,0.4,0.3,0.6,0.4
	c0.2,0,0.7,0.4,0.8,0.4c0.1,0.1,0.4,0.4,0.4,0.4c0,0.1,0.2,0.2,0.2,0.2c0.1,0.1,0.4,0.3,0.4,0.3s0.6,0.7,0.7,0.8
	c0.1,0.1,0.1,0.2,0.1,0.2c0,0.1-0.2,0.1-0.2,0.1L32.8,46l-0.6-0.2c0.3,0.2,0.5,0.8,0.5,0.8s0.2,0.5,0.3,0.7c0.1,0.2,0,0.3-0.1,0.3
	c-0.1,0-0.3-0.1-0.3-0.1l-0.3-0.6L31.7,46l0.1,0.4l0.1,0.3l0.2,0.6c0,0,0.1,0.4,0.1,0.5c0,0.1,0,0.2-0.1,0.2c-0.1,0.1-0.3,0-0.3,0
	l-0.6-1.3c0,0,0,0.1,0,0.3c0,0.2-0.4,0.3-0.5,0.4c-0.1,0-0.2,0.1-0.3,0.2c-0.1,0.1-0.1,0-0.1,0c-0.2-0.1-0.1-0.3-0.1-0.3
	c0,0,0.3-0.2,0.3-0.2c0.1-0.1-0.1-0.4-0.1-0.4c0-0.1-0.4-0.3-0.5-0.4c0,0-0.5-0.4-0.5-0.4c-0.4-0.3-0.5-1.1-0.6-2v0
	C28.9,43.1,28.9,42.5,28.9,41.9"/>
<path class="st2" d="M29.5,25.3c-0.1-0.2,0-0.2,0-0.2c0.5-0.4,0.7-1.5,0.9-1.9c0.2-0.5,0.5-0.5,0.8-0.7c0.2-0.1,0.5-0.4,0.7-0.7
	l0.1,0.1l2-0.5l0.1,0.1l0,0c0,0,0.1,0.8-0.3,1.3h0l0.1,0c0,0,0,0.5,0,0.7c0,0-0.2,0.1-0.4,0.3h0c-0.7,0.3-1.9,0.7-1.9,0.7l-0.8,0.4
	L29.5,25.3L29.5,25.3z"/>
<path class="st3" d="M24.9,21.5c-0.7-0.8-0.2-1.6,0.8-2.6c0.8-0.9,3.4-1.2,4-1.2l0,0c0.3,0,0.8,0.1,1.4,0.3c0.2,0.1,0.3,0.2,0.5,0.3
	c0.3,0.2,0.5,0.5,0.7,0.8c0.3,0.6,0.3,1.2,0.1,1.7c-0.1,0.3-0.3,0.6-0.5,0.9c-0.3,0.4-0.6,0.7-0.7,0.7c-0.3,0.1-0.6,0.2-0.8,0.7
	c-0.2,0.5-0.4,1.5-0.9,1.9c0,0-0.1,0,0,0.2c0,0.1,0,0.1,0.1,0.2c0.2,0.4,0.8,1.6,0.8,2.5c0,0.9,0.1,1.7,0.4,2.4
	c0.2,0.7,0.6,1.5,0.8,1.5s0.5,0.1,0.6,0.2c0.1,0.1,0.6,0.3,0.7,0.4c0.1,0,0.3,0.1,0.3,0.2c0,0.1,0,0.1-0.2,0.2c-0.4,0.1-0.8,0-0.8,0
	s-0.2-0.1-0.3-0.1c-0.1,0-0.2,0.1-0.2,0.1c-0.1,0-0.3,0.1-0.4,0.2c0,0,0,0,0,0c0,0.1-0.1,0.3-0.2,0.4c0,0.1-0.1,0.5-0.1,0.6
	c0,0.1,0,0.3-0.1,0.4c0,0-0.3,0.2-0.4,0.2c-0.1,0-0.4,0-0.5-0.1c-0.1-0.1-0.3-0.3-0.4-0.4c0,0-0.1-0.1-0.1-0.1
	c-0.1-0.2-0.2-0.4-0.2-0.8c0.1-0.5,0.3-0.8,0.4-0.9c0-0.1-0.5-1.4-0.5-1.4s-0.8-1.1-0.9-1.3c-0.1-0.2-0.5-0.7-0.8-1.8
	c-0.1-0.4-0.2-0.8-0.2-1.4c0,0-0.1-0.3-0.1-0.9c0-0.1,0-0.3,0-0.4c0.1-0.9,0.1-2,0.1-2.2c0-0.1,0-0.2,0-0.3l-0.1,0
	C26.3,23,25.6,22.3,24.9,21.5"/>
<path class="st2" d="M21.9,37.4c0-0.1,0.1-0.4,0.1-0.9c0.2-0.7,0.4-1.6,0.4-1.9c0-0.5-0.4-2.6-0.4-4c0-1.4,0.9-2.3,0.9-2.3l0,0
	c2.2,0.1,4.3-0.2,4.3-0.2l0,0c0.3,1.1,0.7,1.6,0.8,1.8c0.1,0.3,0.9,1.3,0.9,1.3s0.5,1.3,0.5,1.4c0,0.1-0.3,0.5-0.4,0.9
	c-0.1,0.4,0.1,0.6,0.2,0.8l0,0L28,34.9c0,0-1.4,0.3-1.7,0.4c-0.3,0-1.7,0.3-1.6,1.1c0,0.8-0.1,1,0.2,1.2c0.3,0.2,0.5,0.3,0.5,0.3
	l0,0c-0.2,0.2-0.5,0.3-0.6,0.5c-0.3,0.4-0.6,0.8-0.7,1.2l-0.1,0c0,0-0.9-0.6-1.1-0.6c-0.1,0-0.3,0-0.6-0.1l0-0.1v0
	C22,38.3,22,37.6,21.9,37.4"/>
<path class="st2" d="M19.8,27.6c-0.8-1.2-0.3-1.7-0.2-1.7c0.3,0.3,0.7,0.6,1.2,0.5c0.9-0.1,1.8-0.4,2.2-0.1c0.4,0.3,1.2,1.1,2.1,0.5
	c0.6-0.4,1.2-0.8,1.5-1c0.1-0.1,0.2-0.1,0.2-0.1l0.1,0c0,0.6,0.1,0.9,0.1,0.9c0,0.6,0.1,1,0.2,1.4l0,0c0,0-2.1,0.3-4.3,0.2
	c-0.6,0-1.2-0.1-1.7-0.2c-0.3-0.1-0.6-0.1-0.9-0.2v0C20.1,27.7,20,27.7,19.8,27.6"/>
<path class="st2" d="M19.1,25.4c-0.2-0.2-0.4-1-0.1-1.2c0.2-0.2,0.9-1,0.9-1c1-1.8,2-2,2-2l0.1,0c-0.1,0.7-0.2,1.7-0.2,1.8
	c0,0.2,0.6,1.1,0.9,1.3c0.3,0.2,0.9,0.4,1.2,0.4c0.3,0,1.4,0.5,1.7,0.6l1.2,0.4l0,0.1c-0.3,0.2-0.9,0.6-1.5,1
	c-0.9,0.6-1.6-0.2-2.1-0.5c-0.4-0.3-1.4,0-2.2,0.1c-0.5,0.1-0.9-0.2-1.2-0.5C19.4,25.7,19.2,25.5,19.1,25.4"/>
<path class="st2" d="M21.2,42.2c-1.5,0-1-1.5-0.9-2.1c0.1-0.6,1.1-1.1,1.4-1.2c0.2,0,0.5,0,0.8,0.1c0.3,0,0.5,0.1,0.6,0.1
	c0.1,0,1.1,0.6,1.1,0.6l0.1,0c0,0.1,0,0.1,0,0.2c0,0.4,0.3,0.8,0.5,0.9l0,0c-0.4,0-0.9,0-1,0c-0.2,0-1.3,0.6-1.5,0.8
	c0,0-0.1,0.1-0.1,0.1C21.7,41.9,21.2,42.2,21.2,42.2"/>
<path class="st3" d="M22.8,50.6c0-0.1-0.6-1.1-0.7-1.4c0-0.3,0.4-1.4,0.6-1.9c0.2-0.5,0.2-1,0.2-1.3c0-0.3,0.3-0.5,0.3-0.5l0-0.1
	c0,0,0,0,0.1,0.1c1.1,0.9,2,2,3.3,2.6c1.3,0.6,4.1,1.7,4.4,1.8c0.1,0,0.2,0.1,0.3,0.1l0,0l0.6,0.1c2.5,0.1,2.6-1,3.1-2
	c0.1-0.1,0.1-0.2,0.1-0.4l0.1,0c0,0,0.3,0.4,0.6,0.9c0.3,0.5,0.1,1.5,0.1,1.9c0,0.4-0.3,0.4-0.8,1c-0.5,0.6-1.6,0.4-2.2,0.2
	c-0.5-0.1-1.8-0.4-2.5-0.5c-0.7-0.1-2.1-0.9-2.5-1.1c-0.3-0.2-2-1.5-2.2-1.7c-0.2-0.2-0.6-0.3-0.8-0.3c-0.2,0-1.4,0.8-1.5,0.9
	c-0.1,0.1-0.3,0.2-0.3,0.3c-0.1,0.1,0,0.2,0.1,0.3c0.1,0.1,0.2,0.1,0.3,0.2c0.1,0,0.3,0.1,0.4,0.1c0.1,0-0.2,0.4-0.3,0.4
	c-0.1,0-0.1,0.1-0.1,0.2c0,0.1-0.2,0.1-0.2,0.1c-0.1,0-0.3,0-0.3,0c-0.1,0-0.3,0-0.3,0C22.9,50.8,22.8,50.7,22.8,50.6"/>
<path class="st2" d="M21.7,23c0-0.2,0.1-1.1,0.2-1.8c0-0.2,0.1-0.3,0.1-0.4c0.2-0.7,0.7-0.9,1.1-1.1c0.4-0.2,0.8-1.1,1.3-1.4
	c0.4-0.3,1.6-0.5,2.5-0.7c0.9-0.2,2.6,0,2.6,0s0.1,0,0.1,0l0,0c-0.6,0-3.1,0.3-4,1.2c-0.9,1-1.5,1.8-0.8,2.6
	c0.7,0.8,1.4,1.6,2.1,1.3l0.1,0c0,0.1,0,0.2,0,0.3c0,0.2,0,1.3-0.1,2.2c0,0.2,0,0.3,0,0.4l-0.1,0c0,0-0.1,0-0.2,0.1l0-0.1l-1.2-0.4
	c-0.2-0.1-1.4-0.5-1.7-0.6c-0.3,0-0.9-0.3-1.2-0.4C22.3,24.1,21.7,23.3,21.7,23"/>
<path class="st2" d="M22.7,43c0.4,0.4,1.4,1.1,2.7,1.1c1.4,0.1,2.8,0.3,3.6-0.5c0.1,0.9,0.2,1.7,0.6,2c0,0,0.4,0.4,0.5,0.4
	c0.1,0,0.4,0.3,0.5,0.4c0,0.1,0.1,0.4,0.1,0.4c-0.1,0.1-0.3,0.2-0.3,0.2c0,0-0.1,0.3,0.1,0.3c0,0,0.1,0.1,0.2,0
	c0.1-0.1,0.2-0.1,0.3-0.2c0.1,0,0.5-0.2,0.5-0.4c0-0.2,0-0.3,0-0.3l0.6,1.3c0,0,0.2,0.1,0.3,0c0.1,0,0.1-0.1,0.1-0.2
	c0-0.1-0.2-0.5-0.2-0.5L32,46.7l-0.1-0.3L31.7,46l0.6,0.9l0.3,0.6c0,0,0.2,0.2,0.3,0.1c0.1,0,0.2-0.1,0.1-0.3
	c-0.1-0.2-0.3-0.7-0.3-0.7s-0.3-0.6-0.5-0.8l0.6,0.2l0.8,0.5c0,0,0.1,0,0.2-0.1c0-0.1,0-0.2-0.1-0.2c-0.1-0.1-0.7-0.8-0.7-0.8
	s-0.3-0.2-0.4-0.3c0,0-0.1-0.1-0.2-0.2c0-0.1-0.4-0.4-0.4-0.4c-0.1-0.1-0.6-0.4-0.8-0.4c-0.2,0-0.6-0.1-0.6-0.4
	c0-0.3,0.6-1.6,0.6-1.6l0.4-0.8c0,0,0.1-0.1,0.2-0.3l0.2,0c0,0,0.4,0.5,1.3,0.5l0,0.1c0,0,0.6,1.2,0.7,1.6c0,0.3,0.4,1.3,0.6,2.2
	c0.2,0.5,0.3,1,0.4,1.1c0.1,0.2,0.4,0.6,0.3,1.3c0,0,0,0.1,0,0.1c0,0.1-0.1,0.2-0.1,0.4c-0.5,1-0.6,2.1-3.1,2l-0.6-0.1l0,0
	c-0.2-0.1-0.3-0.1-0.3-0.1c-0.3-0.1-3.1-1.2-4.4-1.8c-1.3-0.6-2.2-1.7-3.3-2.6c0,0,0,0-0.1-0.1C22.3,44.6,22.6,43,22.7,43L22.7,43
	L22.7,43z"/>
<path class="st2" d="M19.2,38.2c-0.5,0-0.4-0.3-0.4-0.3c0.1-0.1,0.2-0.4,0.2-0.5c1.1-1.5,0.8-4.1,0.8-6.1c0-2.1,1.3-3.3,1.3-3.3l0,0
	c0.6,0.1,1.1,0.2,1.7,0.2l0,0c0,0-0.9,0.9-0.9,2.3c0,1.4,0.4,3.5,0.4,4c0,0.3-0.2,1.2-0.4,1.9l-0.2,0.8l0.2,1.2c0,0,0.2,0.5-0.6,0.4
	c-0.4,0.2-1.1,0-1.3-0.3C19.9,38.3,19.8,38.2,19.2,38.2"/>
<path class="st2" d="M22.6,42.9c-0.3-0.4-0.4-1.2-0.4-1.2l-0.2,0c0,0,0.1-0.1,0.1-0.1c0.2-0.2,1.3-0.9,1.5-0.8c0.1,0,0.6,0,1,0l0,0
	c-0.2-0.1-0.5-0.5-0.5-0.9c0-0.1,0-0.1,0-0.2c0.1-0.4,0.4-0.8,0.7-1.2c0.1-0.2,0.3-0.3,0.6-0.5c0.5-0.3,1-0.6,1-0.6l0,0
	c0.6,0.7,2,2.1,2.6,2.5l0.1,0c-0.2,0.6-0.2,1.3-0.2,2c0,0.6,0,1.2,0.1,1.8v0c-0.8,0.8-2.3,0.6-3.6,0.5c-1.2-0.1-2.3-0.7-2.7-1.1
	C22.6,43,22.6,42.9,22.6,42.9"/>
<path class="st2" d="M17.7,37.8c0,0-0.3,0-0.2-0.1c0.1-0.1,0.5-0.7,0.5-0.8c0-0.1,0.2-0.5,0.3-0.8c0.2-0.4,0.3-0.9,0.3-0.9
	c0.3-0.7,0.3-1.1,0.3-1.1l0.2-3.1c0-1.8,1.1-3.1,1.1-3.1l0-0.1c0.3,0.1,0.6,0.2,0.9,0.2l0,0c0,0-1.3,1.2-1.3,3.3
	c0,2,0.5,3.8-0.3,5.2l-0.3,0.6c0,0-0.4,1-0.4,1c0,0-0.3-0.2-0.6-0.1C18.1,38.1,17.7,37.9,17.7,37.8"/>
<path class="st2" d="M16.4,36.8c-0.6-0.3,0.4-1.2,0.4-1.2l0.8-1.1c0,0,0.6-0.8,0.8-1.6c0.2-0.3,0.3-2.4,0.3-2.4c0.3-2.4,1.2-3,1.2-3
	c0.1,0.1,0.3,0.1,0.5,0.2v0l0,0.1c0,0-1.1,1.3-1.1,3.1l-0.2,3.1c0,0-0.1,0.3-0.3,1.1c0,0-0.1,0.5-0.3,0.9l-0.8,1.5
	c0,0-0.4-0.3-0.6-0.4C16.6,37.3,16.4,36.8,16.4,36.8"/>
<path class="st5" d="M21.2,28c0,0-1.3,0.9-1.3,3c0,2,0.3,4.7-0.5,6.1c-0.1,0.1-0.1,0.2-0.2,0.3c0,0-0.6,0.7-0.1,0.8
	c0.5,0,0.8,0,1.1,0.3c0.1,0.1,0.2,0.2,0.4,0.3c0,0,0.5,0.1,1.1,0 M22.9,28.2c0,0-0.9,0.9-0.9,2.3c0,1.4,0.4,3.5,0.4,4
	c0,0.3-0.1,1-0.3,1.8c-0.1,0.4-0.3,1.4,0.1,2.5 M19.6,25.9C19.6,25.9,19.6,25.9,19.6,25.9c-0.1,0.1-0.6,0.5,0.2,1.7 M26.8,25.7
	c0,0-0.1,0-0.2,0.1c-0.3,0.2-0.9,0.6-1.5,1c-0.9,0.6-1.6-0.2-2.1-0.5c-0.4-0.3-1.4,0-2.2,0.1c-0.5,0.1-0.9-0.2-1.2-0.5
	c-0.2-0.2-0.4-0.4-0.5-0.5c-0.2-0.2-0.4-1-0.1-1.2c0.2-0.2,0.9-1,0.9-1c1-1.8,2-2,2-2 M31.2,33.2c0,0.1-0.1,0.3-0.2,0.4
	c0,0.1-0.1,0.5-0.1,0.6c0,0.1,0,0.3-0.1,0.4c0,0-0.3,0.2-0.4,0.2c-0.1,0-0.4,0-0.5-0.1c-0.1-0.1-0.3-0.3-0.4-0.4
	c0,0-0.1-0.1-0.1-0.1c-0.1-0.2-0.2-0.4-0.2-0.8c0.1-0.5,0.3-0.8,0.4-0.9c0-0.1-0.5-1.4-0.5-1.4s-0.8-1.1-0.9-1.3
	c-0.1-0.2-0.5-0.7-0.8-1.8c-0.1-0.4-0.2-0.8-0.2-1.4c0,0-0.1-0.3-0.1-0.9c0-0.1,0-0.3,0-0.4c0.1-0.9,0.1-2,0.1-2.2
	c0-0.1,0-0.2,0-0.3c0.1-0.4,0.2-1.1,0.4-1.6c0.3-0.7,1.2-2.3,1.2-2.3 M31.2,33.2C31.2,33.2,31.2,33.2,31.2,33.2 M26.6,25.7l-1.2-0.4
	c-0.2-0.1-1.4-0.5-1.7-0.6c-0.3,0-0.9-0.3-1.2-0.4c-0.3-0.2-0.9-1.1-0.9-1.3c0-0.2,0.1-1.1,0.2-1.8c0-0.2,0.1-0.3,0.1-0.4
	c0.2-0.7,0.7-0.9,1.1-1.1c0.4-0.2,0.8-1.1,1.3-1.4c0.4-0.3,1.6-0.5,2.5-0.7c0.9-0.2,2.6,0,2.6,0s0.1,0,0.1,0c0.3,0,0.8,0.1,1.4,0.3
	c0.2,0.1,0.3,0.2,0.5,0.3c0.3,0.2,0.5,0.5,0.7,0.8c0.3,0.6,0.3,1.2,0.1,1.7c-0.1,0.3-0.3,0.6-0.5,0.9c-0.3,0.4-0.6,0.7-0.7,0.7
	c-0.3,0.2-0.6,0.2-0.8,0.7c-0.2,0.5-0.4,1.5-0.9,1.9c0,0-0.1,0,0,0.2c0,0.1,0,0.1,0.1,0.2c0.2,0.4,0.8,1.6,0.8,2.5
	c0,0.9,0.1,1.7,0.4,2.4c0.2,0.7,0.6,1.5,0.8,1.5c0.2,0,0.5,0.1,0.6,0.2c0.1,0.1,0.6,0.3,0.7,0.4c0.1,0,0.3,0.1,0.3,0.2
	c0,0.1,0,0.1-0.2,0.2c-0.4,0.1-0.8,0-0.8,0s-0.2-0.1-0.3-0.1c-0.1,0-0.2,0.1-0.2,0.1c-0.1,0-0.3,0.1-0.4,0.2c0,0,0,0,0,0
	c0,0,0,0,0,0 M27,22.8c-0.7,0.3-1.4-0.5-2.1-1.3c-0.7-0.8-0.2-1.6,0.8-2.6c0.8-0.9,3.4-1.2,4-1.2 M29.5,25.3l1.1-0.5l0.8-0.4
	c0,0,1.3-0.4,1.9-0.7c0.2-0.1,0.4-0.2,0.4-0.3c0.1-0.2,0-0.7,0-0.7 M34.2,21.3c0,0,0.1,0.8-0.3,1.3c-0.1,0.1-0.1,0.2-0.2,0.2
	l-0.7,0.5 M36.9,21c0,0,0.3,0.4,0.4-0.1c0.1-0.5,0.5-1.4,0.6-1.6C37.9,19.1,38,19,38,19 M32,21.7l2-0.5l0.1,0.1l0.8,0.4
	c0,0,0.5,0.3,0.7,0.3c0.2,0,0.2-0.1,0.2-0.2s0.1-0.2,0.2-0.2c0.1,0,0.2-0.2,0.2-0.2s0.3,0,0.3-0.1c0.1-0.1,0.2-0.2,0.2-0.2v0
	 M31.1,17.9c-0.1-0.3,0.2-0.6,0.4-0.7c0,0,0.2-0.1,0.2-0.1c0,0,0,0,0-0.1c0-0.5,1.4-0.7,1.4-0.7c0-0.9,2.2-0.5,2.2-0.5
	c1-0.2,2,0.6,2,0.6c0.8-0.2,1.2,0.8,1.2,0.8c0.8,0.2,0.4,1.3,0.4,1.4c0,0.1,0,0.3-0.4,0.3c-0.1,0-0.3,0-0.4-0.1
	c-0.3-0.1-0.4-0.1-0.8-0.4l-0.6-0.4c0,0,0,0.5-0.1,0.6C36.3,19,36.2,19,36.1,19c-0.1,0-0.4,0.3-0.6,0.4c-0.2,0.1-0.5,0.4-0.9,0.4
	c0,0-0.8,0.2-1.1,0c-0.2-0.1-0.8,0.1-0.8-0.1c0-0.1-0.2-0.3-0.4-0.5 M36,21l0.3,0.3 M30.7,24.7c0,0-0.2,0.6,0,0.8
	c0,0,0.4,1.2,1.7,1.3c0.1,0,1.3,0.1,1.3,0.1 M33.6,23.6c0,0,0.8,0.6,0.9,0.9 M29.3,34.3L28,34.9c0,0-1.4,0.3-1.7,0.4
	c-0.3,0-1.6,0.3-1.6,1.1c0,0.8-0.1,1,0.2,1.2c0.3,0.2,0.5,0.3,0.5,0.3 M26.3,37.4c0,0-0.5,0.3-1,0.6c-0.2,0.2-0.5,0.3-0.6,0.5
	c-0.3,0.4-0.6,0.8-0.7,1.2c0,0.1,0,0.1,0,0.2c0,0.4,0.3,0.8,0.5,0.9 M24,39.6c0,0-0.9-0.6-1.1-0.6c-0.1,0-0.3,0-0.6-0.1
	c-0.3,0-0.6-0.1-0.8-0.1c-0.3,0-1.3,0.6-1.4,1.2s-0.5,2.2,0.9,2.1c0,0,0.6-0.3,0.8-0.5c0,0,0.1-0.1,0.1-0.1c0.2-0.2,1.3-0.9,1.5-0.8
	c0.1,0,0.6,0,1,0c0.3,0,0.5,0.1,0.6,0.2c0.2,0.2,0.3,1,0.4,1.1c0.1,0.1,1,0.8,1,0.8 M31.7,46L31.7,46l0.6,0.9l0.3,0.6
	c0,0,0.2,0.2,0.3,0.1c0.1,0,0.2-0.1,0.1-0.3c-0.1-0.2-0.3-0.7-0.3-0.7s-0.3-0.6-0.5-0.8l0.6,0.2l0.8,0.5c0,0,0.1,0,0.2-0.1
	c0-0.1,0-0.2-0.1-0.2c-0.1-0.1-0.7-0.8-0.7-0.8s-0.3-0.2-0.4-0.3c0,0-0.1-0.1-0.2-0.2c0-0.1-0.4-0.4-0.4-0.4
	c-0.1-0.1-0.6-0.4-0.8-0.4c-0.2,0-0.6-0.1-0.6-0.4c0-0.3,0.6-1.6,0.6-1.6l0.4-0.8c0,0,0.1-0.1,0.2-0.3c0.2-0.4,0.5-1,0.5-1.3
	c0,0,1-0.1,1-0.6c0-0.5,0.4-1.2-2.5-2.2c0,0-0.9,0.6-1.3,1.4c-0.2,0.4-0.4,1-0.6,1.6c-0.2,0.6-0.2,1.3-0.2,2c0,0.6,0,1.2,0.1,1.8
	 M31.3,46.6L31.3,46.6l0.6,1.3c0,0,0.2,0.1,0.3,0c0.1,0,0.1-0.1,0.1-0.2c0-0.1-0.1-0.5-0.1-0.5L32,46.7l-0.1-0.3L31.7,46 M29,43.7
	c0.1,0.9,0.2,1.7,0.6,2c0,0,0.4,0.4,0.5,0.4c0.1,0,0.4,0.3,0.5,0.4c0,0.1,0.1,0.4,0.1,0.4c-0.1,0.1-0.3,0.2-0.3,0.2
	c0,0-0.1,0.3,0.1,0.4c0,0,0.1,0.1,0.2,0c0.1-0.1,0.2-0.1,0.3-0.2c0.1,0,0.5-0.2,0.5-0.4c0-0.2,0-0.3,0-0.3 M26.1,37
	c0,0,0.1,0.1,0.3,0.3c0.6,0.7,2,2.1,2.6,2.5 M22.2,41.7c0,0,0.1,0.9,0.4,1.2c0,0,0.1,0.1,0.1,0.1c0.4,0.4,1.4,1.1,2.7,1.1
	c1.4,0.1,2.8,0.3,3.6-0.5v0c0,0,0,0,0,0 M22.6,43c0,0-0.4,1.5,0.7,2.5c0,0,0,0,0.1,0.1c1.1,0.9,2,2,3.3,2.6c1.3,0.6,4.1,1.7,4.4,1.8
	c0.1,0,0.2,0.1,0.3,0.1c0.6,0.2,1.6,0.7,1.7,0.8 M23.2,45.6c0,0-0.2,0.2-0.3,0.5c0,0.3,0,0.8-0.2,1.3c-0.2,0.5-0.7,1.6-0.6,1.9
	c0,0.3,0.6,1.3,0.7,1.4c0,0.1,0.2,0.2,0.2,0.2c0,0,0.3,0,0.3,0c0.1,0,0.2,0,0.3,0c0.1,0,0.2-0.1,0.2-0.1c0-0.1,0-0.2,0.1-0.2
	c0.1,0,0.4-0.4,0.3-0.4c-0.1,0-0.3-0.1-0.4-0.1c-0.1,0-0.2,0-0.3-0.2c-0.1-0.1-0.1-0.2-0.1-0.3c0.1-0.1,0.2-0.3,0.3-0.3
	c0.1-0.1,1.3-0.9,1.5-0.9c0.2,0,0.6,0.1,0.8,0.3c0.2,0.2,1.8,1.5,2.2,1.7c0.4,0.2,1.8,1,2.5,1.1c0.7,0.1,1.9,0.3,2.5,0.5
	c0.5,0.1,1.7,0.4,2.2-0.2c0.5-0.6,0.7-0.6,0.8-1c0-0.4,0.2-1.4-0.1-1.9c-0.3-0.5-0.6-0.9-0.6-0.9 M33.1,32.8c0,0,1.5,0.4,2.2,0.8
	c0,0,0,0,0,0c0.1,0.1,0.1,0.1,0.2,0.2 M33.4,41.6c0,0,0.6,1.2,0.7,1.6c0,0.3,0.4,1.3,0.6,2.2c0.2,0.5,0.3,1,0.4,1.1
	c0.1,0.2,0.4,0.6,0.3,1.3c0,0,0,0.1,0,0.1c0,0.1-0.1,0.2-0.1,0.4c-0.5,1-0.6,2.1-3.1,2l-0.6-0.1 M35.6,40.2c1.4-0.2,1.7-2,1.7-2.5
	c0-0.1-0.1-0.6-0.1-0.6s-0.1-0.5-0.2-1c-0.1-0.3-1.5-2.3-1.5-2.3 M35.3,33.6c0,0-0.2-0.9,0.2-1.1c0,0,0,0,0.1,0
	c0.1-0.1,0.2-0.2,0.3-0.3c0.1-0.1,0.4-0.5,0.6-0.5c0.2,0,0.3-0.2,0.5-0.3c0.1-0.1,0.5-0.6,1-0.5c0.6,0.1,1.8,0.1,2,0.3
	c0.2,0.1,0.9,0.6,1,0.7c0,0,0.1,0,0.3,0c0.2,0,0.5,0.1,0.6,0.5c0,0,0.3,0.2,0,0.7c0,0,0.6,0.3,0.7,0.6c0.1,0.3,0.2,0.9-0.3,1
	c0,0-0.6,0.1-0.7,0.1c0,0,0-0.3-0.2-0.3c-0.1,0-0.3,0-0.4,0.1c-0.1,0.1-0.6,0.4-0.8,0.5c-0.1,0-0.4,0.1-0.4,0.2
	c0,0.1-0.1,0.3-0.7,0.6c0,0-1.9,0.4-1.9,0.4 M37.5,36.2c0,0,0.2,0.4,0.4,0.6c0.2,0.2,0.9,0.6,1.4,0.4c0.2-0.1,0.2-0.2,0.4-0.2
	c0.1,0,0.3-0.2,0.4-0.2c0.1,0,0.3-0.3,0.3-0.3s0.5,0.1,0.5-0.2c0-0.3,0-1,0-1s0.4-0.2,0.5-0.8 M39.8,36.8l-0.2-0.2 M40.4,36.5
	c0,0-0.4-0.1-0.3-0.2 M32.1,41c0,0,0.4,0.5,1.3,0.5v0c1.1-0.2,1.9-0.8,2.2-1.3c0.4-0.8,0.8-2-0.5-3.6 M41.9,26.9
	c0,0.7,0.3,0.9,0.4,1c0.1,0.1,0.1,0.2,0.1,0.2s0.2,0,0.5-0.1c0.2-0.1,0.5-0.3,0.5-0.3c0.4-0.3,0.1-0.6,0.2-0.8
	c0.1-0.3-0.2-0.6-0.2-0.6s0.1,0,0.1-0.1c0-0.1-0.3-0.3-0.3-0.4c0,0,0-0.2,0-0.3C43,25.4,43,25,43,25c0,0-0.1-0.3-0.1-0.4
	c-0.1-0.4-0.3-0.4-0.3-0.4c0-0.2-0.3-0.4-0.3-0.4c0.1-0.4-0.4-0.4-0.4-0.6c-0.1-0.2-0.4-0.4-0.4-0.4c-0.2-0.3-0.6-0.3-0.6-0.3
	c-0.2,0-0.9,0.2-0.9,0.2s-0.3-0.1-0.6,0.1c0,0-0.7-0.2-1,0.5c0,0-0.4,0.2-0.5,0.5c0,0-0.5,1.5-0.6,2.1c-0.1,0.6,0,0.4-0.1,0.6
	c-0.1,0.3-1.2,1.2-0.6,1.6c0.5,0.4,0.7,0.5,0.8,0.7c0.1,0.3,1.7,0.5,2,0.3c0.3-0.2,0.5-1.3,0.5-1.3c0-0.3,0-0.5-0.1-0.8
	c0-0.1-0.1-0.3-0.1-0.4c-0.2-0.4-0.2-0.8-0.2-1.1c0-0.2-0.1-0.6-0.3-0.8c-0.1-0.2-0.4-0.4-0.3-0.8c0.1-0.4,0.4-0.9,0.5-1
	c0.2-0.1,0.6-0.4,1.4-0.2c0,0,0.3,0.3,0.4,0.3c0.1,0,0.3,0.2,0.5,0.3c0.2,0.2,0.2,0.3,0.2,0.4 M42.3,24.7c0,0.1,0.1,0.9,0.1,1
	c0,0.1,0.2,0.7,0.1,0.8c-0.2,0.2-0.5,0.3-0.7,0.4c-1.5,0-2.3-0.3-2.3-0.3 M36.5,28.2c0,0-2.3,1.3-1.8,5 M41.1,29.2l0.1,2.6
	 M36.7,44.8c0,0-0.2-3.2-0.1-3.6 M39.6,19.6c0,0,0-0.8,0.2-1c0.2-0.1,0.5-0.4,0.8-0.4c0.1,0,0.2,0,0.4,0c0.4,0.2,1.6,0.7,1.9,1.4
	c0.2,0.4,0.1,0.7,0,0.9c-0.1,0.1-0.2,0.2-0.2,0.2c-0.2,0.1-0.7,0.2-0.7,0.2 M44.8,15.2C44.8,15.2,44.8,15.2,44.8,15.2 M40.5,18
	c0,0-0.4-0.8,0.3-1.6c0.7-0.8,0.9-1,1.2-1c0.3,0,0.8-0.1,0.8-0.1s1-0.7,1.9-0.1 M43,24.8c0,0,0.5-1.1,0.5-1.2c0,0,0.9-1.3,0-3.5
	c-0.1-0.3-0.7,0.3-0.7,0.3c0,0,0,0,0,0 M48.1,22c0,0-0.1,0.7-0.2,0.6c-0.1,0-0.4-0.5-0.4-0.5l0.3-1l0.1-1.3l0-0.1l1-1.6
	c0-0.1-0.1-0.7-0.2-0.8c-0.1-0.1-0.5-0.5-0.5-0.6c0-0.1-0.1-0.6-0.1-0.6s-0.7,0.6-0.9,0.7c-0.2,0.1-0.7,0-0.8,0
	c-0.1,0-0.5,0.1-0.5,0.2c-0.1,0.2-0.4,0.7-0.4,0.8c-0.1,0.1-0.2,0.6-0.2,0.9c0,0.1-0.1,0.2-0.1,0.3c-0.1,0.1-0.1,0.2-0.2,0.3
	c-0.1,0.2,0,0.4,0.1,0.6c0,0.3,0,0.8-0.1,0.9c0,0.1-0.3,0.1-0.3,0.1c-0.1,0-0.4,0.2-0.4,0.2s0.1-0.4,0.1-0.5c0-0.1-0.2-0.7-0.3-0.8
	c-0.1-0.2-0.2-1.6-0.2-1.9c0-0.3,0.3-1.1,0.3-1.3c0-0.2,0.2-0.8,0.4-1.1c0.1-0.1,0.2-0.2,0.3-0.4v0c0.2-0.3,0.5-0.6,0.6-0.6
	c0.1-0.1,1.1-0.3,1.1-0.3s1.1-0.1,1.7,0.5c0,0,0.7,0,0.9,0.5c0.2,0.4,0.6,1.2,0.5,1.4c0,0.2-0.2,0.4-0.1,0.5c0,0.1,0,0.8-0.1,1
	c0,0,0,0,0,0.1c-0.1,0.1-0.1,0.3-0.1,0.4c0,0.2,0.2,0.7,0.1,0.8c-0.1,0.1-0.3,0.2-0.3,0.3c0,0.1,0,0.6-0.2,0.7
	c-0.1,0.1-0.2,0.3-0.2,0.4c0,0.1,0.1,0.7-0.1,0.9c-0.1,0.1-0.1,0.2-0.2,0.2v0c-0.1,0-0.1,0-0.2,0.1L48.1,22z M45.2,19.1
	c0,0,0.3,1.2,1,1.4c0,0,1,0,1.8-0.6 M53,22.1c0,0,0-0.1,0-0.1 M49.5,18.2c0,0,1.9,0.7,3,2.6c0,0,0.4,0.8,0.4,1.1c0,0.1,0,0.2,0,0.2
	v0 M53.9,23.1c0,0-0.2-0.4-0.9-0.9c-0.3-0.2-0.7-0.5-1.2-0.7 M48.5,21.8c0,0-0.3,1.3,1.4,2.5 M45.4,28.1l-1.8-0.9 M44.7,45.8
	c0.2-0.3,0.5-0.8,0.3-1.5c-0.3-1.1-0.2-1.4-0.1-1.7c0.1-0.2,1.5-1.9,2.5-3.7c0.1-0.2,0.2-0.4,0.3-0.6c0.4-0.8,0.7-1.6,0.6-2.3
	l0.9-1.8l0,0 M42.8,49.9l-0.3,1.4l0.5-1.5l1-2.6l1.2,3.4l-0.7-4.8l0-0.5c0,0-0.5,0-0.7,0.4c-0.2,0.4-0.5,1.2-0.6,1.6
	c-0.1,0.3-0.2,0.6-0.2,0.6l0,0c-0.3,0-0.3-0.4-0.3-0.4l-0.1-1.8c-0.1-0.1-0.2-0.2-0.2-0.3c-0.2-0.3-0.1-0.8-0.1-1.1
	c0-0.4,0.4-0.9,0.6-1.5c0.1-0.3,0.4-1,0.6-1.7c0.3-0.9,0.5-1.7,0.5-1.7c0.1-1,0.3-1.8,0.5-2.4c0.4-1.2,0.9-1.5,1-1.6
	c0.1-0.1,0.4-0.8,0.4-0.8 M43.1,47.9l-0.3,2 M46.1,30.9c0,0-0.1,0.4-0.3,0.5c-0.1,0.1-0.8,1-0.7,1.6c0.1,0.6,0.4,1.6,0.4,1.6l0.3,0
	l2.7-0.3c0,0,0.2,0,0.4-0.1c0.3-0.1,0.6-0.2,0.8-0.4c0.3-0.4,1.3-1.9,1.3-1.9 M38.4,50.9l4.2,1.4l7.8-2.2l-4.5-0.9l-2.9,0.7
	l-0.3,0.1L38.4,50.9L38.4,50.9 M38.4,50.9l0,1.1l4.3,1.4l7.8-2.3v-1.1 M42.6,52.3l0,1.1 M45.6,29c0,0-0.2-0.2-0.2-0.4
	c0.1-0.2-0.2-0.7,0-0.8c0.1-0.1,0.1-0.4,0.3-0.7c0.1-0.1,0.2-0.2,0.4-0.3c0.5-0.1,0.3-0.6,0.7-0.7c0.4-0.1,0.7-0.4,0.9-0.4
	c0.1,0,0.6-0.2,0.8-0.2c0.1,0,0.2,0,0.4-0.1c0.2,0,0.4,0,0.5,0c0.1,0,0.3,0.2,0.6,0.3c0.2,0.1,0.3,0.1,0.4,0.1
	c0.2,0,0.8,0.3,0.9,0.3c0.1,0,0.5,0,0.5,0.2c0,0.2-0.1,0.3-0.1,0.3c0.1,0,0.3,0.2,0.3,0.3c0,0.1-0.2,0.3-0.1,0.4
	c0,0.1,0.3,0.5,0.3,0.6c0,0.1,0.1,0.3,0,0.4c-0.1,0.1-0.2,0.1-0.1,0.2c0.1,0.1,0,0.2-0.1,0.3c-0.1,0.1-0.2,0.2-0.2,0.3
	c-0.1,0.1-0.3,0.4-0.4,0.5c-0.1,0.1-0.4,0-0.5,0.2c0,0.1-0.5,0.3-0.6,0.3c-0.1,0-0.6,0.3-0.7,0.1c-0.1-0.2-0.1-0.6,0-0.7
	c0-0.1,0.2-0.2,0.2-0.3c0-0.1,0-0.3,0-0.3c0-0.1-0.3-0.3-0.1-0.5c0.2-0.2,0.6-1,0.7-1.2c0.1-0.2,0-0.4,0-0.5c0-0.1-0.6-0.4-0.7-0.4
	c-0.1,0-0.8-0.2-0.9-0.2c-0.2,0-0.6,0-0.8,0.1c-0.2,0.1-0.6,0.3-0.7,0.3c-0.1,0.1-0.4,0.4-0.4,0.4l-0.5,0.4c0,0-0.6,0.6-0.6,1.8
	c0,0.3,0,0.6,0.1,0.9c0,0,0.1,0.5,0.4,1c0.1,0.1,0.8,0.7,0.8,0.7s0.3,0.1,0.4,0.1c0.1,0,0.3,0.1,0.4,0.3c0.1,0.2,0.3,1,0.7,0.8
	l0.3-0.3c0,0,0.5,0.2,0.5,0.2c0.1,0,0.8,0.4,1.6-0.8c0.1-0.1,0.2-0.3,0.3-0.4c0,0,0.3-0.8,0.6-1.4c0.1,0,0.3-0.2,0.4-0.2
	c0.9-0.3,1.3-1.6,1.3-1.6s0-0.2,0-0.4 M52.7,30.9c0,0.2-0.4,1.7-0.5,2c0,0.3-0.1,0.6,0.1,1c0.1,0.4,0.3,1.3,0.3,1.7
	c0,0.4-0.2,1.5-0.4,2.1c0,0.1,0,0.2-0.1,0.3l-0.1,0.3l-0.5,1.1c0,0-0.9,1.7-1,2.1c-0.2,0.4-0.9,1.7-0.1,3.6l0.3,1.1
	c0.5,1.5,0.7,1.7,1.2,1.8 M53.4,42.2c0,0-0.3,2.6-0.6,3.3c-0.3,0.8-0.5,1.4-0.5,1.7c0,0.3-0.2,1.1-0.3,1.3c-0.1,0.1-0.2,0.4-0.2,0.6
	c0,0.1-0.1,0.3,0,0.4c0,0.4,0.1,0.7,0.4,0.8c0.3,0,0.7-0.1,0.7-0.1s0.4,0.2,0.6,0.2c0.2,0,0.5,0.1,0.6,0c0.2-0.1,0.5-0.2,0.6-0.3
	c0.1-0.1,0.5-0.4,0.5-0.7c0-0.3-0.6-1.1-0.6-1.1s0-0.1-0.1-0.3c-0.1-0.4-0.2-1.1,0-1.6c0.3-0.6,3.4-5,3.2-8.1 M59.5,37.9
	c0,0-1.1-0.1-1.9,0.4l0,0c-0.2,0.1-0.3,0.3-0.4,0.4c-0.5,0.7-2.5,2.3-3.8,3.4c-0.4,0.4-0.8,0.6-1,0.8c-0.1,0.1-0.5,0.7-0.5,0.7
	s0.5-7.4,5.3-13.2 M48.9,25.3c0,0,0.4-0.6,1.1-0.9c0.2-0.1,3.4-1.8,6.4-1.3 M53.4,26.9c0-0.1,0.9-2.8,2.6-3.5
	c0.6-0.4,1.3-0.1,1.3-0.1c0.4,0.2,1.4-0.2,2.6,0.7l0.9-0.3c1.6-0.3,2.4,1.1,2.4,2s-1.2,2-1.2,2l-1.2,1c-0.3,0.6-1.6,1.2-2,1.5
	c-0.6,0.4-1.2,0.5-1.8,0.3c-1.9-0.4-3.6-2.7-3.6-2.7 M55.6,46.6c0,0,1.2,1.3,2.1,1.6 M49.2,32.5l0.3-0.2 M43.1,35.4
	c0,0-0.1-1.4-0.1-2c0-0.3,0.3-1.8,0.6-3.2 M44.1,34.7c0,0-2.3,0.9-1.4,3.1 M43,37.7c-0.4,0.5-0.4,0.5-0.4,0.6c0,0.1-0.2,0.9-0.2,1
	c0,0.1,0,0.4-0.1,0.4c-0.1,0-0.4,0.3-0.4,0.2c0-0.1-0.3-0.5-0.5-0.5c-0.1,0-0.3,0-0.3,0.1c0.1,0.2-0.5,0.1-0.1,0.4l0.4,0.4
	c0,0,0.4,0.3,0.6,0.4c0.2,0.1,0.6,0,0.8-0.3 M43,37.7C43,37.7,43,37.7,43,37.7 M44.5,37.1c0,0-0.4-0.4-1,0.2
	c-0.4,0.4-0.5,0.4-0.5,0.5v0c0,0,0,0,0,0v0c0,0,0,0,0,0l0,0l0,0 M42.8,39.2c0,0.2-0.2,0.7,0.2,0.8c0,0,0.3,0,0.3-0.3
	c0-0.3,0.2-0.5,0.2-0.6 M43,40c0,0,0,0.2-0.1,0.5c0,0.2-0.1,0.5-0.1,0.5c-0.1,0.1-0.3,0.7-0.2,0.7c0,0,0.2,0.5,0.4,0.1l0.3-0.4
	l0.3-0.4 M46.1,19.8c0,0,0.2,0.2,0.4,0.2 M46.4,19.4c0,0,0,0.1,0.3,0.1 M41.6,25.6c0,0,0.4-0.1,0.7-0.3 M39.9,24.5
	c0,0,0.5-0.6,0.7-0.5 M40.4,24.2L40.4,24.2 M40.2,35.5l-0.2,0.1 M36.7,19.8l-0.1,0.2 M46.2,18.3l0,0.1 M47.8,18.9l0,0.2 M48.7,31.3
	l0.1,0.1 M48.2,31.4l1.1-0.2 M58.1,30.5l-1,4 M58.9,30c-6.5-1.7-2.3-6-1.6-6.7 M36.4,19.5l0.7,0.5 M45.8,18c0,0,0.4,0.2,0.8,0.3
	 M47.5,18.7c0,0,0.4,0.2,0.8,0.3 M40.5,35.6c0,0-0.5-0.1-0.6-0.3 M34.9,24.7l0.3,0c0,0,0.7,0.1,0.8,0.1c0.1,0,0.7,0.1,0.7,0.1
	c0.1,0.2-0.3,0.3-0.3,0.3l-0.7,0.1l0.2,0.3c0.2,0.3-0.2,0.6-0.2,0.6c0.1,0.6-0.3,0.8-0.3,0.8c-0.6,0.4-1.2,0.1-1.7-0.2
	c-0.1-0.1-0.2-0.1-0.3-0.2c-0.4-0.2-0.3-0.6-0.3-1c0-0.4,0.2-0.8,0.3-0.9c0.1-0.2,0.7-0.3,0.7-0.3l0.5,0.1L34.9,24.7L34.9,24.7
	c0,0,0.2,0.3,0.1,0.4c-0.1,0.1-0.5,0.2-0.6,0.1l-0.2-0.1 M43.2,18.8l0.4,1.6 M61.1,48.2c0,0-2.5-0.5-2.6-4.5 M35.3,43.6
	c0,0,2.3,2.5,3.1,2.5 M39.7,40.1c-0.1,1.2-0.2,2.1-0.2,2.1c-0.2,1.7-1.1,3.9-1.1,3.9s0.9,0,1.8-0.3c0.9-0.3,1.4-1,2.2-0.5
	 M47.7,38.4c1.2-0.3,2.2-0.4,3-0.5h0c0.9-0.1,1.5-0.1,1.5-0.1 M47.6,38.4c0,0,0,2.6,0,2.9c0,0.2,0.1,1.1-0.2,1.4
	c-0.2,0.4-0.5,1-0.5,1.2c0,0.3,0,0.7,0,0.8c0,0.1-0.3,0.9-0.3,0.9s-0.1,0.7,0.5,0.8c0.6,0.1,1.5,0.1,1.8-0.1
	c0.3-0.2,0.6-0.5,0.5-0.7c-0.1-0.2-0.3-0.4-0.5-0.6c-0.2-0.2-0.4-0.6-0.3-0.9c0,0,0.1-0.3,0.1-0.5c0-0.1,0-0.7,0.1-0.9
	C49,42.6,50,41,50,41s0.5-0.8,0.7-3 M41.2,20.4c0,0-0.1-0.2-0.2-0.4c-0.1-0.1-0.1-0.2-0.1-0.2c0-0.1-0.1-0.2,0-0.3
	c0.1-0.1,0.3,0,0.3,0c0,0,0.1,0.2,0.3,0.3c0.2,0.1,0.1,0,0.3,0.6c0,0.1,0,0.2,0,0.3c0,0.3-0.4,0.3-0.8,0.5c-0.5,0.4-1.1,0-1.1,0
	S39,20.6,39,20.5c-0.1-0.1-0.1-0.1-0.2,0c-0.1,0.1,0,0.1-0.4,0.1c-0.3,0-0.5-0.2-0.5-0.3c0-0.1,0.4-0.3,0.4-0.3s0.5-0.3,1-0.3
	c0.1,0,0.2,0,0.2,0c0.4,0,0.6-0.1,0.9,0.2l0.5,0.3 M18.9,38.2c0,0-1.4-0.3-1.4-0.5c0,0,0-0.1,0-0.2c0.1-0.1,0.3-0.3,0.4-0.5
	c0-0.1,0-0.1,0.2-0.4c0.2-0.4,0.5-1.1,0.5-1.1c0.3-0.7,0.2-0.9,0.2-0.9l0.3-4c0-1.8,1.1-2.8,1.1-2.8 M27.2,28c0,0-2.1,0.3-4.3,0.2
	c-0.6,0-1.2-0.1-1.7-0.2c-0.3-0.1-0.6-0.1-0.9-0.2c-0.2,0-0.3-0.1-0.5-0.2c0,0-0.9,0.3-1.2,2.7c0,0-0.1,2.3-0.4,3.3
	c-0.6,1.2-1.8,2.5-1.8,2.5s-0.3,0.4,0.1,0.8l0.9,0.6 M62.7,27c0.5,1.4,0.9,3.2,1.2,5.8c0.6,5-0.7,9.4-1.1,11.1c-0.4,1.6,0.2,4,1,4.2
	c0,0-2.8,0.3-4,0.3c-0.5,0-0.6,0-1.1,0c-2-0.1-4-0.2-4.1-0.3"/>
<path class="st6" d="M52.2,43c0,0-1.3,1,0.6,1.6"/>
<path class="st5" d="M62.6,31.2c0,0,0.3,1.8,0,3.7c-0.3,1.9,0.4,7.8,0.2,8.9"/>
<line class="st5" x1="58.5" y1="26.1" x2="59.6" y2="25"/>
<path class="st5" d="M43,33.8c0,0,1-3.1,1.6-3.3 M34.5,34.9c0,0,2.3,0.9,2.7,2 M27.7,29.3c0,0-0.1,1,0.2,2.5
	c0.3,1.5,0.7,2.8,0.7,2.8 M39.6,29c0,0,2.3,0.5,2.7-1.1 M37,39.1c-0.1,0.5-0.1,1.1-0.6,2.2c0,0-0.2,0.6-0.5,1.1
	c-0.2,0.6-1.6,1.9-1.6,1.9 M31,36.8c0,0,0.6-0.7,1.9-0.7c0,0,0.6,0,1,0 M51.7,26.1c0,0,1.8-0.4,1.9,1.6 M41.9,25
	c0.4-0.2,0.5-0.5,0.5-0.5s-0.6-0.4-0.9-0.6c-0.4-0.1,0-0.4,0-0.4 M51.6,29.8c0,0-0.1,0.9-0.4,1.5 M52,30.8l2.5-0.1
	c0,0,0.5-0.1,0.9-0.3 M57,42c1.5,1.7,3.1,3.4,3.1,3.4 M53.8,33.6c0,0-0.1,0.9,0.1,2.1"/>
<line class="st5" x1="37.5" y1="36.6" x2="37.2" y2="36.8"/>
<path d="M160.7,49.9c0.3,0.4,1.2,1.3,2.9,1.3c2,0,3.2-1.2,3.2-2.7c0-1.2-1.1-2.1-1.7-2.4v0c0.6-0.3,1.5-1.1,1.5-2.2
	c0-1.6-1.3-2.6-3-2.6c-1.6,0-2.6,1.3-2.6,1.3c-0.1,0.1-0.1,0.3,0,0.4l0.5,0.5c0.1,0.1,0.3,0.1,0.4,0c0.3-0.3,0.8-0.8,1.7-0.8
	c0.8,0,1.6,0.6,1.6,1.6c0,0.8-0.7,1.5-2,1.5h-0.8c-0.2,0-0.3,0.1-0.3,0.3v0.6c0,0.2,0.1,0.3,0.3,0.3h0.8c1.5,0,2.3,0.8,2.3,1.7
	c0,1-0.9,1.5-1.8,1.5c-1.1,0-1.9-0.8-1.9-0.9c-0.1-0.1-0.2-0.1-0.4,0l-0.6,0.5C160.6,49.6,160.6,49.8,160.7,49.9 M156.4,49.9
	c-1.6,0-2.1-1.6-2-2.8c0.1-0.3,0.8-1.1,2-1.1c1.1,0,1.9,0.9,1.9,1.9C158.3,49,157.5,49.9,156.4,49.9 M153.1,47.1c0,2.2,1.1,4,3.4,4
	c1.7,0,3.2-1.5,3.2-3.3c0-2-1.5-3.1-3-3.1c-1,0-1.8,0.5-1.9,0.5c0.5-1.8,2.8-2.9,3.4-3.2c0.3-0.1,0.3-0.2,0.3-0.4l-0.2-0.6
	c-0.1-0.2-0.2-0.2-0.4-0.2C156.5,41.5,153.1,43.1,153.1,47.1 M146.5,48.4c0-0.8,0.7-1.5,1.8-1.7c1.2,0.2,1.8,1,1.8,1.7
	c0,1-0.8,1.6-1.8,1.6C147.3,50,146.5,49.4,146.5,48.4 M148.3,45.3c-1.1-0.2-1.6-0.8-1.6-1.5c0-0.9,0.7-1.5,1.6-1.5
	c0.9,0,1.6,0.6,1.6,1.5C149.9,44.6,149.4,45.2,148.3,45.3 M145,48.4c0,1.6,1.3,2.8,3.3,2.8c2.1,0,3.3-1.2,3.3-2.8
	c0-1.2-1.1-2.1-1.7-2.4v-0.1c0.6-0.3,1.5-1.1,1.5-2.2c0-1.6-1.3-2.6-3.1-2.6c-1.7,0-3,1-3,2.6c0,1.1,0.9,1.9,1.5,2.2v0
	C146.2,46.2,145,47.1,145,48.4 M138.1,51h5c0.2,0,0.3-0.1,0.3-0.3v-0.6c0-0.2-0.1-0.3-0.3-0.3h-1.6v-8.3c0-0.1-0.1-0.3-0.3-0.3h-0.7
	l-2.1,1.9c-0.1,0.1-0.1,0.2,0,0.3l0.2,0.5c0,0.1,0.2,0.2,0.3,0.1l1.2-0.6v6.4h-2c-0.2,0-0.3,0.1-0.3,0.3v0.6
	C137.8,50.9,137.9,51,138.1,51 M125,46c0-2,1.7-3.7,3.7-3.7c2,0,3.7,1.7,3.7,3.7c0,2-1.7,3.7-3.7,3.7C126.7,49.7,125,48.1,125,46
	 M123.6,46c0,2.9,2.3,5.1,5.1,5.1c2.9,0,5.2-2.3,5.2-5.1c0-2.9-2.3-5.2-5.2-5.2C125.9,40.8,123.6,43.1,123.6,46 M113.3,50.7
	c0,0.1,0.1,0.3,0.3,0.3h0.9c0.2,0,0.3-0.1,0.3-0.3v-7h0l6.2,7.4h0.4c0.1,0,0.3-0.1,0.3-0.3v-9.6c0-0.1-0.1-0.3-0.3-0.3h-0.9
	c-0.2,0-0.3,0.1-0.3,0.3V48h0l-6.2-7.2h-0.4c-0.1,0-0.3,0.1-0.3,0.3V50.7z M105.3,47.6l1.7-3.9h0.1l1.8,3.9H105.3z M102.7,51h0.9
	c0.2,0,0.3-0.1,0.3-0.2c0.3-0.7,0.6-1.3,0.9-2h4.7l0.9,2c0.1,0.1,0.2,0.2,0.3,0.2h0.9c0.2,0,0.3-0.2,0.2-0.4l-4.4-9.6
	c0-0.1-0.2-0.2-0.2-0.2h-0.1c-0.1,0-0.2,0.1-0.2,0.2l-4.4,9.6C102.3,50.8,102.5,51,102.7,51 M95.9,50.7c0,0.1,0.1,0.3,0.3,0.3h5.1
	c0.2,0,0.3-0.1,0.3-0.3v-0.8c0-0.1-0.1-0.3-0.3-0.3h-3.9v-8.4c0-0.1-0.1-0.3-0.3-0.3h-0.9c-0.2,0-0.3,0.1-0.3,0.3V50.7z M91.6,50.7
	c0,0.1,0.1,0.3,0.3,0.3h0.9c0.1,0,0.3-0.1,0.3-0.3v-9.5c0-0.1-0.1-0.3-0.3-0.3h-0.9c-0.1,0-0.3,0.1-0.3,0.3V50.7z M78.5,50.7
	c0,0.2,0.1,0.3,0.3,0.3h0.9c0.1,0,0.2-0.1,0.3-0.2l1-6.4h0.1l2.6,6.6c0,0.1,0.1,0.2,0.2,0.2h0.3c0.1,0,0.2-0.1,0.2-0.2l2.6-6.6h0
	l1.1,6.4c0,0.1,0.1,0.2,0.3,0.2h0.9c0.2,0,0.3-0.1,0.3-0.3L87.8,41c0-0.1-0.1-0.2-0.3-0.2h-0.2c-0.1,0-0.2,0.1-0.2,0.2l-3,7.3H84
	L81,41c0-0.1-0.2-0.2-0.2-0.2h-0.2c-0.1,0-0.2,0.1-0.3,0.2L78.5,50.7z"/>
<path d="M199.1,27c0-2.6,2.1-4.7,4.7-4.7c2.6,0,4.7,2.1,4.7,4.7c0,2.6-2.1,4.7-4.7,4.7C201.2,31.7,199.1,29.6,199.1,27 M196.4,27
	c0,4.1,3.3,7.3,7.3,7.3s7.4-3.3,7.4-7.3c0-4.1-3.3-7.4-7.4-7.4S196.4,23,196.4,27 M182.2,27c0,4.1,3.3,7.3,7.4,7.3
	c1.8,0,3.6-0.6,5-2c0.1-0.1,0.2-0.4,0-0.6l-1.3-1.3c-0.1-0.1-0.3-0.1-0.5,0c-0.9,0.7-1.9,1.2-3.1,1.2c-2.6,0-4.6-2.2-4.6-4.7
	c0-2.6,1.9-4.8,4.6-4.8c1.1,0,2.3,0.5,3.2,1.2c0.2,0.2,0.4,0.2,0.5,0l1.2-1.3c0.2-0.2,0.2-0.4,0-0.6c-1.4-1.2-2.9-1.9-5-1.9
	C185.5,19.7,182.2,23,182.2,27 M176.8,33.8c0,0.2,0.2,0.4,0.4,0.4h1.9c0.2,0,0.4-0.2,0.4-0.4V20.3c0-0.2-0.2-0.4-0.4-0.4h-1.9
	c-0.2,0-0.4,0.2-0.4,0.4V33.8z M161.2,33.8c0,0.2,0.2,0.4,0.4,0.4h1.9c0.2,0,0.4-0.2,0.4-0.4V25h0l8.5,9.4h0.5
	c0.2,0,0.4-0.2,0.4-0.4V20.3c0-0.2-0.2-0.4-0.4-0.4H171c-0.2,0-0.4,0.2-0.4,0.4v8.4h0l-8.5-9h-0.5c-0.2,0-0.4,0.2-0.4,0.4V33.8z
	 M146.1,27c0,4.1,3.3,7.3,7.4,7.3c1.8,0,3.6-0.6,5-2c0.1-0.1,0.2-0.4,0-0.6l-1.3-1.3c-0.1-0.1-0.3-0.1-0.5,0
	c-0.9,0.7-1.9,1.2-3.1,1.2c-2.6,0-4.6-2.2-4.6-4.7c0-2.6,1.9-4.8,4.6-4.8c1.1,0,2.3,0.5,3.1,1.2c0.2,0.2,0.4,0.2,0.5,0l1.2-1.3
	c0.2-0.2,0.2-0.4,0-0.6c-1.4-1.2-2.9-1.9-5-1.9C149.4,19.7,146.1,23,146.1,27 M134.9,33.8c0,0.2,0.2,0.4,0.4,0.4h8.3
	c0.2,0,0.4-0.2,0.4-0.4v-1.7c0-0.2-0.2-0.4-0.4-0.4h-6.1v-3.6h5.1c0.2,0,0.4-0.2,0.4-0.4v-1.7c0-0.2-0.2-0.4-0.4-0.4h-5.1v-3.4h6.1
	c0.2,0,0.4-0.2,0.4-0.4v-1.7c0-0.2-0.2-0.4-0.4-0.4h-8.3c-0.2,0-0.4,0.2-0.4,0.4V33.8z M126.4,33.8c0,0.2,0.2,0.4,0.4,0.4h1.9
	c0.2,0,0.4-0.2,0.4-0.4V22.3h3.1c0.2,0,0.4-0.2,0.4-0.4v-1.7c0-0.2-0.2-0.4-0.4-0.4h-8.9c-0.2,0-0.4,0.2-0.4,0.4v1.7
	c0,0.2,0.2,0.4,0.4,0.4h3.1V33.8z M117.6,33.8c0,0.2,0.2,0.4,0.4,0.4h1.9c0.2,0,0.4-0.2,0.4-0.4V20.3c0-0.2-0.2-0.4-0.4-0.4H118
	c-0.2,0-0.4,0.2-0.4,0.4V33.8z M106.7,33.8c0,0.2,0.2,0.4,0.4,0.4h7.5c0.2,0,0.4-0.2,0.4-0.4v-1.7c0-0.2-0.2-0.4-0.4-0.4h-5.2V20.3
	c0-0.2-0.2-0.4-0.4-0.4h-1.9c-0.2,0-0.4,0.2-0.4,0.4V33.8z M92.5,27c0-2.6,2.1-4.7,4.7-4.7s4.7,2.1,4.7,4.7c0,2.6-2.1,4.7-4.7,4.7
	S92.5,29.6,92.5,27 M89.8,27c0,4.1,3.3,7.3,7.3,7.3s7.4-3.3,7.4-7.3c0-4.1-3.3-7.4-7.4-7.4S89.8,23,89.8,27 M81.2,26.5v-4.1h2.4
	c1.1,0,2.1,0.9,2.1,2c0,1.2-1,2.1-2.1,2.1H81.2z M78.5,33.8c0,0.2,0.2,0.4,0.4,0.4h1.9c0.2,0,0.4-0.2,0.4-0.4V29h2.6
	c2.5,0,4.6-2.1,4.6-4.6c0-2.5-2.1-4.5-4.6-4.5h-4.8c-0.2,0-0.4,0.2-0.4,0.4V33.8z"/>
</svg>
