<?xml version="1.0" encoding="utf-8"?>
<!-- Generator: Adobe Illustrator 21.1.0, SVG Export Plug-In . SVG Version: 6.00 Build 0)  -->
<svg version="1.1" id="Layer_1" xmlns="http://www.w3.org/2000/svg" xmlns:xlink="http://www.w3.org/1999/xlink" x="0px" y="0px"
	 viewBox="0 0 549 469" style="enable-background:new 0 0 549 469;" xml:space="preserve">
<style type="text/css">
	.st0{fill:#050505;}
	.st1{fill:#D13239;}
</style>
<g>
	<g>
		<path class="st0" d="M8.7,352.2H27l8.6,47.5l12.7-47.5h16.1l15,48.3l8.8-48.3h17.4l-14.9,71h-20l-13.3-44.3l-13.6,44.3h-21
			L8.7,352.2z"/>
		<path class="st0" d="M538.7,423.2h-18.3l-8.6-47.6l-12.7,47.6h-16.1l-15-48.3l-8.9,48.3h-17.4l14.9-71h20l13.3,44.3l13.6-44.3h21
			L538.7,423.2z"/>
		<path class="st0" d="M143.8,351c23.1,0,35.2,13.9,35.2,36.7c0,22.6-12.3,36.7-35.2,36.7c-22.9,0-35.2-14.1-35.2-36.7
			C108.6,364.9,120.6,351,143.8,351z M143.8,410.4c11.4,0,15.9-11,15.9-22.7c0-12.3-4.5-22.7-15.9-22.7c-11.4,0-15.9,10.4-15.9,22.7
			C127.9,399.4,132.4,410.4,143.8,410.4z"/>
		<path class="st0" d="M189.4,352.2h18.7v57H237v14h-47.6V352.2z"/>
		<path class="st0" d="M244.7,352.2h46.9v13.4h-28.2v15.6h27v13.4h-27v28.6h-18.7V352.2z"/>
		<path class="st0" d="M301.4,352.2h33.4c12.5,0,22.6,5.7,22.6,17.9c0,9.5-4.4,15.8-13.5,17.9v0.2c6,1.6,6.4,7,9.9,15.7l6.8,19.3
			h-19.5l-4-12.8c-3.8-12.2-6.2-15.3-13.2-15.3h-3.9v28.1h-18.7V352.2z M320.1,381.7h4.9c6,0,13.7-0.2,13.7-8.2
			c0-6.6-6.5-7.8-13.7-7.8h-4.9V381.7z"/>
		<path class="st0" d="M389,352.2h22.9l27,71h-20.5l-5.2-15.1h-26.3l-5.5,15.1h-19L389,352.2z M400.5,366.9h-0.2l-9,27.8h17.6
			L400.5,366.9z"/>
	</g>
	<path class="st0" d="M30,460c-1.6,0.4-3.5,0.9-6.4,0.9c-5.7,0-12.4-2.9-12.4-11.1c0-7.5,5.3-11.2,12.4-11.2c2.2,0,4.3,0.5,6.4,1.1
		l-0.5,4.7c-1.9-1-3.6-1.5-5.6-1.5c-4.1,0-6.7,3-6.7,7c0,4.2,3,6.8,7.2,6.8c1.9,0,3.8-0.5,5.4-1.1L30,460z"/>
	<path class="st0" d="M41.9,438.6c7.1,0,10.8,4.2,10.8,11.2c0,6.9-3.8,11.2-10.8,11.2S31,456.6,31,449.8
		C31,442.8,34.8,438.6,41.9,438.6z M41.9,456.6c3.5,0,4.9-3.3,4.9-6.9c0-3.7-1.4-6.9-4.9-6.9c-3.5,0-4.9,3.2-4.9,6.9
		C37,453.3,38.4,456.6,41.9,456.6z"/>
	<path class="st0" d="M54.3,439h9.1l4.6,14.3H68l4.8-14.3h8.7v21.6h-5.6l0.1-16.6h-0.1l-5.5,16.6h-5.3L59.8,444h-0.1l0.1,16.6h-5.6
		V439z"/>
	<path class="st0" d="M83.7,439h6.9c6.6,0,9.7,2.2,9.7,7.1c0,4.4-3.2,7-8.6,7h-2.2v7.5h-5.7V439z M89.5,448.9H91c2,0,3.6-0.7,3.6-3
		c0-2.2-1.6-2.9-3.6-2.9h-1.5V448.9z"/>
	<path class="st0" d="M121,452.4c0,5.9-3.8,8.6-9.5,8.6c-5.6,0-9.5-2.7-9.5-8.6V439h5.7v12.4c0,2.8,0.8,5.3,3.7,5.3
		c2.9,0,3.7-2.4,3.7-5.3V439h5.7V452.4z"/>
	<path class="st0" d="M127.4,443.2h-5.3V439h16.4v4.3h-5.3v17.3h-5.7V443.2z"/>
	<path class="st0" d="M144.2,439h7l8.3,21.6h-6.3l-1.6-4.6h-8.1l-1.7,4.6h-5.8L144.2,439z M147.8,443.4L147.8,443.4l-2.8,8.4h5.4
		L147.8,443.4z"/>
	<path class="st0" d="M162.5,443.2h-5.3V439h16.4v4.3h-5.3v17.3h-5.7V443.2z"/>
	<path class="st0" d="M175.6,439h5.7v21.6h-5.7V439z"/>
	<path class="st0" d="M193.8,438.6c7.1,0,10.8,4.2,10.8,11.2c0,6.9-3.8,11.2-10.8,11.2s-10.8-4.3-10.8-11.2
		C183,442.8,186.7,438.6,193.8,438.6z M193.8,456.6c3.5,0,4.9-3.3,4.9-6.9c0-3.7-1.4-6.9-4.9-6.9c-3.5,0-4.9,3.2-4.9,6.9
		C188.9,453.3,190.3,456.6,193.8,456.6z"/>
	<path class="st0" d="M206.9,439h7.3l7.3,14.6h0.1l-0.1-14.6h5.3v21.6h-7.1l-7.5-14.7H212l0.2,14.7h-5.3V439z"/>
	<path class="st0" d="M238.3,439h9.1l4.6,14.3h0.1l4.8-14.3h8.7v21.6h-5.6l0.1-16.6h-0.1l-5.5,16.6h-5.3l-5.3-16.6h-0.1l0.1,16.6
		h-5.6V439z"/>
	<path class="st0" d="M268,439h15.2v4.1h-9.5v4.4h8.9v4.1h-8.9v4.9h9.8v4.1H268V439z"/>
	<path class="st0" d="M285.6,439h15.2v4.1h-9.5v4.4h8.9v4.1h-8.9v4.9h9.8v4.1h-15.5V439z"/>
	<path class="st0" d="M308.1,443.2h-5.3V439h16.4v4.3h-5.3v17.3h-5.7V443.2z"/>
	<path class="st0" d="M320.7,455.2c1.5,0.8,3.6,1.4,5.9,1.4c1.8,0,3.6-0.4,3.6-2.1c0-4-10.2-1.5-10.2-9.3c0-5.2,5.1-6.6,9.4-6.6
		c2.1,0,4.1,0.3,5.6,0.8l-0.4,4.4c-1.5-0.7-3.2-1-4.8-1c-1.5,0-3.9,0.1-3.9,2c0,3.5,10.2,1.1,10.2,8.9c0,5.6-4.7,7.1-9.5,7.1
		c-2,0-4.5-0.3-6.4-0.9L320.7,455.2z"/>
	<path class="st0" d="M347.1,439h5.7v8.8h0.1l6.5-8.8h6.9l-8,10l8.6,11.5h-7.3l-6.7-9.8h-0.1v9.8h-5.7V439z"/>
	<path class="st0" d="M368.2,439h7.3l7.3,14.6h0.1l-0.1-14.6h5.3v21.6h-7.1l-7.5-14.7h-0.1l0.2,14.7h-5.3V439z"/>
	<path class="st0" d="M401.1,438.6c7.1,0,10.8,4.2,10.8,11.2c0,6.9-3.8,11.2-10.8,11.2c-7,0-10.8-4.3-10.8-11.2
		C390.3,442.8,394,438.6,401.1,438.6z M401.1,456.6c3.5,0,4.9-3.3,4.9-6.9c0-3.7-1.4-6.9-4.9-6.9c-3.5,0-4.9,3.2-4.9,6.9
		C396.2,453.3,397.6,456.6,401.1,456.6z"/>
	<path class="st0" d="M412,439h5.9l2.8,16.6h0.1l2.9-16.6h7.3l3,16.6h0.1l2.8-16.6h5.6l-4.8,21.6h-7.4l-3.1-16.6H427l-2.8,16.6h-7.4
		L412,439z"/>
	<path class="st0" d="M443.6,439h5.7v17.3h8.9v4.3h-14.6V439z"/>
	<path class="st0" d="M459.4,439h15.2v4.1h-9.5v4.4h8.9v4.1h-8.9v4.9h9.8v4.1h-15.5V439z"/>
	<path class="st0" d="M477.5,439h7.8c7.5,0,12.8,2.3,12.8,10.7c0,8.1-5.4,10.9-12.8,10.9h-7.8V439z M483.2,456.3h2.2
		c4.3,0,6.7-2.2,6.7-6.5c0-4.3-2.5-6.5-6.7-6.5h-2.2V456.3z"/>
	<path class="st0" d="M520.2,459.9c-3.6,0.9-6.4,1-8.3,1c-5.7,0-12.4-2.9-12.4-11.1c0-8.1,5.7-11.2,13.6-11.2c1.4,0,4.4,0.2,6.5,1
		l-0.5,4.7c-1.8-1-3.9-1.4-5.3-1.4c-4.7,0-8.5,1.9-8.5,7c0,4.2,3,6.8,7.2,6.8c0.8,0,1.5-0.1,2-0.4V452h-3.4v-4.1h8.9V459.9z"/>
	<path class="st0" d="M523.2,439h15.2v4.1h-9.5v4.4h8.9v4.1h-8.9v4.9h9.8v4.1h-15.5V439z"/>
</g>
<path class="st1" d="M378.7,165.6l42.5-47.7l-62.4-13.6l6.4-63.5l-58.5,25.7l-32.2-55.1l-32.2,55.1l-58.4-25.7l6.3,63.5l-62.4,13.6
	l42.5,47.7l-42.5,47.7l62.4,13.6l-6.4,63.5l58.5-25.7l32.2,55.1l32.2-55.1l58.5,25.7l-6.3-63.5l62.4-13.6L378.7,165.6z M399.3,201.4
	l-36.8-12.6l-24.4-31.7l32.5,12.1L399.3,201.4z M300.7,258.1l-22,37.7v-40l22.9-33.4L300.7,258.1z M262.2,101.9l-37.9-13.5
	l-22.7-30.6l39.7,17.4L262.2,101.9z M307.6,75.3l39.7-17.4l-22.7,30.6l-37.9,13.5L307.6,75.3z M350.1,106.1l-19.7,28l1.1-40.7l23-31
	L350.1,106.1z M274.5,247L248,208.4l26.5-35.9l26.5,35.9L274.5,247z M227.4,145l-1.3-46.9l44.2,15.7v45.6L227.4,145z M278.7,113.8
	l44.2-15.7l-1.3,46.9l-42.9,14.4V113.8z M198.9,106.1l-4.4-43.7l23,31l1.1,40.7L198.9,106.1z M267.7,167.5l-26.5,35.9l-45-13.3
	l28.6-37.1L267.7,167.5z M247.4,222.4l22.9,33.4v40l-22-37.7L247.4,222.4z M281.3,167.5l42.9-14.5l28.6,37.1l-45,13.3L281.3,167.5z
	 M405.2,123.1l-33.4,37.5L332.4,146l23.7-33.6L405.2,123.1z M274.5,28.1l25.4,43.4l-25.4,32.4l-25.3-32.4L274.5,28.1z M143.8,123.1
	l49.2-10.7l23.7,33.6l-39.4,14.6L143.8,123.1z M178.4,169.2l32.5-12.1l-24.4,31.7l-36.8,12.6L178.4,169.2z M151.5,209.7l37.6-12.8
	l39.2,11.5l-33.8,10.7L151.5,209.7z M198.7,226.7l40-12.7l1,42.5l-46,20.2L198.7,226.7z M309.2,256.6l1-42.5l40,12.7l5,50.1
	L309.2,256.6z M354.4,219.1l-33.8-10.7l39.2-11.6l37.6,12.9L354.4,219.1z"/>
</svg>
